SplineFontDB: 3.0
FontName: NineParchments
FullName: NineParchments
FamilyName: Nine Parchments
Weight: Book
Copyright: All rights reserved by Frozenbyte co. 2018
Version: 1.020
ItalicAngle: 0
UnderlinePosition: -102.4
UnderlineWidth: 51.2
Ascent: 819
Descent: 205
InvalidEm: 0
sfntRevision: 0x00010000
LayerCount: 2
Layer: 0 1 "+BBcEMAQ0BD0EOAQ5 +BD8EOwQwBD0A" 1
Layer: 1 1 "+BB8ENQRABDUENAQ9BDgEOQAA +BD8EOwQwBD0A" 0
XUID: [1021 124 470122697 3685]
StyleMap: 0x0040
FSType: 4
OS2Version: 3
OS2_WeightWidthSlopeOnly: 0
OS2_UseTypoMetrics: 0
CreationTime: 1423037331
ModificationTime: 1564493226
PfmFamily: 81
TTFWeight: 400
TTFWidth: 5
LineGap: 37
VLineGap: 0
Panose: 0 0 0 0 0 0 0 0 0 0
OS2TypoAscent: 774
OS2TypoAOffset: 0
OS2TypoDescent: -304
OS2TypoDOffset: 0
OS2TypoLinegap: 37
OS2WinAscent: 894
OS2WinAOffset: 0
OS2WinDescent: 401
OS2WinDOffset: 0
HheadAscent: 774
HheadAOffset: 0
HheadDescent: -304
HheadDOffset: 0
OS2SubXSize: 717
OS2SubYSize: 666
OS2SubXOff: 0
OS2SubYOff: 143
OS2SupXSize: 717
OS2SupYSize: 666
OS2SupXOff: 0
OS2SupYOff: 488
OS2StrikeYSize: 51
OS2StrikeYPos: 256
OS2CapHeight: 756
OS2XHeight: 421
OS2Vendor: 'pyrs'
OS2CodePages: 00000007.00000000
OS2UnicodeRanges: 80000227.00000042.00000000.00000000
Lookup: 258 0 0 "'kern' Horizontal Kerning in Latin lookup 0" { "'kern' Horizontal Kerning in Latin lookup 0-2" [100,10,2] "'kern' Horizontal Kerning in Latin lookup 0-1" [100,10,2] } ['kern' ('DFLT' <'dflt' > 'latn' <'dflt' > ) ]
Lookup: 258 0 0 "'kern' Horizontal Kerning in Cyrillic lookup 0" { "'kern' Horizontal Kerning in Cyrillic lookup 0-2" [100,10,2] "'kern' Horizontal Kerning in Cyrillic lookup 0-1" [100,10,2] "'kern' Horizontal Kerning in Cyrillic lookup 0-3" [150,15,0] "'kern' Horizontal Kerning in Cyrillic lookup 0-4" [150,15,0] } ['kern' ('DFLT' <'dflt' > 'cyrl' <'dflt' > ) ]
MarkAttachClasses: 1
DEI: 91125
KernClass2: 2 3 "'kern' Horizontal Kerning in Cyrillic lookup 0-4"
 7 uni041A
 7 uni041B
 7 uni042F
 0 {} 0 {} 110 {} 0 {} -195 {} -112 {}

StartChar: A
Encoding: 65 65 1
Width: 668
Flags: W
HStem: 1 1<325 334> 2 51<76 138 563 626> 199 70<120 161 268 430> 705 66<244 276>
VStem: 39 37<56 63> 163 60<71 168> 466 162<27 135>
LayerCount: 2
Fore
SplineSet
222 723 m 1,0,1
 246 740 246 740 246 762 c 0,2,3
 245 766 245 766 245 767 c 0,4,5
 254 770 254 770 263 770 c 128,-1,6
 272 770 272 770 299.5 760.5 c 128,-1,7
 327 751 327 751 346 751 c 2,8,9
 383 751 l 2,10,11
 398 751 398 751 470 767 c 1,12,13
 494 761 494 761 494 740 c 128,-1,14
 494 719 494 719 482 697 c 1,15,16
 468 707 468 707 451.5 707.5 c 128,-1,17
 435 708 435 708 422 701 c 1,18,-1
 422 681 l 2,19,20
 422 659 422 659 474.5 432 c 128,-1,21
 527 205 527 205 562 79 c 0,22,23
 565 67 565 67 573.5 63 c 128,-1,24
 582 59 582 59 593 56 c 0,25,26
 628 47 628 47 628 31 c 0,27,28
 628 24 628 24 621.5 15.5 c 128,-1,29
 615 7 615 7 615 4 c 0,30,31
 615 3 615 3 603 3 c 2,32,-1
 475 1 l 1,33,-1
 384 2 l 2,34,35
 376 2 376 2 376 6 c 0,36,37
 377 13 377 13 398.5 28.5 c 128,-1,38
 420 44 420 44 437.5 56.5 c 128,-1,39
 455 69 455 69 460.5 79.5 c 128,-1,40
 466 90 466 90 466 120 c 128,-1,41
 466 150 466 150 444 197 c 1,42,-1
 256 196 l 1,43,44
 223 111 223 111 223 91 c 128,-1,45
 223 71 223 71 228 66 c 0,46,47
 242 52 242 52 283.5 27 c 128,-1,48
 325 2 325 2 334 2 c 1,49,50
 331 1 331 1 306 1 c 2,51,-1
 245 1 l 1,52,-1
 92 2 l 2,53,54
 46 2 46 2 40 20 c 0,55,56
 39 23 39 23 39 25 c 2,57,-1
 39 47 l 2,58,59
 39 69 39 69 76 73 c 1,60,-1
 76 72 l 1,61,62
 75 70 75 70 85.5 61.5 c 128,-1,63
 96 53 96 53 104 53 c 2,64,-1
 113 53 l 1,65,66
 130 57 130 57 138 67 c 128,-1,67
 146 77 146 77 154.5 122 c 128,-1,68
 163 167 163 167 163 178.5 c 128,-1,69
 163 190 163 190 162 194 c 1,70,71
 149 199 149 199 141 199 c 0,72,73
 110 199 110 199 89 182 c 0,74,75
 84 178 84 178 83 179 c 0,76,77
 75 183 75 183 75 196 c 0,78,79
 75 223 75 223 116 244 c 0,80,81
 162 269 162 269 176 268 c 1,82,-1
 276 699 l 2,83,84
 276 700 276 700 276 701 c 0,85,86
 277 704 277 704 273 705 c 0,87,88
 267 705 267 705 263 704 c 128,-1,89
 259 703 259 703 246 707 c 128,-1,90
 233 711 233 711 222 723 c 1,0,1
268 263 m 1,91,-1
 430 264 l 1,92,-1
 391 451 l 2,93,94
 384 486 384 486 377 519 c 128,-1,95
 370 552 370 552 364.5 578 c 128,-1,96
 359 604 359 604 355 620 c 2,97,-1
 352 635 l 257,98,-1
 349 618 l 1,99,100
 326 529 326 529 309 447.5 c 128,-1,101
 292 366 292 366 268 263 c 1,91,-1
EndSplineSet
Validated: 8388641
EndChar

StartChar: B
Encoding: 66 66 2
Width: 607
Flags: W
HStem: 1 83<47 130> 2 58<211 434> 220 100<209 356> 655 97<201 364> 689 83<82 122>
VStem: 124 77<321 656> 473 90<95 183> 487 77<417 566>
LayerCount: 2
Fore
SplineSet
122 696 m 0,0,1
 121 704 121 704 111 696 c 0,2,3
 102 689 102 689 96 689 c 2,4,-1
 87 689 l 1,5,6
 86 689 86 689 85 689 c 0,7,8
 79 689 79 689 74 718 c 0,9,10
 73 723 73 723 73 732.5 c 128,-1,11
 73 742 73 742 90.5 757 c 128,-1,12
 108 772 108 772 135.5 772 c 128,-1,13
 163 772 163 772 199 743 c 1,14,-1
 199 746 l 1,15,16
 242 752 242 752 287 753 c 0,17,18
 385 753 385 753 452 713 c 0,19,20
 565 645 565 645 564 482 c 2,21,-1
 564 474 l 1,22,23
 559 387 559 387 517 339 c 0,24,25
 460 273 460 273 358 273 c 1,26,27
 421 267 421 267 478.5 241.5 c 128,-1,28
 536 216 536 216 556 170 c 0,29,30
 563 154 563 154 563 138 c 128,-1,31
 563 122 563 122 562 116 c 0,32,33
 551 53 551 53 449 24 c 0,34,35
 396 9 396 9 266 2 c 0,36,37
 246 1 246 1 195 1 c 2,38,-1
 69 1 l 2,39,40
 52 1 52 1 47 19 c 1,41,-1
 44 41 l 2,42,43
 41 59 41 59 38 71.5 c 128,-1,44
 35 84 35 84 50.5 84 c 128,-1,45
 66 84 66 84 115 68 c 0,46,47
 130 63 130 63 130 69 c 0,48,49
 130 220 130 220 127 287 c 0,50,51
 123 377 123 377 123 397 c 0,52,53
 123 400 123 400 123.5 402 c 128,-1,54
 124 404 124 404 124 440 c 2,55,-1
 124 506 l 2,56,57
 124 684 124 684 122 696 c 0,0,1
201 605 m 1,58,-1
 202 490 l 2,59,60
 203 416 203 416 205 323 c 1,61,62
 227 321 227 321 260 321 c 0,63,64
 326 321 326 321 391 350 c 0,65,66
 418 362 418 362 437 381 c 0,67,68
 483 425 483 425 487 492 c 1,69,-1
 487 504 l 2,70,71
 487 570 487 570 418 610 c 0,72,73
 368 640 368 640 279 651 c 0,74,75
 246 655 246 655 224 655 c 128,-1,76
 202 655 202 655 201 656 c 1,77,-1
 201 605 l 1,58,-1
280 60 m 2,78,-1
 341 61 l 1,79,80
 473 69 473 69 473 142 c 2,81,-1
 473 145 l 2,82,83
 473 164 473 164 453.5 181 c 128,-1,84
 434 198 434 198 406.5 206 c 128,-1,85
 379 214 379 214 345 217 c 128,-1,86
 311 220 311 220 281.5 220 c 128,-1,87
 252 220 252 220 243 219 c 2,88,-1
 212 218 l 2,89,90
 209 218 209 218 209 181 c 2,91,-1
 210 109 l 1,92,-1
 211 68 l 258,93,94
 211 67 211 67 232 63.5 c 128,-1,95
 253 60 253 60 280 60 c 2,78,-1
EndSplineSet
Validated: 8388641
EndChar

StartChar: C
Encoding: 67 67 3
Width: 528
Flags: W
HStem: 2 68<204 336> 689 71<209 312>
VStem: 44 76<229 532> 377 90<465 592> 377 80<111 230>
LayerCount: 2
Fore
SplineSet
312 4 m 0,0,1
 290 2 290 2 278 2 c 2,2,-1
 258 2 l 2,3,4
 256 2 256 2 244 2 c 0,5,6
 233 2 233 2 193 13 c 128,-1,7
 153 24 153 24 125 48 c 0,8,9
 44 120 44 120 44 297 c 2,10,-1
 44 315 l 2,11,12
 44 321 44 321 45 328 c 1,13,-1
 40 442 l 1,14,-1
 40 450 l 2,15,16
 40 521 40 521 58 580.5 c 128,-1,17
 76 640 76 640 98 673 c 0,18,19
 146 744 146 744 241 759 c 0,20,21
 247 760 247 760 278 760 c 128,-1,22
 309 760 309 760 350 739.5 c 128,-1,23
 391 719 391 719 412 700 c 1,24,25
 449 656 449 656 463 506 c 0,26,27
 467 463 467 463 467 456 c 2,28,-1
 467 455 l 1,29,-1
 447 455 l 1,30,31
 441 454 441 454 431.5 453.5 c 128,-1,32
 422 453 422 453 412 444.5 c 128,-1,33
 402 436 402 436 394.5 426 c 128,-1,34
 387 416 387 416 382.5 408 c 128,-1,35
 378 400 378 400 377 401 c 256,36,37
 376 402 376 402 368 407.5 c 128,-1,38
 360 413 360 413 344.5 424 c 128,-1,39
 329 435 329 435 329 436.5 c 128,-1,40
 329 438 329 438 340 450 c 0,41,42
 377 487 377 487 377 510 c 2,43,-1
 377 513 l 2,44,45
 377 516 377 516 358 581.5 c 128,-1,46
 339 647 339 647 302 676 c 0,47,48
 285 689 285 689 271 689 c 128,-1,49
 257 689 257 689 249 688 c 0,50,51
 205 683 205 683 172 614 c 0,52,53
 146 560 146 560 133 493.5 c 128,-1,54
 120 427 120 427 120 401 c 2,55,-1
 120 373 l 1,56,57
 128 247 128 247 164.5 158.5 c 128,-1,58
 201 70 201 70 249 70 c 2,59,-1
 256 70 l 2,60,61
 322 70 322 70 349.5 104 c 128,-1,62
 377 138 377 138 377 186 c 0,63,64
 377 204 377 204 375 216.5 c 128,-1,65
 373 229 373 229 374 230 c 256,66,67
 381 237 381 237 429.5 241 c 128,-1,68
 478 245 478 245 483 245 c 2,69,-1
 488 245 l 257,70,71
 488 244 488 244 483 238 c 0,72,73
 456 206 456 206 457 171 c 0,74,75
 457 162 457 162 459 154 c 0,76,77
 460 149 460 149 460 146 c 0,78,79
 458 124 458 124 444 103 c 0,80,81
 425 73 425 73 404 56 c 1,82,83
 364 9 364 9 312 4 c 0,0,1
EndSplineSet
Validated: 8388641
EndChar

StartChar: D
Encoding: 68 68 4
Width: 548
Flags: W
HStem: 0 70<49 120> 0 57<204 281> 687 86<77 111> 702 57<188 260>
VStem: 112 80<295 695> 120 84<58 249> 440 63<229 513>
LayerCount: 2
Fore
SplineSet
440 354 m 0,0,1
 440 364 440 364 440 366 c 0,2,3
 440 373 440 373 440 374 c 0,4,5
 440 377 440 377 440 379 c 0,6,7
 440 393 l 0,8,9
 440 405 440 405 440 406 c 0,10,11
 440 411 440 411 440 416 c 0,12,13
 440 421 440 421 441 425 c 0,14,15
 441 498 441 498 369 593 c 0,16,17
 323 653 323 653 257 682 c 0,18,19
 210 702 210 702 188 702 c 1,20,21
 191 647 191 647 191 591 c 2,22,-1
 195 332 l 2,23,24
 196 306 196 306 196 294.5 c 128,-1,25
 196 283 196 283 197 250 c 128,-1,26
 198 217 198 217 201 137 c 2,27,-1
 204 57 l 1,28,29
 287 57 287 57 374 156 c 0,30,31
 440 230 440 230 440 354 c 0,0,1
120 116 m 1,32,-1
 113 356 l 2,33,34
 112 390 112 390 112 428 c 2,35,-1
 112 506 l 2,36,37
 112 660 112 660 110 696 c 0,38,39
 110 702 110 702 102 694.5 c 128,-1,40
 94 687 94 687 85 687 c 128,-1,41
 76 687 76 687 71.5 705.5 c 128,-1,42
 67 724 67 724 67 733 c 128,-1,43
 67 742 67 742 82 755.5 c 128,-1,44
 97 769 97 769 110.5 771 c 128,-1,45
 124 773 124 773 138 773 c 128,-1,46
 152 773 152 773 178 760 c 1,47,48
 248 760 248 760 292.5 742.5 c 128,-1,49
 337 725 337 725 374 699 c 128,-1,50
 411 673 411 673 439 629 c 0,51,52
 504 530 504 530 504 364 c 0,53,54
 504 360 504 360 504 356.5 c 128,-1,55
 504 353 504 353 504 351 c 128,-1,56
 504 349 504 349 504 347 c 128,-1,57
 504 345 504 345 504 343 c 128,-1,58
 504 341 504 341 504 339 c 128,-1,59
 504 337 504 337 504 335 c 0,60,61
 504 190 504 190 426 94 c 0,62,63
 370 24 370 24 279 6 c 0,64,65
 274 5 274 5 271 4 c 128,-1,66
 268 3 268 3 263.5 3 c 128,-1,67
 259 3 259 3 253 2 c 2,68,-1
 239 0 l 1,69,70
 154 0 154 0 69 0 c 0,71,72
 54 0 54 0 49.5 9 c 128,-1,73
 45 18 45 18 43 29 c 2,74,-1
 38 54 l 2,75,76
 36 69 36 69 48 70 c 0,77,78
 61 70 61 70 104 53 c 0,79,80
 117 48 117 48 118 54 c 0,81,82
 120 80 120 80 120 116 c 1,32,-1
EndSplineSet
Validated: 8388609
EndChar

StartChar: E
Encoding: 69 69 5
Width: 524
Flags: W
HStem: 0 84<45 130> 0 73<205 357> 530 240<322 417> 689 81<80 122>
VStem: 124 76<147 392 434 659> 335 90<107 221> 357 60<571 671>
LayerCount: 2
Fore
SplineSet
372 352 m 1,0,1
 281 384 281 384 215 393 c 0,2,3
 208 394 208 394 201 391 c 1,4,5
 201 90 201 90 208 74 c 1,6,7
 214 73 214 73 227 73 c 0,8,9
 250 73 250 73 298 80.5 c 128,-1,10
 346 88 346 88 362 98 c 128,-1,11
 378 108 378 108 377 123 c 0,12,13
 375 152 375 152 350 186 c 0,14,15
 335 208 335 208 335 217 c 0,16,17
 335 224 335 224 341 225 c 0,18,19
 346 226 346 226 349 226 c 0,20,21
 384 223 384 223 443 202 c 1,22,-1
 439 191 l 2,23,24
 425 155 425 155 425 131.5 c 128,-1,25
 425 108 425 108 427.5 90.5 c 128,-1,26
 430 73 430 73 450.5 44 c 128,-1,27
 471 15 471 15 485 0 c 1,28,-1
 65 0 l 2,29,30
 48 0 48 0 45 18 c 0,31,32
 44 26 44 26 43 41.5 c 128,-1,33
 42 57 42 57 38.5 70.5 c 128,-1,34
 35 84 35 84 50.5 84 c 128,-1,35
 66 84 66 84 115 68 c 0,36,37
 130 63 130 63 130 69 c 0,38,39
 130 220 130 220 127 287 c 0,40,41
 123 377 123 377 123 397 c 0,42,43
 123 400 123 400 123.5 402 c 128,-1,44
 124 404 124 404 124 440 c 2,45,-1
 124 506 l 2,46,47
 124 684 124 684 122 696 c 0,48,49
 121 702 121 702 113 696 c 0,50,51
 103 689 103 689 95 689 c 0,52,53
 79 689 79 689 74 718 c 0,54,55
 73 723 73 723 73 732.5 c 128,-1,56
 73 742 73 742 88.5 756 c 128,-1,57
 104 770 104 770 132 770 c 2,58,-1
 484 770 l 1,59,60
 455 743 455 743 436.5 710.5 c 128,-1,61
 418 678 418 678 418 664 c 0,62,63
 418 611 418 611 434 568 c 1,64,-1
 438 557 l 257,65,-1
 419 551 l 1,66,67
 367 531 367 531 338 530 c 0,68,69
 322 530 322 530 324 542.5 c 128,-1,70
 326 555 326 555 341.5 582.5 c 128,-1,71
 357 610 357 610 357 626 c 2,72,-1
 357 641 l 1,73,74
 355 665 355 665 324 676 c 0,75,76
 305 683 305 683 251 696 c 1,77,78
 200 650 200 650 200 557 c 2,79,-1
 200 509 l 1,80,81
 199 500 199 500 199 489.5 c 128,-1,82
 199 479 199 479 200 468 c 128,-1,83
 201 457 201 457 201 434 c 1,84,85
 207 436 207 436 213 438 c 0,86,87
 237 446 237 446 239.5 447.5 c 128,-1,88
 242 449 242 449 308.5 449 c 128,-1,89
 375 449 375 449 375 440.5 c 128,-1,90
 375 432 375 432 367 425 c 0,91,92
 356 415 356 415 354 399 c 0,93,94
 353 399 353 399 354 398 c 0,95,96
 360 372 360 372 372 352 c 1,0,1
EndSplineSet
Validated: 8388609
EndChar

StartChar: F
Encoding: 70 70 6
Width: 522
Flags: W
HStem: 0 84<45 130> 0 61<210 289> 389 58<205 331> 530 240<322 417> 688 82<81 122>
VStem: 124 78<138 382 424 654> 357 60<571 670>
LayerCount: 2
Fore
SplineSet
372 352 m 1,0,1
 271 389 271 389 239 389 c 2,2,3
 233 389 l 2,4,5
 219 389 219 389 213.5 381.5 c 128,-1,6
 208 374 208 374 203 382 c 1,7,8
 203 78 203 78 210 69.5 c 128,-1,9
 217 61 217 61 228 61 c 128,-1,10
 239 61 239 61 251 67 c 2,11,-1
 272 74 l 2,12,13
 281 77 281 77 282 73 c 0,14,15
 281 67 281 67 286 50.5 c 128,-1,16
 291 34 291 34 294 23 c 128,-1,17
 297 12 297 12 297 6 c 128,-1,18
 297 0 297 0 283 0 c 0,19,20
 173 0 173 0 65 0 c 0,21,22
 48 0 48 0 45 18 c 0,23,24
 44 26 44 26 43 41.5 c 128,-1,25
 42 57 42 57 38.5 70.5 c 128,-1,26
 35 84 35 84 50.5 84 c 128,-1,27
 66 84 66 84 115 68 c 0,28,29
 130 63 130 63 130 69 c 0,30,31
 130 152 130 152 127 249 c 128,-1,32
 124 346 124 346 123.5 354 c 128,-1,33
 123 362 123 362 123 380 c 2,34,-1
 123 397 l 1,35,36
 124 415 124 415 124 440 c 2,37,-1
 124 506 l 2,38,39
 124 684 124 684 122 696 c 0,40,41
 121 702 121 702 115 697 c 0,42,43
 104 688 104 688 94 688 c 0,44,45
 83 688 83 688 74 718 c 0,46,47
 72 725 72 725 72.5 733 c 128,-1,48
 73 741 73 741 88.5 755.5 c 128,-1,49
 104 770 104 770 126 770 c 2,50,-1
 483 770 l 1,51,52
 453 740 453 740 435.5 709.5 c 128,-1,53
 418 679 418 679 418 665 c 0,54,55
 418 611 418 611 434 568 c 1,56,-1
 438 557 l 257,57,-1
 419 551 l 1,58,59
 367 531 367 531 338 530 c 0,60,61
 322 530 322 530 324 542.5 c 128,-1,62
 326 555 326 555 341.5 582.5 c 128,-1,63
 357 610 357 610 357 626 c 2,64,-1
 357 641 l 1,65,66
 355 677 355 677 257 695 c 1,67,68
 202 650 202 650 202 555 c 2,69,-1
 202 506 l 1,70,71
 201 495 201 495 201 485 c 128,-1,72
 201 475 201 475 202 466 c 0,73,74
 203 448 203 448 203 424 c 1,75,-1
 218 430 l 2,76,77
 237 438 237 438 255 442.5 c 128,-1,78
 273 447 273 447 325 447 c 0,79,80
 375 447 375 447 375 439 c 0,81,82
 375 438 l 0,83,84
 374 429 374 429 367 424 c 0,85,86
 355 417 355 417 354 401 c 0,87,88
 355 383 355 383 372 352 c 1,0,1
EndSplineSet
Validated: 8388609
EndChar

StartChar: G
Encoding: 71 71 7
Width: 525
Flags: W
HStem: 2 68<205 321> 256 86<276 371> 699 71<209 309>
VStem: 40 80<232 533> 259 199<256 325> 375 83<132 256>
LayerCount: 2
Fore
SplineSet
45 328 m 1,0,-1
 40 443 l 1,1,2
 40 466 l 2,3,4
 40 523 40 523 58 584.5 c 128,-1,5
 76 646 76 646 98 680 c 0,6,7
 147 754 147 754 241 769 c 0,8,9
 249 770 249 770 267 770 c 0,10,11
 306 770 306 770 362 738 c 0,12,13
 389 722 389 722 412 700 c 0,14,15
 446 660 446 660 462 506 c 0,16,17
 468 454 468 454 466 455 c 2,18,-1
 447 455 l 1,19,20
 441 454 441 454 431.5 453.5 c 128,-1,21
 422 453 422 453 412 444.5 c 128,-1,22
 402 436 402 436 394.5 426 c 128,-1,23
 387 416 387 416 382.5 408 c 128,-1,24
 378 400 378 400 377 401 c 256,25,26
 376 402 376 402 368 407.5 c 128,-1,27
 360 413 360 413 344.5 424 c 128,-1,28
 329 435 329 435 329 436.5 c 128,-1,29
 329 438 329 438 337 447 c 0,30,31
 376 486 376 486 377 513 c 0,32,33
 377 517 377 517 373.5 529.5 c 128,-1,34
 370 542 370 542 361 575 c 0,35,36
 341 651 341 651 302 684 c 0,37,38
 285 699 285 699 257 699 c 128,-1,39
 229 699 229 699 208 676 c 0,40,41
 169 633 169 633 144.5 543.5 c 128,-1,42
 120 454 120 454 120 390 c 128,-1,43
 120 326 120 326 134 261 c 0,44,45
 177 70 177 70 249 70 c 0,46,47
 251 70 251 70 253 70 c 0,48,49
 322 70 322 70 352 132 c 0,50,51
 375 178 375 178 375 252 c 1,52,53
 369 256 369 256 360 256 c 0,54,55
 325 256 325 256 243 219 c 1,56,57
 259 250 259 250 259 274 c 128,-1,58
 259 298 259 298 251 311.5 c 128,-1,59
 243 325 243 325 240 333 c 0,60,61
 237 339 237 339 249 340.5 c 128,-1,62
 261 342 261 342 270 342 c 2,63,-1
 285 342 l 1,64,65
 330 340 330 340 345 334.5 c 128,-1,66
 360 329 360 329 372 326 c 1,67,68
 387 334 387 334 436 343 c 128,-1,69
 485 352 485 352 485 351 c 256,70,71
 485 350 485 350 480 344 c 0,72,73
 455 314 455 314 455 279 c 1,74,-1
 458 233 l 1,75,-1
 458 223 l 2,76,77
 458 174 458 174 441 126.5 c 128,-1,78
 424 79 424 79 404 56 c 0,79,80
 367 12 367 12 312 4 c 0,81,82
 291 2 291 2 262.5 2 c 128,-1,83
 234 2 234 2 193.5 13 c 128,-1,84
 153 24 153 24 125 48 c 0,85,86
 44 120 44 120 44 297 c 2,87,-1
 44 315 l 2,88,89
 44 322 44 322 45 328 c 1,0,-1
EndSplineSet
Validated: 8388641
EndChar

StartChar: w
Encoding: 119 119 8
Width: 974
Flags: W
HStem: 1 71<207 271 574 636> 1 44<347 398 713 765> 338 83<416 463> 347 83<45 77>
LayerCount: 2
Fore
SplineSet
200 373 m 2,0,-1
 206 373 l 2,1,2
 213 372 213 372 207 368 c 0,3,4
 186 353 186 353 184 343.5 c 128,-1,5
 182 334 182 334 182 324 c 0,6,7
 182 303 182 303 207 270.5 c 128,-1,8
 232 238 232 238 239 223 c 0,9,10
 285 125 285 125 297 104 c 1,11,-1
 463 326 l 1,12,-1
 448 345 l 1,13,14
 446 352 446 352 442 348 c 0,15,16
 430 334 430 334 422 338 c 0,17,18
 408 346 408 346 408 375 c 0,19,20
 408 378 408 378 408 382 c 0,21,22
 407 392 407 392 421 405 c 0,23,24
 438 422 438 422 456 422 c 0,25,26
 467 422 467 422 478 415 c 0,27,28
 501 400 501 400 515 380.5 c 128,-1,29
 529 361 529 361 530 360 c 2,30,-1
 583 279 l 2,31,32
 599 253 599 253 612 236 c 0,33,34
 655 156 655 156 672 122 c 1,35,-1
 848 404 l 1,36,-1
 934 403 l 1,37,-1
 713 54 l 1,38,39
 719 45 719 45 732.5 45 c 128,-1,40
 746 45 746 45 756 46.5 c 128,-1,41
 766 48 766 48 765 44 c 0,42,43
 767 25 767 25 775 15 c 0,44,45
 784 3 l 0,46,47
 784 1 784 1 733 1 c 2,48,-1
 588 1 l 2,49,50
 573 1 573 1 573 30 c 0,51,52
 573 41 573 41 570 56 c 256,53,54
 567 71 567 71 578.5 71.5 c 128,-1,55
 590 72 590 72 603 66.5 c 128,-1,56
 616 61 616 61 627.5 56 c 128,-1,57
 639 51 639 51 636 56 c 0,58,59
 610 126 610 126 576.5 177.5 c 128,-1,60
 543 229 543 229 506 273 c 1,61,-1
 347 54 l 1,62,63
 353 45 353 45 366.5 45 c 128,-1,64
 380 45 380 45 388.5 46.5 c 128,-1,65
 397 48 397 48 398 44 c 0,66,67
 400 25 400 25 408 15 c 0,68,69
 417 4 417 4 417 3 c 0,70,71
 417 1 417 1 367 1 c 2,72,-1
 223 1 l 2,73,74
 207 1 207 1 207 30 c 0,75,76
 207 41 207 41 203 56 c 256,77,78
 200 71 200 71 211 72 c 0,79,80
 228 72 228 72 250 61.5 c 128,-1,81
 272 51 272 51 271 56 c 0,82,83
 225 177 225 177 126 293 c 0,84,85
 100 324 100 324 77 354 c 1,86,87
 78 361 78 361 73 356.5 c 128,-1,88
 68 352 68 352 61 349 c 0,89,90
 57 347 57 347 55 347 c 0,91,92
 45 347 45 347 39 370 c 0,93,94
 36 387 36 387 39 396 c 0,95,96
 49 422 49 422 78 429 c 0,97,98
 82 430 82 430 86 430 c 0,99,100
 116 430 116 430 149 383 c 0,101,102
 160 369 160 369 163 370 c 0,103,104
 194 373 194 373 200 373 c 2,0,-1
EndSplineSet
Validated: 8388609
EndChar

StartChar: s
Encoding: 115 115 9
Width: 423
Flags: W
HStem: 2 47<123 290> 388 42<151 295>
VStem: 56 77<298 371> 313 64<74 150>
LayerCount: 2
Fore
SplineSet
353 317 m 1,0,1
 300 388 300 388 212 388 c 2,2,-1
 205 388 l 1,3,4
 176 385 176 385 156 372 c 128,-1,5
 136 359 136 359 133 342 c 1,6,-1
 133 337 l 2,7,8
 133 322 133 322 149 304.5 c 128,-1,9
 165 287 165 287 203.5 273.5 c 128,-1,10
 242 260 242 260 271 250 c 0,11,12
 377 215 377 215 377 135 c 0,13,14
 377 86 377 86 326 44 c 128,-1,15
 275 2 275 2 205 2 c 0,16,17
 109 2 109 2 62 42 c 0,18,19
 38 63 38 63 38 92 c 0,20,21
 38 112 38 112 48 143 c 1,22,23
 74 96 74 96 131 67 c 0,24,25
 161 52 161 52 205 49 c 1,26,27
 298 57 298 57 312 96 c 0,28,29
 314 100 314 100 313.5 108 c 128,-1,30
 313 116 313 116 302 135 c 128,-1,31
 291 154 291 154 266 171 c 0,32,33
 206 212 206 212 129 220 c 0,34,35
 89 224 89 224 69 262 c 0,36,37
 56 287 56 287 56 317 c 128,-1,38
 56 347 56 347 68 365 c 0,39,40
 102 414 102 414 198 427 c 0,41,42
 218 430 218 430 240 430 c 0,43,44
 303 430 303 430 348 400 c 0,45,46
 377 379 377 379 377.5 358.5 c 128,-1,47
 378 338 378 338 353 317 c 1,0,1
EndSplineSet
Validated: 33
EndChar

StartChar: H
Encoding: 72 72 10
Width: 750
Flags: W
HStem: 0 83<100 177 438 521> 196 68<128 175 272 519> 688 84<132 173 477 515>
VStem: 173 98<68 196 263 654> 516 98<66 191 267 653>
LayerCount: 2
Fore
SplineSet
519 267 m 1,0,1
 516 328 516 328 516 395 c 2,2,-1
 516 592 l 2,3,4
 516 639 516 639 514 693 c 0,5,6
 514 700 514 700 508.5 695.5 c 128,-1,7
 503 691 503 691 494.5 687.5 c 128,-1,8
 486 684 486 684 478 687.5 c 128,-1,9
 470 691 470 691 466 709 c 0,10,11
 465 715 465 715 465 720 c 0,12,13
 465 740 465 740 481 753 c 0,14,15
 502 770 502 770 523 770 c 128,-1,16
 544 770 544 770 558 763 c 128,-1,17
 572 756 572 756 586 744.5 c 128,-1,18
 600 733 600 733 611 722.5 c 128,-1,19
 622 712 622 712 630 709 c 0,20,21
 667 713 667 713 675.5 712.5 c 128,-1,22
 684 712 684 712 687 712 c 0,23,24
 697 711 697 711 689 707 c 0,25,26
 618 669 618 669 614 558 c 0,27,28
 613 538 613 538 613.5 515.5 c 128,-1,29
 614 493 614 493 614 458 c 128,-1,30
 614 423 614 423 614.5 347.5 c 128,-1,31
 615 272 615 272 616 172.5 c 128,-1,32
 617 73 617 73 622.5 65 c 128,-1,33
 628 57 628 57 639.5 58 c 128,-1,34
 651 59 651 59 663 63.5 c 128,-1,35
 675 68 675 68 684 71 c 128,-1,36
 693 74 693 74 693 70 c 0,37,38
 694 53 694 53 702 32.5 c 128,-1,39
 710 12 710 12 709.5 6 c 128,-1,40
 709 0 709 0 697 0 c 0,41,42
 578 0 578 0 459 0 c 0,43,44
 442 0 442 0 439 17 c 0,45,46
 437 25 437 25 436.5 37.5 c 128,-1,47
 436 50 436 50 433 66 c 0,48,49
 429 81 429 81 442.5 81 c 128,-1,50
 456 81 456 81 473 75.5 c 128,-1,51
 490 70 490 70 505.5 64.5 c 128,-1,52
 521 59 521 59 521 66 c 2,53,-1
 521 135 l 2,54,55
 521 166 521 166 520 191 c 1,56,-1
 272 196 l 1,57,58
 274 76 274 76 279 67.5 c 128,-1,59
 284 59 284 59 295.5 60 c 128,-1,60
 307 61 307 61 319 65.5 c 128,-1,61
 331 70 331 70 340 73 c 128,-1,62
 349 76 349 76 349 72 c 0,63,64
 350 60 350 60 354.5 46.5 c 128,-1,65
 359 33 359 33 362.5 22.5 c 128,-1,66
 366 12 366 12 366 6 c 128,-1,67
 366 0 366 0 355 0 c 0,68,69
 235 0 235 0 116 0 c 0,70,71
 105 0 105 0 100.5 4.5 c 128,-1,72
 96 9 96 9 94.5 18.5 c 128,-1,73
 93 28 93 28 92.5 40 c 128,-1,74
 92 52 92 52 89 68 c 0,75,76
 85 83 85 83 98.5 83 c 128,-1,77
 112 83 112 83 129 77.5 c 128,-1,78
 146 72 146 72 161.5 66.5 c 128,-1,79
 177 61 177 61 177 68 c 2,80,-1
 177 139 l 2,81,82
 177 170 177 170 176 196 c 1,83,-1
 112 196 l 1,84,85
 112 197 112 197 100 195 c 128,-1,86
 88 193 88 193 73.5 190.5 c 128,-1,87
 59 188 59 188 47.5 186 c 128,-1,88
 36 184 36 184 36 185 c 256,89,90
 36 186 36 186 49.5 198.5 c 128,-1,91
 63 211 63 211 80 226.5 c 128,-1,92
 97 242 97 242 111.5 254.5 c 128,-1,93
 126 267 126 267 128 269 c 1,94,95
 129 265 129 265 175 263 c 1,96,-1
 174 353 l 2,97,98
 173 389 173 389 173 426 c 2,99,-1
 173 594 l 2,100,101
 173 641 173 641 172 695 c 0,102,103
 172 702 172 702 166 698 c 0,104,105
 153 688 153 688 144 688 c 0,106,107
 129 688 129 688 122 717 c 0,108,109
 121 721 121 721 121 724 c 0,110,111
 121 741 121 741 140 756 c 0,112,113
 159 772 159 772 180.5 772 c 128,-1,114
 202 772 202 772 215.5 765 c 128,-1,115
 229 758 229 758 243 746.5 c 128,-1,116
 257 735 257 735 268 724.5 c 128,-1,117
 279 714 279 714 287 711 c 0,118,119
 324 715 324 715 332.5 714.5 c 128,-1,120
 341 714 341 714 343 714 c 0,121,122
 352 713 352 713 345 709 c 0,123,124
 275 670 275 670 271 560 c 1,125,-1
 271 502 l 1,126,127
 272 460 272 460 272 420 c 2,128,-1
 271 339 l 2,129,130
 271 300 271 300 272 263 c 1,131,132
 310 263 310 263 519 267 c 1,0,1
EndSplineSet
Validated: 33
EndChar

StartChar: I
Encoding: 73 73 11
Width: 357
Flags: W
HStem: 0 84<45 130> 689 83<82 122>
VStem: 123 98<72 655>
LayerCount: 2
Fore
SplineSet
123 383 m 2,0,-1
 123 440 l 1,1,-1
 123 526 l 2,2,3
 123 587 123 587 121 696 c 0,4,5
 121 703 121 703 116 699 c 0,6,7
 103 689 103 689 94 689 c 0,8,9
 79 689 79 689 73 718 c 0,10,11
 72 723 72 723 72 732.5 c 128,-1,12
 72 742 72 742 90 757 c 128,-1,13
 108 772 108 772 129.5 772 c 128,-1,14
 151 772 151 772 166 765 c 128,-1,15
 181 758 181 758 194 747 c 128,-1,16
 207 736 207 736 218 725.5 c 128,-1,17
 229 715 229 715 237 712 c 0,18,19
 274 716 274 716 283 715.5 c 128,-1,20
 292 715 292 715 294 715 c 0,21,22
 304 714 304 714 295 710 c 0,23,24
 225 671 225 671 222 561 c 1,25,-1
 222 503 l 1,26,27
 223 426 223 426 223 350.5 c 128,-1,28
 223 275 223 275 223.5 175 c 128,-1,29
 224 75 224 75 229 67.5 c 128,-1,30
 234 60 234 60 246 61 c 128,-1,31
 258 62 258 62 269.5 66.5 c 128,-1,32
 281 71 281 71 290.5 74 c 128,-1,33
 300 77 300 77 300 73 c 0,34,35
 301 61 301 61 306 47.5 c 128,-1,36
 311 34 311 34 314 24 c 0,37,38
 321 0 321 0 308 0 c 2,39,-1
 65 0 l 2,40,41
 48 0 48 0 45 19 c 0,42,43
 43 28 43 28 43 40.5 c 128,-1,44
 43 53 43 53 38 69 c 0,45,46
 35 84 35 84 49.5 84 c 128,-1,47
 64 84 64 84 81.5 78.5 c 128,-1,48
 99 73 99 73 114.5 67.5 c 128,-1,49
 130 62 130 62 130 69 c 0,50,51
 130 185 130 185 127 253 c 2,52,-1
 123 350 l 2,53,54
 123 368 123 368 123 383 c 2,0,-1
EndSplineSet
Validated: 33
EndChar

StartChar: J
Encoding: 74 74 12
Width: 567
Flags: W
HStem: -2 88<212 342> 686 81<333 369>
VStem: 66 100<132 283> 368 113<408 682> 386 87<196 665>
LayerCount: 2
Fore
SplineSet
526 705 m 0,0,1
 485 681 485 681 481 591 c 0,2,3
 475 471 475 471 473 459 c 1,4,-1
 473 453 l 1,5,6
 468 253 468 253 446 157 c 1,7,-1
 444 144 l 1,8,-1
 435 110 l 1,9,10
 406 23 406 23 357 7 c 0,11,12
 327 -2 327 -2 310 -2 c 2,13,-1
 290 -2 l 2,14,15
 224 -2 224 -2 165 27 c 0,16,17
 91 63 91 63 72 174 c 0,18,19
 66 205 66 205 66 220 c 2,20,-1
 66 239 l 1,21,-1
 69 283 l 1,22,23
 66 324 66 324 43 348 c 0,24,25
 37 355 37 355 37 355.5 c 128,-1,26
 37 356 37 356 48 355.5 c 128,-1,27
 59 355 59 355 75.5 354 c 128,-1,28
 92 353 92 353 111.5 351.5 c 128,-1,29
 131 350 131 350 148 348 c 128,-1,30
 165 346 165 346 176 344.5 c 128,-1,31
 187 343 187 343 188 342 c 128,-1,32
 189 341 189 341 183 321 c 0,33,34
 166 270 166 270 166 209 c 0,35,36
 166 133 166 133 223 100 c 0,37,38
 249 86 249 86 289 86 c 0,39,40
 300 86 300 86 310 86 c 0,41,42
 353 86 353 86 374 207 c 0,43,44
 386 278 386 278 386 357.5 c 128,-1,45
 386 437 386 437 384.5 452.5 c 128,-1,46
 383 468 383 468 383 473 c 128,-1,47
 383 478 383 478 377.5 536.5 c 128,-1,48
 372 595 372 595 368 691 c 0,49,50
 368 698 368 698 361.5 693.5 c 128,-1,51
 355 689 355 689 347 685.5 c 128,-1,52
 339 682 339 682 331 685.5 c 128,-1,53
 323 689 323 689 318 707 c 0,54,55
 317 713 317 713 317 718 c 0,56,57
 317 737 317 737 333 750 c 0,58,59
 354 767 354 767 382 767 c 0,60,61
 384 767 384 767 385 767 c 0,62,63
 409 767 409 767 432 742 c 0,64,65
 442 731 442 731 450.5 720.5 c 128,-1,66
 459 710 459 710 467 707 c 0,67,68
 499 710 499 710 514 710 c 128,-1,69
 529 710 529 710 528.5 708.5 c 128,-1,70
 528 707 528 707 526 705 c 0,0,1
EndSplineSet
Validated: 8388609
EndChar

StartChar: K
Encoding: 75 75 13
Width: 710
Flags: W
HStem: -148 3<671 672> 0 85<45 127> 692 82<82 122>
VStem: 123 98<70 191 370 657>
LayerCount: 2
Fore
SplineSet
610 -154 m 2,0,-1
 567 -154 l 2,1,2
 537 -154 537 -154 495 -126 c 0,3,4
 480 -116 480 -116 464 -96.5 c 128,-1,5
 448 -77 448 -77 430 -11 c 0,6,7
 430 1 430 1 409.5 96 c 128,-1,8
 389 191 389 191 380 235 c 128,-1,9
 371 279 371 279 362 318.5 c 128,-1,10
 353 358 353 358 348 387 c 1,11,-1
 222 191 l 1,12,13
 222 77 222 77 227.5 69 c 128,-1,14
 233 61 233 61 245 62 c 128,-1,15
 257 63 257 63 269 67.5 c 128,-1,16
 281 72 281 72 290 75 c 128,-1,17
 299 78 299 78 299 74 c 0,18,19
 300 62 300 62 304.5 48.5 c 128,-1,20
 309 35 309 35 312 24 c 128,-1,21
 315 13 315 13 315 6.5 c 128,-1,22
 315 0 315 0 307 0 c 2,23,-1
 66 0 l 2,24,25
 48 0 48 0 46 19 c 0,26,27
 44 28 44 28 43 41 c 128,-1,28
 42 54 42 54 39 70 c 0,29,30
 35 85 35 85 48 85 c 128,-1,31
 61 85 61 85 78.5 79.5 c 128,-1,32
 96 74 96 74 111.5 68.5 c 128,-1,33
 127 63 127 63 127 70 c 2,34,-1
 124 355 l 2,35,36
 123 391 123 391 123 429 c 2,37,-1
 123 596 l 2,38,39
 123 643 123 643 122 697 c 0,40,41
 122 704 122 704 116 699.5 c 128,-1,42
 110 695 110 695 101.5 691.5 c 128,-1,43
 93 688 93 688 85 691.5 c 128,-1,44
 77 695 77 695 73 713 c 0,45,46
 72 719 72 719 72 724 c 0,47,48
 72 744 72 744 88 757 c 0,49,50
 109 774 109 774 130 774 c 128,-1,51
 151 774 151 774 165 767 c 128,-1,52
 179 760 179 760 193 748.5 c 128,-1,53
 207 737 207 737 217.5 726.5 c 128,-1,54
 228 716 228 716 236 713 c 0,55,56
 273 717 273 717 282 716.5 c 128,-1,57
 291 716 291 716 293 716 c 0,58,59
 303 715 303 715 296 711 c 0,60,61
 225 673 225 673 221 562 c 0,62,63
 220 532 220 532 220 501 c 128,-1,64
 220 470 220 470 220.5 436 c 128,-1,65
 221 402 221 402 221 370 c 1,66,67
 233 386 233 386 251.5 412 c 128,-1,68
 270 438 270 438 332 524 c 128,-1,69
 394 610 394 610 506 770 c 1,70,-1
 596 770 l 1,71,-1
 413 486 l 1,72,-1
 427 462 l 1,73,74
 448 419 448 419 460.5 343 c 128,-1,75
 473 267 473 267 480.5 215.5 c 128,-1,76
 488 164 488 164 501.5 84 c 128,-1,77
 515 4 515 4 531.5 -27.5 c 128,-1,78
 548 -59 548 -59 571.5 -82 c 128,-1,79
 595 -105 595 -105 617 -119 c 128,-1,80
 639 -133 639 -133 655 -139 c 128,-1,81
 671 -145 671 -145 672 -145 c 258,82,-1
 658 -148 l 2,83,84
 632 -154 632 -154 610 -154 c 2,0,-1
EndSplineSet
Validated: 33
EndChar

StartChar: L
Encoding: 76 76 14
Width: 523
Flags: W
HStem: 0 226<345 425> 0 54<225 296> 689 83<82 122>
VStem: 123 99<72 657> 369 56<79 187>
LayerCount: 2
Fore
SplineSet
123 383 m 2,0,-1
 123 440 l 1,1,-1
 123 506 l 2,2,3
 123 587 123 587 121 696 c 0,4,5
 121 703 121 703 116 699 c 0,6,7
 103 689 103 689 94 689 c 0,8,9
 79 689 79 689 73 718 c 0,10,11
 72 723 72 723 72 732.5 c 128,-1,12
 72 742 72 742 90 757 c 128,-1,13
 108 772 108 772 129.5 772 c 128,-1,14
 151 772 151 772 166 765 c 128,-1,15
 181 758 181 758 194 747 c 128,-1,16
 207 736 207 736 218 725.5 c 128,-1,17
 229 715 229 715 237 712 c 0,18,19
 274 716 274 716 283 715.5 c 128,-1,20
 292 715 292 715 294 715 c 0,21,22
 304 714 304 714 295 710 c 0,23,24
 225 671 225 671 222 561 c 1,25,-1
 222 503 l 1,26,27
 223 426 223 426 223 349 c 2,28,-1
 223 168 l 2,29,30
 223 64 223 64 228 57 c 0,31,32
 228 56 228 56 230 54 c 0,33,34
 249 54 249 54 269 58 c 128,-1,35
 289 62 289 62 291.5 63.5 c 128,-1,36
 294 65 294 65 296 63 c 0,37,38
 341 73 341 73 350 80 c 0,39,40
 367 90 367 90 369 109 c 1,41,-1
 369 116 l 2,42,43
 369 143 369 143 354 172.5 c 128,-1,44
 339 202 339 202 336.5 212.5 c 128,-1,45
 334 223 334 223 342 225 c 0,46,47
 346 226 346 226 351 226 c 0,48,49
 377 226 377 226 443 202 c 1,50,-1
 439 191 l 2,51,52
 426 158 426 158 426 110 c 128,-1,53
 426 62 426 62 484 0 c 1,54,-1
 68 0 l 2,55,56
 51 0 51 0 47 19 c 0,57,58
 45 28 45 28 44 40.5 c 128,-1,59
 43 53 43 53 38 69 c 0,60,61
 35 84 35 84 49.5 84 c 128,-1,62
 64 84 64 84 81.5 78.5 c 128,-1,63
 99 73 99 73 114.5 67.5 c 128,-1,64
 130 62 130 62 130 69 c 0,65,66
 130 185 130 185 127 253 c 2,67,-1
 123 350 l 2,68,69
 123 368 123 368 123 383 c 2,0,-1
EndSplineSet
Validated: 8388641
EndChar

StartChar: M
Encoding: 77 77 15
Width: 697
Flags: W
HStem: 0 43<57 144> 761 5<324 353>
VStem: 38 13<65 73> 162 64<67 527> 523 63<215 531>
LayerCount: 2
Fore
SplineSet
436.5 593.5 m 128,-1,1
 446 645 446 645 450.5 669 c 128,-1,2
 455 693 455 693 455 706 c 128,-1,3
 455 719 455 719 442 761 c 1,4,5
 462 765 462 765 474 765 c 2,6,-1
 489 765 l 1,7,8
 538 762 538 762 557 729 c 1,9,10
 599 763 599 763 627 763 c 0,11,12
 640 763 640 763 649 755 c 1,13,14
 592 680 592 680 592 601 c 0,15,16
 589 509 589 509 586 449 c 128,-1,17
 583 389 583 389 582 351 c 128,-1,18
 581 313 581 313 578.5 254.5 c 128,-1,19
 576 196 576 196 576 160 c 1,20,21
 586 93 586 93 627 40 c 0,22,23
 642 21 642 21 652 11.5 c 128,-1,24
 662 2 662 2 657 0 c 1,25,-1
 562 1 l 1,26,-1
 468 1 l 1,27,28
 478 44 478 44 504 79 c 0,29,30
 523 105 523 105 524 422 c 0,31,32
 524 470 524 470 523 501 c 1,33,-1
 523 531 l 1,34,35
 521 531 521 531 507.5 473.5 c 128,-1,36
 494 416 494 416 483 370 c 128,-1,37
 472 324 472 324 462 275 c 0,38,39
 414 47 414 47 414 8 c 0,40,41
 414 3 414 3 415 1 c 1,42,-1
 340 1 l 1,43,44
 332 16 332 16 294.5 215.5 c 128,-1,45
 257 415 257 415 250 450 c 128,-1,46
 243 485 243 485 239 506.5 c 128,-1,47
 235 528 235 528 234 528 c 0,48,49
 230 524 230 524 228 402.5 c 128,-1,50
 226 281 226 281 226 253 c 2,51,-1
 226 195 l 1,52,53
 231 76 231 76 244 69 c 0,54,55
 275 53 275 53 279 0 c 1,56,57
 176 0 176 0 73 0 c 0,58,59
 63 0 63 0 54 9 c 0,60,61
 38 26 38 26 38 47.5 c 128,-1,62
 38 69 38 69 50 79 c 1,63,64
 45 72 45 72 65 57.5 c 128,-1,65
 85 43 85 43 102 43 c 0,66,67
 104 43 104 43 105 43 c 0,68,69
 134 47 134 47 144.5 64.5 c 128,-1,70
 155 82 155 82 157.5 127 c 128,-1,71
 160 172 160 172 161.5 209 c 128,-1,72
 163 246 163 246 164 275 c 128,-1,73
 165 304 165 304 165 331 c 128,-1,74
 165 358 165 358 163.5 393.5 c 128,-1,75
 162 429 162 429 160 476.5 c 128,-1,76
 158 524 158 524 155 577.5 c 128,-1,77
 152 631 152 631 142.5 661.5 c 128,-1,78
 133 692 133 692 123.5 714.5 c 128,-1,79
 114 737 114 737 106.5 750.5 c 128,-1,80
 99 764 99 764 99 765 c 256,81,82
 99 766 99 766 120.5 762 c 128,-1,83
 142 758 142 758 189 750 c 1,84,-1
 205 748 l 1,85,86
 215 770 215 770 252.5 769.5 c 128,-1,87
 290 769 290 769 316 765.5 c 128,-1,88
 342 762 342 762 354 761 c 1,89,90
 324 758 324 758 293 714 c 1,91,92
 295 706 295 706 301 667.5 c 128,-1,93
 307 629 307 629 316 575 c 128,-1,94
 325 521 325 521 334 459.5 c 128,-1,95
 343 398 343 398 357 308.5 c 128,-1,96
 371 219 371 219 371 209 c 1,97,98
 372 216 372 216 376 242 c 2,99,-1
 386 306 l 2,100,101
 398 382 398 382 412.5 462 c 128,-1,0
 427 542 427 542 436.5 593.5 c 128,-1,1
EndSplineSet
Validated: 33
EndChar

StartChar: N
Encoding: 78 78 16
Width: 625
Flags: W
HStem: 0 49<86 145> 690 77<97 178>
VStem: 38 48<49 101> 50 39<641 689> 172 48<107 482> 380 118<0 117> 422 71<178 664>
LayerCount: 2
Fore
SplineSet
318 1 m 1,0,-1
 216 0 l 1,1,2
 118 0 l 2,3,4
 77 0 77 0 64 9 c 0,5,6
 40 26 40 26 38 48 c 2,7,-1
 38 54 l 1,8,9
 38 74 38 74 54.5 95 c 128,-1,10
 71 116 71 116 92 116 c 0,11,12
 101 116 101 116 110 112 c 1,13,14
 86 89 86 89 85 73 c 0,15,16
 85 60 85 60 93 55.5 c 128,-1,17
 101 51 101 51 101 50 c 256,18,19
 101 49 101 49 111.5 49 c 128,-1,20
 122 49 122 49 134 59 c 0,21,22
 166 85 166 85 169 170 c 0,23,24
 172 209 172 209 172 264 c 0,25,26
 172 430 172 430 151 609 c 0,27,28
 146 652 146 652 131 671 c 128,-1,29
 116 690 116 690 102.5 690 c 128,-1,30
 89 690 89 690 89 675 c 128,-1,31
 89 660 89 660 108 640 c 1,32,33
 98 617 98 617 85 617 c 0,34,35
 75 617 75 617 65 628 c 128,-1,36
 55 639 55 639 50 652 c 1,37,38
 50 697 50 697 87 736 c 0,39,40
 117 767 117 767 170 767 c 128,-1,41
 223 767 223 767 247 733 c 256,42,43
 268 704 268 704 288.5 638 c 128,-1,44
 309 572 309 572 324 524 c 0,45,46
 366 382 366 382 410 199 c 1,47,-1
 416 178 l 2,48,49
 417 177 417 177 417.5 199 c 128,-1,50
 418 221 418 221 419 256 c 0,51,52
 422 360 422 360 422 415 c 2,53,-1
 422 534 l 2,54,55
 422 610 422 610 391 689 c 0,56,57
 380 719 380 719 380 731 c 0,58,59
 380 770 380 770 462 770 c 0,60,61
 468 770 468 770 474 770 c 128,-1,62
 480 770 480 770 474.5 765.5 c 128,-1,63
 469 761 469 761 461 756.5 c 128,-1,64
 453 752 453 752 446.5 747.5 c 128,-1,65
 440 743 440 743 445 743 c 0,66,67
 456 743 456 743 490 757.5 c 128,-1,68
 524 772 524 772 546.5 772 c 128,-1,69
 569 772 569 772 584 763 c 0,70,71
 592 758 592 758 578 754.5 c 128,-1,72
 564 751 564 751 544 738 c 0,73,74
 488 704 488 704 488 628 c 2,75,-1
 493 314 l 2,76,77
 494 256 494 256 494.5 199 c 128,-1,78
 495 142 495 142 496.5 97.5 c 128,-1,79
 498 53 498 53 498 27 c 2,80,-1
 498 0 l 1,81,-1
 380 0 l 1,82,83
 380 30 380 30 345 169 c 0,84,85
 243 572 243 572 221 573 c 0,86,87
 220 573 220 573 220 548 c 0,88,89
 220 445 220 445 226.5 283 c 128,-1,90
 233 121 233 121 240 107 c 0,91,92
 254 81 254 81 281 46 c 128,-1,93
 308 11 308 11 318 1 c 1,0,-1
EndSplineSet
Validated: 8388609
EndChar

StartChar: O
Encoding: 79 79 17
Width: 631
Flags: W
HStem: -1 86<258 391> 672 98<244 391>
VStem: 40 101<256 525> 489 100<231 547>
LayerCount: 2
Fore
SplineSet
327 770 m 0,0,1
 419 770 419 770 474 726 c 0,2,3
 589 634 589 634 589 421 c 0,4,5
 589 349 589 349 577 279 c 0,6,7
 553 144 553 144 490 71.5 c 128,-1,8
 427 -1 427 -1 331 -1 c 0,9,10
 215 1 215 1 130 88 c 128,-1,11
 45 175 45 175 41 321 c 0,12,13
 40 350 40 350 40 377 c 0,14,15
 40 543 40 543 87 635 c 0,16,17
 157 770 157 770 327 770 c 0,0,1
324 671 m 0,18,19
 318 672 318 672 312 672 c 0,20,21
 237 672 237 672 189 586 c 128,-1,22
 141 500 141 500 141 385 c 0,23,24
 141 334 141 334 156.5 276 c 128,-1,25
 172 218 172 218 197 177 c 0,26,27
 251 85 251 85 325 85 c 128,-1,28
 399 85 399 85 443 171 c 0,29,30
 482 247 482 247 489 364 c 1,31,-1
 489 381 l 1,32,33
 486 504 486 504 464 556.5 c 128,-1,34
 442 609 442 609 409 637 c 128,-1,35
 376 665 376 665 324 671 c 0,18,19
EndSplineSet
Validated: 1
EndChar

StartChar: P
Encoding: 80 80 18
Width: 593
Flags: W
HStem: 0 84<49 129> 190 74<220 372> 658 108<210 348> 689 83<80 121>
VStem: 122 88<265 659> 471 82<367 559>
LayerCount: 2
Fore
SplineSet
122 383 m 2,0,-1
 122 440 l 1,1,-1
 122 506 l 2,2,3
 122 587 122 587 120 696 c 0,4,5
 120 703 120 703 115 699 c 0,6,7
 102 689 102 689 93 689 c 0,8,9
 78 689 78 689 72 718 c 0,10,11
 71 723 71 723 71 732.5 c 128,-1,12
 71 742 71 742 86 755 c 0,13,14
 107 772 107 772 131 772 c 128,-1,15
 155 772 155 772 174 761 c 1,16,17
 185 762 185 762 244 766 c 0,18,19
 458 766 458 766 528 632 c 0,20,21
 553 585 553 585 553 509 c 128,-1,22
 553 433 553 433 534 377 c 0,23,24
 499 273 499 273 419 230 c 0,25,26
 351 193 351 193 276 190 c 1,27,-1
 254 190 l 2,28,29
 235 190 235 190 220 191 c 1,30,31
 225 73 225 73 229 66.5 c 128,-1,32
 233 60 233 60 245 61 c 128,-1,33
 257 62 257 62 268.5 66.5 c 128,-1,34
 280 71 280 71 289.5 74 c 128,-1,35
 299 77 299 77 299 73 c 0,36,37
 300 61 300 61 304.5 47.5 c 128,-1,38
 309 34 309 34 312 23.5 c 128,-1,39
 315 13 315 13 315 6.5 c 128,-1,40
 315 0 315 0 307 0 c 2,41,-1
 74 0 l 2,42,43
 56 0 56 0 50 19 c 0,44,45
 47 28 47 28 44.5 40.5 c 128,-1,46
 42 53 42 53 37 69 c 0,47,48
 34 84 34 84 48.5 84 c 128,-1,49
 63 84 63 84 80.5 78.5 c 128,-1,50
 98 73 98 73 113.5 67.5 c 128,-1,51
 129 62 129 62 129 69 c 0,52,53
 129 185 129 185 126 253 c 2,54,-1
 122 350 l 2,55,56
 122 368 122 368 122 383 c 2,0,-1
209 659 m 1,57,-1
 209 658 l 2,58,59
 209 616 209 616 210 567 c 128,-1,60
 211 518 211 518 213.5 414.5 c 128,-1,61
 216 311 216 311 218 263 c 1,62,63
 219 264 219 264 225.5 264 c 128,-1,64
 232 264 232 264 253 261 c 1,65,66
 368 268 368 268 418 317 c 128,-1,67
 468 366 468 366 471 455 c 0,68,69
 471 531 471 531 440 571 c 0,70,71
 389 640 389 640 272 655 c 0,72,73
 245 659 245 659 227.5 658.5 c 128,-1,74
 210 658 210 658 209 659 c 1,57,-1
EndSplineSet
Validated: 8388641
EndChar

StartChar: Q
Encoding: 81 81 19
Width: 736
Flags: W
HStem: -148 3<696 697> 0 86<257 390> 672 98<242 385>
VStem: 40 100<255 528> 488 99<251 547>
LayerCount: 2
Fore
SplineSet
588 417 m 2,0,1
 588 252 588 252 532 137 c 1,2,3
 535 71 535 71 539 36 c 0,4,5
 545 -29 545 -29 597 -82 c 0,6,7
 640 -125 640 -125 680 -139 c 0,8,9
 696 -145 696 -145 697 -145 c 258,10,-1
 684 -148 l 2,11,12
 657 -154 657 -154 645.5 -154.5 c 128,-1,13
 634 -155 634 -155 623 -154.5 c 128,-1,14
 612 -154 612 -154 593 -154 c 128,-1,15
 574 -154 574 -154 552 -144 c 0,16,17
 509 -125 509 -125 494 -102 c 0,18,19
 456 -52 456 -52 456 -11 c 0,20,21
 456 -9 456 -9 454.5 3.5 c 128,-1,22
 453 16 453 16 451 35 c 1,23,24
 400 0 400 0 339 0 c 0,25,26
 334 0 334 0 329 0 c 0,27,28
 215 0 215 0 130 87 c 128,-1,29
 45 174 45 174 41 321 c 0,30,31
 40 355 40 355 40 391.5 c 128,-1,32
 40 428 40 428 47.5 500.5 c 128,-1,33
 55 573 55 573 86 635 c 0,34,35
 154 770 154 770 329 770 c 0,36,37
 416 770 416 770 470.5 726.5 c 128,-1,38
 525 683 525 683 556.5 607.5 c 128,-1,39
 588 532 588 532 588 453 c 2,40,-1
 588 417 l 2,0,1
433 157 m 1,41,42
 472 241 472 241 487 365 c 0,43,44
 488 373 488 373 488 386 c 2,45,-1
 488 399 l 1,46,47
 483 513 483 513 459 567 c 0,48,49
 420 654 420 654 323 671 c 0,50,51
 317 672 317 672 310 672 c 0,52,53
 233 672 233 672 186.5 585 c 128,-1,54
 140 498 140 498 140 385 c 0,55,56
 140 329 140 329 156.5 273 c 128,-1,57
 173 217 173 217 196 177 c 0,58,59
 248 86 248 86 326 86 c 0,60,61
 389 86 389 86 433 157 c 1,41,42
EndSplineSet
Validated: 1
EndChar

StartChar: R
Encoding: 82 82 20
Width: 731
Flags: W
HStem: -148 3<691 692> 0 84<47 130> 190 71<221 365> 660 105<213 349> 689 83<81 122>
VStem: 123 93<72 191 263 464> 446 86<-33 191> 472 83<368 558>
LayerCount: 2
Fore
SplineSet
630 -154 m 2,0,-1
 587 -154 l 2,1,2
 557 -154 557 -154 515 -126 c 0,3,4
 500 -116 500 -116 484 -96.5 c 128,-1,5
 468 -77 468 -77 450 -11 c 0,6,7
 450 -8 450 -8 446 18 c 0,8,9
 438 75 438 75 419 229 c 1,10,11
 352 190 352 190 261 190 c 0,12,13
 237 190 237 190 221 191 c 1,14,15
 226 74 226 74 230 67 c 128,-1,16
 234 60 234 60 246 61 c 128,-1,17
 258 62 258 62 269.5 66.5 c 128,-1,18
 281 71 281 71 290.5 74 c 128,-1,19
 300 77 300 77 300 73 c 0,20,21
 301 61 301 61 306 47.5 c 128,-1,22
 311 34 311 34 314 24 c 0,23,24
 321 0 321 0 308 0 c 2,25,-1
 69 0 l 2,26,27
 52 0 52 0 48 19 c 0,28,29
 46 28 46 28 44.5 40.5 c 128,-1,30
 43 53 43 53 38 69 c 0,31,32
 35 84 35 84 49.5 84 c 128,-1,33
 64 84 64 84 81.5 78.5 c 128,-1,34
 99 73 99 73 114.5 67.5 c 128,-1,35
 130 62 130 62 130 69 c 0,36,37
 130 185 130 185 127 253 c 2,38,-1
 123 350 l 2,39,40
 122 368 122 368 123 383 c 2,41,-1
 123 440 l 1,42,-1
 123 506 l 2,43,44
 123 587 123 587 121 696 c 0,45,46
 121 703 121 703 116 699 c 0,47,48
 103 689 103 689 94 689 c 0,49,50
 79 689 79 689 73 718 c 0,51,52
 72 723 72 723 72 732.5 c 128,-1,53
 72 742 72 742 87 755 c 0,54,55
 108 772 108 772 132 772 c 128,-1,56
 156 772 156 772 175 761 c 1,57,58
 186 762 186 762 245 766 c 0,59,60
 459 766 459 766 529 632 c 0,61,62
 554 584 554 584 555 510 c 0,63,64
 553 386 553 386 504 309 c 1,65,66
 519 275 519 275 523 229.5 c 128,-1,67
 527 184 527 184 528 137.5 c 128,-1,68
 529 91 529 91 532.5 47.5 c 128,-1,69
 536 4 536 4 552 -27.5 c 128,-1,70
 568 -59 568 -59 591.5 -82 c 128,-1,71
 615 -105 615 -105 637 -119 c 128,-1,72
 659 -133 659 -133 675 -139 c 128,-1,73
 691 -145 691 -145 692 -145 c 258,74,-1
 678 -148 l 2,75,76
 652 -154 652 -154 630 -154 c 2,0,-1
211 638 m 2,77,-1
 213 542 l 2,78,79
 213 524 213 524 214 503 c 1,80,-1
 214 466 l 1,81,82
 216 414 216 414 217 362 c 128,-1,83
 218 310 218 310 219 263 c 1,84,85
 220 264 220 264 227 264 c 128,-1,86
 234 264 234 264 256 261 c 1,87,88
 306 261 306 261 350 276 c 0,89,90
 468 317 468 317 472 455 c 0,91,92
 472 530 472 530 442 571 c 0,93,94
 391 641 391 641 275 657 c 0,95,96
 248 661 248 661 231 660.5 c 128,-1,97
 214 660 214 660 213 662 c 0,98,99
 211 662 211 662 211 638 c 2,77,-1
EndSplineSet
Validated: 8388641
EndChar

StartChar: S
Encoding: 83 83 21
Width: 526
Flags: W
HStem: 0 70<211 326> 571 25<453 465> 706 63<208 321>
VStem: 78 71<537 645> 81 91<119 196> 387 76<137 269>
LayerCount: 2
Fore
SplineSet
37 234.5 m 128,-1,1
 37 241 37 241 73 251.5 c 128,-1,2
 109 262 109 262 125.5 262 c 128,-1,3
 142 262 142 262 143.5 255 c 128,-1,4
 145 248 145 248 148.5 227 c 128,-1,5
 152 206 152 206 162 179.5 c 128,-1,6
 172 153 172 153 172 145 c 128,-1,7
 172 137 172 137 192 113 c 0,8,9
 227 70 227 70 251 70 c 2,10,-1
 264 70 l 1,11,12
 298 71 298 71 325 90 c 0,13,14
 372 124 372 124 386 197 c 0,15,16
 387 202 387 202 387 208 c 0,17,18
 387 273 387 273 273 358 c 0,19,20
 249 375 249 375 212 402.5 c 128,-1,21
 175 430 175 430 148 456 c 0,22,23
 77 525 77 525 78 600 c 0,24,25
 78 720 78 720 182 756 c 0,26,27
 220 769 220 769 269 769 c 0,28,29
 276 769 276 769 284 769 c 0,30,31
 382 769 382 769 427 698 c 0,32,33
 453 658 453 658 453 596 c 1,34,35
 454.5 596 l 0,36,37
 456 596 456 596 487 571 c 1,38,39
 470 571 470 571 444.5 561 c 128,-1,40
 419 551 419 551 404 551 c 128,-1,41
 389 551 389 551 375 560.5 c 128,-1,42
 361 570 361 570 358 607 c 0,43,44
 353 662 353 662 310 694 c 0,45,46
 295 705 295 705 271 706 c 0,47,48
 270 706 270 706 269 705 c 0,49,50
 225 705 225 705 188 666 c 0,51,52
 148 625 148 625 148 585 c 0,53,54
 148 530 148 530 283 454 c 0,55,56
 309 440 309 440 344 416 c 0,57,58
 412 372 412 372 432 325 c 0,59,60
 463 252 463 252 463 167 c 0,61,62
 463 59 463 59 388 18 c 0,63,64
 354 0 354 0 309 0 c 128,-1,65
 264 0 264 0 238.5 2.5 c 128,-1,66
 213 5 213 5 182 15 c 0,67,68
 106 41 106 41 79 96 c 0,69,70
 73 108 73 108 73 118.5 c 128,-1,71
 73 129 73 129 75 138 c 0,72,73
 81 166 81 166 81 181 c 0,74,75
 81 191 81 191 79 197 c 1,76,0
 37 228 37 228 37 234.5 c 128,-1,1
EndSplineSet
Validated: 8912929
EndChar

StartChar: T
Encoding: 84 84 22
Width: 696
Flags: W
HStem: 0 82<217 298> 750 20G<36 657>
VStem: 98 56<577 670> 294 99<79 655>
LayerCount: 2
Fore
SplineSet
391 536 m 1,0,-1
 393 349 l 1,1,2
 393 75 393 75 399.5 66.5 c 128,-1,3
 406 58 406 58 417.5 59 c 128,-1,4
 429 60 429 60 441 64.5 c 128,-1,5
 453 69 453 69 462 72 c 128,-1,6
 471 75 471 75 471 71 c 0,7,8
 472 58 472 58 480 35.5 c 128,-1,9
 488 13 488 13 488 6.5 c 128,-1,10
 488 0 488 0 478 0 c 0,11,12
 358 0 358 0 239 0 c 0,13,14
 223 0 223 0 218 18 c 0,15,16
 216 27 216 27 215 39 c 128,-1,17
 214 51 214 51 210 67 c 0,18,19
 207 82 207 82 220 82 c 128,-1,20
 233 82 233 82 250.5 76.5 c 128,-1,21
 268 71 268 71 283.5 65.5 c 128,-1,22
 299 60 299 60 299 67 c 2,23,-1
 295 352 l 2,24,25
 294 388 294 388 294 425 c 2,26,-1
 294 593 l 2,27,28
 294 640 294 640 293 694 c 1,29,30
 274 691 274 691 254 688 c 128,-1,31
 234 685 234 685 209 680.5 c 128,-1,32
 184 676 184 676 170 667.5 c 128,-1,33
 156 659 156 659 155 644.5 c 128,-1,34
 154 630 154 630 160 613.5 c 128,-1,35
 166 597 166 597 174.5 580.5 c 128,-1,36
 183 564 183 564 186 551.5 c 128,-1,37
 189 539 189 539 173 540 c 0,38,39
 148 542 148 542 97 559 c 2,40,-1
 79 565 l 257,41,-1
 83 575 l 1,42,43
 98 617 98 617 98 658 c 128,-1,44
 98 699 98 699 36 770 c 1,45,-1
 657 770 l 1,46,47
 601 695 601 695 601 651 c 2,48,-1
 601 636 l 1,49,50
 604 602 604 602 616 569 c 2,51,-1
 621 558 l 257,52,-1
 601 551 l 1,53,54
 547 533 547 533 521 532 c 0,55,56
 504 531 504 531 507 544 c 0,57,58
 510 558 510 558 525.5 584.5 c 128,-1,59
 541 611 541 611 541 635 c 0,60,61
 540 637 540 637 539 647 c 128,-1,62
 538 657 538 657 523 667 c 128,-1,63
 508 677 508 677 445 692 c 1,64,65
 392 647 392 647 392 553 c 0,66,67
 392 544 392 544 391 536 c 1,0,-1
EndSplineSet
Validated: 1
EndChar

StartChar: U
Encoding: 85 85 23
Width: 614
Flags: W
HStem: 0 82<218 364> 698 4<234 235> 750 20G<426 537>
VStem: 44 109<165 572> 446 94<252 696>
LayerCount: 2
Fore
SplineSet
288 82 m 2,0,1
 303 82 l 2,2,3
 305 82 305 82 307 82 c 0,4,5
 379 82 379 82 419 195 c 0,6,7
 447 274 447 274 446 394 c 2,8,-1
 446 432 l 1,9,10
 445 507 445 507 434.5 611 c 128,-1,11
 424 715 424 715 422 743.5 c 128,-1,12
 420 772 420 772 426 770 c 1,13,-1
 534 770 l 2,14,15
 541 770 541 770 541 514 c 128,-1,16
 541 258 541 258 530 104 c 1,17,-1
 530 99 l 1,18,19
 573 58 573 58 573 47 c 2,20,-1
 573 43 l 2,21,22
 573 33 573 33 561 0 c 1,23,-1
 434 0 l 2,24,25
 421 0 421 0 421 15.5 c 128,-1,26
 421 31 421 31 426 48 c 1,27,28
 398 33 398 33 357 16.5 c 128,-1,29
 316 0 316 0 248 0 c 128,-1,30
 180 0 180 0 135.5 39.5 c 128,-1,31
 91 79 91 79 68.5 142.5 c 128,-1,32
 46 206 46 206 45 258.5 c 128,-1,33
 44 311 44 311 44 332 c 2,34,-1
 44 386 l 2,35,36
 44 413 44 413 52.5 493 c 128,-1,37
 61 573 61 573 87 683 c 1,38,39
 69 672 69 672 61 673 c 0,40,41
 48 675 48 675 40 710 c 0,42,43
 39 715 39 715 39 726 c 128,-1,44
 39 737 39 737 56.5 757 c 128,-1,45
 74 777 74 777 93.5 777 c 128,-1,46
 113 777 113 777 126 767 c 0,47,48
 148 750 148 750 164.5 728 c 128,-1,49
 181 706 181 706 189 701 c 1,50,51
 209 702 209 702 233 702 c 128,-1,52
 257 702 257 702 241 698 c 0,53,54
 210 691 210 691 180 634 c 1,55,56
 179 604 179 604 166 494.5 c 128,-1,57
 153 385 153 385 153 342 c 2,58,-1
 153 294 l 2,59,60
 153 169 153 169 208 113 c 0,61,62
 238 82 238 82 288 82 c 2,0,1
EndSplineSet
Validated: 33
EndChar

StartChar: V
Encoding: 86 86 24
Width: 657
Flags: W
HStem: 1 68<244 271> 729 42<559 607>
VStem: 271 139<69 179> 347 63<185 250> 430 125<643 719>
LayerCount: 2
Fore
SplineSet
411 101 m 2,0,1
 411 59 411 59 440 59 c 0,2,3
 456 59 456 59 475 75 c 1,4,5
 487 53 487 53 487 29.5 c 128,-1,6
 487 6 487 6 463 0 c 1,7,8
 392 19 392 19 344 19 c 2,9,-1
 335 19 l 1,10,11
 318 18 318 18 295.5 9.5 c 128,-1,12
 273 1 273 1 261.5 1 c 128,-1,13
 250 1 250 1 244 3 c 0,14,15
 220 12 220 12 218 48 c 0,16,17
 217 64 217 64 225 68 c 0,18,19
 234 71 234 71 247.5 69.5 c 128,-1,20
 261 68 261 68 263 68 c 0,21,22
 271 66 271 66 271 73 c 0,23,24
 271 74 271 74 271 86 c 128,-1,25
 271 98 271 98 251.5 176 c 128,-1,26
 232 254 232 254 224.5 280 c 128,-1,27
 217 306 217 306 214 320 c 0,28,29
 184 455 184 455 180.5 473.5 c 128,-1,30
 177 492 177 492 171 522 c 2,31,-1
 165 553 l 2,32,33
 155 599 155 599 152.5 624 c 128,-1,34
 150 649 150 649 147 673 c 128,-1,35
 144 697 144 697 128 721 c 0,36,37
 121 731 121 731 100 721.5 c 128,-1,38
 79 712 79 712 69.5 703.5 c 128,-1,39
 60 695 60 695 55 699 c 128,-1,40
 50 703 50 703 45.5 715.5 c 128,-1,41
 41 728 41 728 39 737 c 128,-1,42
 37 746 37 746 36 750 c 0,43,44
 34 756 34 756 48 763.5 c 128,-1,45
 62 771 62 771 92 771 c 2,46,-1
 328 771 l 1,47,48
 271 735 271 735 252 717 c 0,49,50
 247 712 247 712 247 705 c 0,51,52
 247 621 247 621 313 334 c 0,53,54
 325 278 325 278 335 237 c 128,-1,55
 345 196 345 196 347 185 c 1,56,57
 347 189 347 189 400 432 c 0,58,59
 428 562 428 562 430 643 c 1,60,-1
 430 650 l 2,61,62
 430 687 430 687 424 700.5 c 128,-1,63
 418 714 418 714 405.5 725 c 128,-1,64
 393 736 393 736 382.5 746.5 c 128,-1,65
 372 757 372 757 368 764 c 128,-1,66
 364 771 364 771 377 771 c 2,67,-1
 607 771 l 1,68,-1
 613 761 l 1,69,70
 618 750 618 750 618 741.5 c 128,-1,71
 618 733 618 733 607 729 c 128,-1,72
 596 725 596 725 587 722 c 0,73,74
 555 713 555 713 555 698 c 1,75,76
 421 263 421 263 411 113 c 1,77,-1
 411 101 l 2,0,1
EndSplineSet
Validated: 8388609
EndChar

StartChar: W
Encoding: 87 87 25
Width: 685
Flags: W
HStem: 0 22G<191 229 402 445 578 580> 725 44<544 627>
VStem: 110 61<237 372> 121 51<424 672> 267 94<563 657> 268 51<441 560> 457 78<240 428> 464 59<242 699> 634 12<694 702>
LayerCount: 2
Fore
SplineSet
110 319 m 2,0,-1
 121 608 l 1,1,2
 110 684 110 684 69 733 c 0,3,4
 50 757 50 757 41.5 764 c 128,-1,5
 33 771 33 771 38 769 c 1,6,-1
 133 770 l 1,7,-1
 226 770 l 1,8,9
 210 713 210 713 191 690 c 128,-1,10
 172 667 172 667 172 451 c 0,11,12
 172 404 172 404 171 381 c 1,13,-1
 171 302 l 2,14,15
 171 271 171 271 172 254 c 2,16,-1
 173 237 l 1,17,18
 174 238 174 238 190 272 c 0,19,20
 231 358 231 358 259 500 c 0,21,22
 268 546 268 546 268 574 c 2,23,-1
 268 631 l 2,24,25
 268 658 268 658 267 658 c 0,26,27
 267 659 267 659 291.5 659 c 128,-1,28
 316 659 316 659 347 657 c 1,29,-1
 361 657 l 1,30,31
 369 512 369 512 410 376 c 128,-1,32
 451 240 451 240 457 240 c 1,33,-1
 458 259 l 2,34,35
 464 376 464 376 464 430 c 2,36,-1
 464 547 l 2,37,38
 464 631 464 631 458 663.5 c 128,-1,39
 452 696 452 696 445 699 c 0,40,41
 415 713 415 713 411 761 c 1,42,-1
 409 770 l 1,43,44
 444 769 444 769 478 769 c 2,45,-1
 609 769 l 2,46,47
 619 769 619 769 629 760 c 0,48,49
 646 743 646 743 646 721 c 128,-1,50
 646 699 646 699 634 689 c 1,51,52
 636 697 636 697 618 711 c 128,-1,53
 600 725 600 725 585 725 c 0,54,55
 555 725 555 725 543 706 c 128,-1,56
 531 687 531 687 529 641 c 0,57,58
 523 523 523 523 523 477 c 2,59,-1
 523 436 l 2,60,61
 523 385 523 385 527.5 314.5 c 128,-1,62
 532 244 532 244 535 188 c 128,-1,63
 538 132 538 132 543 114 c 0,64,65
 571 13 571 13 585 0 c 1,66,67
 576 3 576 3 544 9 c 128,-1,68
 512 15 512 15 498 18 c 2,69,-1
 483 20 l 1,70,71
 467 0 467 0 423 0 c 6,72,-1
 409 0 l 2,73,74
 396 0 396 0 375 3 c 128,-1,75
 354 6 354 6 343 7 c 1,76,77
 355 10 355 10 371 26 c 128,-1,78
 387 42 387 42 395 54 c 1,79,80
 386 123 386 123 364 264 c 0,81,82
 340 416 340 416 330.5 485.5 c 128,-1,83
 321 555 321 555 319 560 c 1,84,85
 319 540 319 540 274 285 c 2,86,-1
 256 178 l 2,87,88
 244 107 244 107 241 91 c 128,-1,89
 238 75 238 75 238 57 c 128,-1,90
 238 39 238 39 249 2 c 1,91,92
 236 0 236 0 223 0 c 0,93,94
 160 0 160 0 140 39 c 1,95,96
 100 5 100 5 68 0 c 0,97,98
 55 -2 55 -2 46 4 c 1,99,100
 102 90 102 90 104 167 c 0,101,102
 110 317 110 317 110 319 c 2,0,-1
EndSplineSet
Validated: 8388609
EndChar

StartChar: X
Encoding: 88 88 26
Width: 660
Flags: W
HStem: 0 82<531 594> 750 20G<462 584>
VStem: 390 204<9 82>
LayerCount: 2
Fore
SplineSet
516 0 m 2,0,-1
 390 1 l 2,1,2
 381 1 381 1 381 4 c 128,-1,3
 381 7 381 7 383 16 c 0,4,5
 390 30 390 30 390 49 c 128,-1,6
 390 68 390 68 388 82.5 c 128,-1,7
 386 97 386 97 389.5 103 c 128,-1,8
 393 109 393 109 400 107.5 c 128,-1,9
 407 106 407 106 415.5 100.5 c 128,-1,10
 424 95 424 95 431 90 c 128,-1,11
 438 85 438 85 442 83 c 128,-1,12
 446 81 446 81 444 86 c 0,13,14
 395 187 395 187 319 309 c 1,15,-1
 142 0 l 1,16,-1
 39 1 l 1,17,-1
 263 397 l 1,18,19
 210 480 210 480 162.5 551.5 c 128,-1,20
 115 623 115 623 85 673 c 0,21,22
 84 680 84 680 81.5 678.5 c 128,-1,23
 79 677 79 677 75 672 c 0,24,25
 62 658 62 658 55 660 c 0,26,27
 43 664 43 664 38 708 c 0,28,29
 37 713 37 713 37 718 c 0,30,31
 37 754 37 754 80 762 c 0,32,33
 93 765 93 765 107 768.5 c 128,-1,34
 121 772 121 772 129.5 765 c 128,-1,35
 138 758 138 758 143 747 c 128,-1,36
 148 736 148 736 152.5 725 c 128,-1,37
 157 714 157 714 164 709 c 1,38,39
 193 713 193 713 206.5 713 c 128,-1,40
 220 713 220 713 220 710 c 128,-1,41
 220 707 220 707 216.5 703.5 c 128,-1,42
 213 700 213 700 213 690 c 0,43,44
 213 655 213 655 261 551 c 0,45,46
 279 512 279 512 303 469 c 1,47,-1
 474 770 l 1,48,-1
 584 770 l 1,49,-1
 356 374 l 1,50,51
 403 294 403 294 472 188 c 128,-1,52
 541 82 541 82 555 82 c 0,53,54
 556 82 556 82 565.5 83.5 c 128,-1,55
 575 85 575 85 583.5 86 c 128,-1,56
 592 87 592 87 594 86 c 128,-1,57
 596 85 596 85 595 81.5 c 128,-1,58
 594 78 594 78 594.5 63.5 c 128,-1,59
 595 49 595 49 601 35.5 c 128,-1,60
 607 22 607 22 613 14 c 128,-1,61
 619 6 619 6 621.5 3 c 128,-1,62
 624 0 624 0 616 0 c 0,63,64
 566 0 566 0 516 0 c 2,0,-1
EndSplineSet
Validated: 1
EndChar

StartChar: Y
Encoding: 89 89 27
Width: 668
Flags: W
HStem: 0 57<182 296> 750 20G<96 347 392 630>
VStem: 291 110<59 348>
LayerCount: 2
Fore
SplineSet
296 59 m 0,0,1
 296 129 296 129 291 288 c 1,2,-1
 291 289 l 1,3,4
 261 369 261 369 240.5 425.5 c 128,-1,5
 220 482 220 482 195 552 c 128,-1,6
 170 622 170 622 128 716 c 0,7,8
 125 726 125 726 101.5 715.5 c 128,-1,9
 78 705 78 705 69.5 697.5 c 128,-1,10
 61 690 61 690 54.5 695 c 128,-1,11
 48 700 48 700 44.5 711 c 128,-1,12
 41 722 41 722 39 732.5 c 128,-1,13
 37 743 37 743 36 745 c 0,14,15
 33 749 33 749 56.5 759.5 c 128,-1,16
 80 770 80 770 112 770 c 2,17,-1
 347 770 l 1,18,19
 345 769 345 769 333.5 763.5 c 128,-1,20
 322 758 322 758 293.5 740.5 c 128,-1,21
 265 723 265 723 256 715 c 128,-1,22
 247 707 247 707 247 697.5 c 128,-1,23
 247 688 247 688 249.5 671.5 c 128,-1,24
 252 655 252 655 262 621.5 c 128,-1,25
 272 588 272 588 286 550 c 128,-1,26
 300 512 300 512 313 478 c 128,-1,27
 326 444 326 444 336 419 c 128,-1,28
 346 394 346 394 347 387 c 1,29,30
 348 397 348 397 357 418.5 c 128,-1,31
 366 440 366 440 388.5 496 c 128,-1,32
 411 552 411 552 420.5 590.5 c 128,-1,33
 430 629 430 629 430 656 c 128,-1,34
 430 683 430 683 424 696 c 128,-1,35
 418 709 418 709 409 720.5 c 128,-1,36
 400 732 400 732 393 743.5 c 128,-1,37
 386 755 386 755 385.5 762.5 c 128,-1,38
 385 770 385 770 400 770 c 2,39,-1
 630 770 l 1,40,41
 628 763 628 763 623.5 753.5 c 128,-1,42
 619 744 619 744 618 736 c 0,43,44
 617 724 617 724 588 715 c 128,-1,45
 559 706 559 706 555 693 c 0,46,47
 470 487 470 487 445.5 419 c 128,-1,48
 421 351 421 351 412.5 327 c 128,-1,49
 404 303 404 303 401 290 c 0,50,51
 402 255 402 255 403 216.5 c 128,-1,52
 404 178 404 178 406.5 122.5 c 128,-1,53
 409 67 409 67 416 59 c 128,-1,54
 423 51 423 51 439 52 c 128,-1,55
 455 53 455 53 472 57 c 128,-1,56
 489 61 489 61 501.5 64.5 c 128,-1,57
 514 68 514 68 515 63 c 0,58,59
 516 51 516 51 522.5 39.5 c 128,-1,60
 529 28 529 28 533 19.5 c 128,-1,61
 537 11 537 11 537 5.5 c 128,-1,62
 537 0 537 0 522 0 c 0,63,64
 365 0 365 0 207 0 c 0,65,66
 184 0 184 0 182 14 c 0,67,68
 181 21 181 21 181 32.5 c 128,-1,69
 181 44 181 44 176.5 57 c 128,-1,70
 172 70 172 70 180 73 c 128,-1,71
 188 76 188 76 201 74 c 0,72,73
 234 69 234 69 258 63 c 128,-1,74
 282 57 282 57 289 57 c 128,-1,75
 296 57 296 57 296 59 c 0,0,1
EndSplineSet
Validated: 1
EndChar

StartChar: Z
Encoding: 90 90 28
Width: 576
Flags: W
HStem: 0 59<154 386> 340 57<122 191 315 399> 696 74<197 353>
VStem: 127 52<581 677> 409 63<82 200>
LayerCount: 2
Fore
SplineSet
177 59 m 2,0,-1
 210 58 l 2,1,2
 220 58 220 58 236.5 59.5 c 128,-1,3
 253 61 253 61 279 64 c 0,4,5
 375 73 375 73 386 82 c 0,6,7
 409 96 409 96 409 117.5 c 128,-1,8
 409 139 409 139 403 157.5 c 128,-1,9
 397 176 397 176 387.5 197 c 128,-1,10
 378 218 378 218 375 229.5 c 128,-1,11
 372 241 372 241 380 243 c 128,-1,12
 388 245 388 245 401 243.5 c 128,-1,13
 414 242 414 242 430 237 c 0,14,15
 462 228 462 228 480 222 c 2,16,-1
 490 218 l 257,17,-1
 486 207 l 2,18,19
 471 165 471 165 471 135.5 c 128,-1,20
 471 106 471 106 474.5 91.5 c 128,-1,21
 478 77 478 77 500 46.5 c 128,-1,22
 522 16 522 16 538 0 c 1,23,-1
 36 0 l 1,24,-1
 191 340 l 1,25,-1
 118 339 l 1,26,-1
 122 395 l 1,27,-1
 218 397 l 1,28,-1
 353 692 l 1,29,30
 343 696 343 696 320 696 c 128,-1,31
 297 696 297 696 255 692 c 128,-1,32
 213 688 213 688 196 677.5 c 128,-1,33
 179 667 179 667 179 649 c 0,34,35
 179 620 179 620 200 583.5 c 128,-1,36
 221 547 221 547 221 538 c 128,-1,37
 221 529 221 529 207 529 c 0,38,39
 188 529 188 529 126 549 c 1,40,-1
 108 556 l 257,41,-1
 112 567 l 2,42,43
 127 609 127 609 127 634 c 128,-1,44
 127 659 127 659 122 679 c 0,45,46
 115 707 115 707 60 770 c 1,47,-1
 490 770 l 1,48,-1
 315 400 l 1,49,-1
 416 403 l 1,50,-1
 421 345 l 1,51,-1
 288 342 l 1,52,-1
 154 61 l 1,53,54
 164 59 164 59 177 59 c 2,0,-1
EndSplineSet
Validated: 1
EndChar

StartChar: underscore
Encoding: 95 95 29
Width: 902
Flags: W
HStem: -231 56<62 837>
LayerCount: 2
Fore
SplineSet
843 -229 m 1,0,-1
 58 -231 l 1,1,-1
 62 -175 l 1,2,-1
 837 -171 l 1,3,-1
 843 -229 l 1,0,-1
EndSplineSet
Validated: 1
EndChar

StartChar: grave
Encoding: 96 96 30
Width: 311
Flags: W
HStem: 551 129<64 191>
VStem: 197 69<477 567>
LayerCount: 2
Fore
SplineSet
116 680 m 1,0,-1
 135 681 l 1,1,2
 162 681 162 681 199 664 c 1,3,4
 240 640 240 640 249 610 c 0,5,6
 266 537 266 537 266 518 c 2,7,-1
 266 496 l 1,8,9
 264 470 264 470 246 469 c 0,10,11
 240 469 240 469 221 475.5 c 128,-1,12
 202 482 202 482 197 493 c 128,-1,13
 192 504 192 504 195 515.5 c 128,-1,14
 198 527 198 527 202 540 c 128,-1,15
 206 553 206 553 192 567 c 1,16,17
 139 551 139 551 129 551 c 2,18,-1
 117 551 l 2,19,20
 66 551 66 551 45 605 c 0,21,22
 43 611 43 611 43 622.5 c 128,-1,23
 43 634 43 634 62.5 657 c 128,-1,24
 82 680 82 680 116 680 c 1,0,-1
EndSplineSet
Validated: 1
EndChar

StartChar: a
Encoding: 97 97 31
Width: 513
Flags: W
HStem: 4 57<160 277> 372 58<169 308>
VStem: 38 100<95 153> 332 69<186 199 251 306 306 348> 342 61<99 186> 346 118<4 60>
LayerCount: 2
Fore
SplineSet
331 257 m 2,0,-1
 332 283 l 2,1,2
 332 291 332 291 328 308 c 0,3,4
 314 372 314 372 251 372 c 128,-1,5
 188 372 188 372 89 304 c 0,6,7
 79 297 79 297 79 298 c 256,8,9
 79 299 79 299 71 305 c 128,-1,10
 63 311 63 311 58 321 c 0,11,12
 53 330 53 330 52 338 c 0,13,14
 52 387 52 387 236 425 c 0,15,16
 263 430 263 430 279.5 430 c 128,-1,17
 296 430 296 430 316.5 426.5 c 128,-1,18
 337 423 337 423 356 409.5 c 128,-1,19
 375 396 375 396 387.5 371.5 c 128,-1,20
 400 347 400 347 400 317 c 2,21,-1
 400 306 l 1,22,23
 399 306 399 306 399.5 290 c 128,-1,24
 400 274 400 274 400 250 c 2,25,-1
 403 82 l 1,26,27
 407 79 407 79 418 73 c 0,28,29
 467 47 467 47 470 33 c 1,30,-1
 464 4 l 1,31,-1
 358 4 l 2,32,33
 342 4 342 4 346 25.5 c 128,-1,34
 350 47 350 47 359 63 c 1,35,36
 240 4 240 4 186.5 4 c 128,-1,37
 133 4 133 4 97.5 31 c 128,-1,38
 62 58 62 58 43 94 c 0,39,40
 38 104 38 104 38 116 c 128,-1,41
 38 128 38 128 50.5 145 c 128,-1,42
 63 162 63 162 95 179.5 c 128,-1,43
 127 197 127 197 167.5 211 c 128,-1,44
 208 225 208 225 244.5 235 c 128,-1,45
 281 245 281 245 305.5 250.5 c 128,-1,46
 330 256 330 256 331 257 c 2,0,-1
342 117 m 258,47,-1
 337 186 l 1,48,-1
 336 199 l 257,49,50
 297 199 297 199 252 187.5 c 128,-1,51
 207 176 207 176 185 166 c 0,52,53
 138 145 138 145 138 116 c 0,54,55
 138 113 138 113 139 109 c 1,56,57
 165 64 165 64 216 61 c 1,58,-1
 229 61 l 2,59,60
 254 61 254 61 287 80 c 0,61,62
 342 112 342 112 342 117 c 258,47,-1
EndSplineSet
Validated: 8388609
EndChar

StartChar: b
Encoding: 98 98 32
Width: 590
Flags: W
HStem: 0 52<157 403> 1 77<42 96> 1 70<156 267> 328 66<163 402> 749 20G<92 106>
VStem: 94 59<71 317 368 648> 468 77<114 268>
LayerCount: 2
Fore
SplineSet
221 0 m 1,0,-1
 173 1 l 1,1,2
 111 1 111 1 49 1 c 0,3,4
 42 1 42 1 40.5 4.5 c 128,-1,5
 39 8 39 8 39.5 16 c 128,-1,6
 40 24 40 24 41 35 c 128,-1,7
 42 46 42 46 39 61 c 0,8,9
 37 76 37 76 46 77.5 c 128,-1,10
 55 79 55 79 66 75.5 c 128,-1,11
 77 72 77 72 87 68.5 c 128,-1,12
 97 65 97 65 97 71 c 2,13,-1
 94 356 l 1,14,-1
 94 597 l 2,15,16
 94 644 94 644 93 698 c 0,17,18
 92 705 92 705 87 700.5 c 128,-1,19
 82 696 82 696 76 692.5 c 128,-1,20
 70 689 70 689 64 692.5 c 128,-1,21
 58 696 58 696 55.5 710.5 c 128,-1,22
 53 725 53 725 53 735 c 128,-1,23
 53 745 53 745 65 754 c 0,24,25
 85 770 85 770 99 770 c 128,-1,26
 113 770 113 770 126.5 762 c 128,-1,27
 140 754 140 754 156.5 735.5 c 128,-1,28
 173 717 173 717 180 714 c 0,29,30
 208 717 208 717 214 717 c 128,-1,31
 220 717 220 717 222 717 c 0,32,33
 229 716 229 716 224 712 c 0,34,35
 185 684 185 684 167.5 625.5 c 128,-1,36
 150 567 150 567 150 497 c 1,37,-1
 152 368 l 1,38,39
 225 390 225 390 298 393 c 1,40,-1
 318 393 l 2,41,42
 475 393 475 393 527 288 c 0,43,44
 545 249 545 249 545 189 c 2,45,-1
 545 172 l 1,46,47
 539 0 539 0 238 0 c 2,48,-1
 221 0 l 1,0,-1
283 328 m 0,49,50
 202 328 202 328 153 311 c 1,51,-1
 153 301 l 1,52,53
 155 276 155 276 155 220 c 2,54,-1
 156 119 l 2,55,56
 156 71 156 71 158 71 c 256,57,58
 162 71 162 71 198 61.5 c 128,-1,59
 234 52 234 52 268 52 c 128,-1,60
 302 52 302 52 328.5 52.5 c 128,-1,61
 355 53 355 53 389 67 c 0,62,63
 468 99 468 99 468 197 c 0,64,65
 466 280 466 280 391 311 c 0,66,67
 358 325 358 325 329.5 326.5 c 128,-1,68
 301 328 301 328 283 328 c 0,49,50
EndSplineSet
Validated: 8388609
EndChar

StartChar: c
Encoding: 99 99 33
Width: 463
Flags: W
HStem: 1 52<173 269> 383 48<175 387>
VStem: 39 65<133 312>
LayerCount: 2
Fore
SplineSet
275 383 m 0,0,1
 107 383 107 383 103 219 c 0,2,3
 103 208 103 208 104 197 c 1,4,5
 131 70 131 70 220 55 c 0,6,7
 231 53 231 53 243 53 c 2,8,-1
 269 55 l 1,9,10
 325 64 325 64 392 108 c 1,11,12
 406 108 406 108 409.5 99.5 c 128,-1,13
 413 91 413 91 419 82.5 c 128,-1,14
 425 74 425 74 412 60.5 c 128,-1,15
 399 47 399 47 374 35 c 0,16,17
 313 5 313 5 245 1 c 0,18,19
 238 1 238 1 230 1 c 2,20,-1
 173 6 l 1,21,22
 97 23 97 23 60 100 c 0,23,24
 41 139 41 139 39 201 c 256,25,26
 39 207 39 207 39 213 c 0,27,28
 39 318 39 318 104 375 c 0,29,30
 171 431 171 431 280 431 c 2,31,-1
 290 431 l 2,32,33
 300 431 300 431 335 428 c 0,34,35
 409 420 409 420 410 402 c 0,36,37
 411 394 411 394 402 380 c 128,-1,38
 393 366 393 366 387 366 c 0,39,40
 386 366 386 366 352 374.5 c 128,-1,41
 318 383 318 383 275 383 c 0,0,1
EndSplineSet
Validated: 1
EndChar

StartChar: d
Encoding: 100 100 34
Width: 600
Flags: W
HStem: 0 62<314 436> 0 50<182 436 502 557> 1 1<368 368> 326 70<244 425>
VStem: 38 80<101 238> 426 72<66 326 395 669> 436 61<66 324>
LayerCount: 2
Fore
SplineSet
496 514 m 2,0,-1
 498 249 l 2,1,2
 498 74 498 74 502.5 66 c 128,-1,3
 507 58 507 58 515.5 55 c 128,-1,4
 524 52 524 52 533 50.5 c 128,-1,5
 542 49 542 49 548.5 48 c 128,-1,6
 555 47 555 47 555 43 c 2,7,-1
 559 9 l 1,8,9
 559 0 559 0 548 0 c 0,10,11
 505 0 505 0 462 0 c 2,12,-1
 378 1 l 1,13,-1
 377 1 l 1,14,-1
 371 0 l 1,15,-1
 371 1 l 1,16,-1
 369 1 l 2,17,18
 368 1 l 2,19,-1
 352 0 l 1,20,21
 242 0 242 0 182 19.5 c 128,-1,22
 122 39 122 39 87 68 c 0,23,24
 38 108 38 108 38 182 c 128,-1,25
 38 256 38 256 97 306 c 0,26,27
 193 387 193 387 425 395 c 1,28,29
 425 520 425 520 423 694 c 0,30,31
 423 701 423 701 418 696.5 c 128,-1,32
 413 692 413 692 406.5 688.5 c 128,-1,33
 400 685 400 685 394 688.5 c 128,-1,34
 388 692 388 692 385.5 706.5 c 128,-1,35
 383 721 383 721 383 731 c 128,-1,36
 383 741 383 741 396 754 c 128,-1,37
 409 767 409 767 424.5 769.5 c 128,-1,38
 440 772 440 772 453 764.5 c 128,-1,39
 466 757 466 757 476 745.5 c 128,-1,40
 486 734 486 734 495 723.5 c 128,-1,41
 504 713 504 713 510 710 c 0,42,43
 538 713 538 713 544 713 c 128,-1,44
 550 713 550 713 552 713 c 0,45,46
 558 712 558 712 552 708 c 0,47,48
 501 671 501 671 497 559 c 0,49,50
 496 544 496 544 496 514 c 2,0,-1
436 92 m 2,51,52
 436 147 436 147 426 300 c 1,53,-1
 426 326 l 1,54,-1
 401 326 l 2,55,56
 210 326 210 326 138 238 c 0,57,58
 118 213 118 213 118 168.5 c 128,-1,59
 118 124 118 124 141 100 c 0,60,61
 189 50 189 50 313 50 c 0,62,63
 350 50 350 50 392.5 56 c 128,-1,64
 435 62 435 62 436 62 c 1,65,-1
 436 92 l 2,51,52
EndSplineSet
Validated: 8388609
EndChar

StartChar: e
Encoding: 101 101 35
Width: 505
Flags: W
HStem: 3 48<170 300> 50 65<347 451> 222 43<116 325> 388 41<189 352>
VStem: 39 71<129 222>
LayerCount: 2
Fore
SplineSet
240 429 m 2,0,-1
 300 430 l 2,1,2
 313 430 313 430 344.5 420.5 c 128,-1,3
 376 411 376 411 394.5 397.5 c 128,-1,4
 413 384 413 384 424 365 c 128,-1,5
 435 346 435 346 440 327.5 c 128,-1,6
 445 309 445 309 447 292 c 2,7,-1
 450 263 l 1,8,9
 450 223 450 223 114 222 c 1,10,11
 110 204 110 204 110 195 c 0,12,13
 110 121 110 121 148 89 c 128,-1,14
 186 57 186 57 234 51 c 1,15,16
 267 51 267 51 317 83 c 128,-1,17
 367 115 367 115 402 115 c 2,18,-1
 419 115 l 1,19,20
 437 113 437 113 448 103.5 c 128,-1,21
 459 94 459 94 462 83 c 128,-1,22
 465 72 465 72 462 61 c 128,-1,23
 459 50 459 50 452 46 c 1,24,25
 444 50 444 50 433 50 c 128,-1,26
 422 50 422 50 401 44.5 c 128,-1,27
 380 39 380 39 326 21 c 128,-1,28
 272 3 272 3 230 3 c 2,29,-1
 223 3 l 1,30,-1
 167 10 l 1,31,32
 136 18 136 18 102 56.5 c 128,-1,33
 68 95 68 95 49 166 c 0,34,35
 39 205 39 205 39 238 c 2,36,-1
 39 248 l 2,37,38
 39 266 39 266 46 289 c 0,39,40
 77 384 77 384 177 416 c 0,41,42
 219 429 219 429 240 429 c 2,0,-1
388 309 m 0,43,44
 383 355 383 355 336 377 c 0,45,46
 311 388 311 388 266 388 c 128,-1,47
 221 388 221 388 188 368 c 0,48,49
 135 334 135 334 121 293 c 2,50,-1
 116 278 l 1,51,-1
 131 276 l 1,52,53
 216 265 216 265 285.5 265 c 128,-1,54
 355 265 355 265 385 278 c 1,55,56
 389 287 389 287 388.5 296 c 128,-1,57
 388 305 388 305 388 309 c 0,43,44
EndSplineSet
Validated: 8388609
EndChar

StartChar: f
Encoding: 102 102 36
Width: 490
Flags: W
HStem: 0 71<83 141> 0 44<220 276> 338 56<40 137 212 291> 772 40<273 371>
VStem: 139 72<55 340 399 697> 360 86<709 739> 374 77<716 771>
LayerCount: 2
Fore
SplineSet
210 502 m 1,0,-1
 211 399 l 1,1,-1
 314 403 l 1,2,-1
 319 345 l 1,3,-1
 212 342 l 1,4,5
 213 287 213 287 213.5 236 c 128,-1,6
 214 185 214 185 215 123 c 128,-1,7
 216 61 216 61 219 54 c 0,8,9
 224 45 224 45 241 44 c 0,10,11
 245 44 245 44 249 45 c 0,12,13
 272 48 272 48 271 43 c 0,14,15
 272 31 272 31 276 22.5 c 128,-1,16
 280 14 280 14 282 9 c 128,-1,17
 284 4 284 4 284 2 c 128,-1,18
 284 0 284 0 235 0 c 2,19,-1
 96 0 l 2,20,21
 85 0 85 0 83 9 c 128,-1,22
 81 18 81 18 80.5 29 c 128,-1,23
 80 40 80 40 77 55 c 256,24,25
 74 70 74 70 83.5 70.5 c 128,-1,26
 93 71 93 71 106 65 c 128,-1,27
 119 59 119 59 130 54 c 128,-1,28
 141 49 141 49 141 55 c 2,29,-1
 138 340 l 1,30,-1
 38 338 l 1,31,-1
 40 394 l 1,32,-1
 137 397 l 1,33,-1
 139 598 l 2,34,35
 140 681 140 681 178 741 c 0,36,37
 222 812 222 812 317 812 c 0,38,39
 446 812 446 812 451 756 c 0,40,41
 452 745 452 745 449.5 734.5 c 128,-1,42
 447 724 447 724 446 716 c 1,43,44
 434 710 434 710 407 705.5 c 128,-1,45
 380 701 380 701 360 698 c 1,46,47
 373 725 373 725 374 739 c 0,48,49
 374 772 374 772 340 772 c 0,50,51
 320 772 320 772 287 761 c 1,52,53
 230 734 230 734 216 624 c 0,54,55
 212 596 212 596 210 575 c 0,56,57
 211 557 211 557 211 538.5 c 128,-1,58
 211 520 211 520 210 502 c 1,0,-1
EndSplineSet
Validated: 8388609
EndChar

StartChar: g
Encoding: 103 103 37
Width: 581
Flags: W
HStem: -305 27<220 370> -20 26<264 375> 98 26<233 347> 324 92<468 519> 377 25<229 350>
VStem: 37 77<-208 -89> 74 87<178 322> 414 80<175 322> 475 66<-212 -85>
LayerCount: 2
Fore
SplineSet
260 98 m 0,0,1
 235 98 235 98 192 112 c 1,2,3
 175 108 175 108 161.5 99.5 c 128,-1,4
 148 91 148 91 152.5 76.5 c 128,-1,5
 157 62 157 62 180 50.5 c 128,-1,6
 203 39 203 39 230 29 c 128,-1,7
 257 19 257 19 280 12.5 c 128,-1,8
 303 6 303 6 306 5 c 1,9,-1
 309 5 l 1,10,11
 443 1 443 1 504 -62 c 0,12,13
 541 -101 541 -101 541.5 -155.5 c 128,-1,14
 542 -210 542 -210 495.5 -245.5 c 128,-1,15
 449 -281 449 -281 375 -293 c 128,-1,16
 301 -305 301 -305 278.5 -305 c 128,-1,17
 256 -305 256 -305 236 -303 c 0,18,19
 182 -298 182 -298 126 -272 c 128,-1,20
 70 -246 70 -246 46 -201 c 0,21,22
 37 -182 37 -182 37 -160 c 2,23,-1
 37 -147 l 1,24,25
 42 -52 42 -52 156 -14 c 1,26,27
 109 21 109 21 87.5 44 c 128,-1,28
 66 67 66 67 66 70 c 0,29,30
 66 92 66 92 125 116 c 0,31,32
 141 122 141 122 156 126 c 1,33,34
 120 144 120 144 97 173.5 c 128,-1,35
 74 203 74 203 74 241 c 2,36,-1
 74 252 l 1,37,38
 80 332 80 332 149 371 c 0,39,40
 204 402 204 402 300 401 c 0,41,42
 371 399 371 399 420 372 c 1,43,44
 458 416 458 416 479 416 c 128,-1,45
 500 416 500 416 514 400 c 128,-1,46
 528 384 528 384 528 375 c 128,-1,47
 528 366 528 366 526 355 c 0,48,49
 521 324 521 324 490 324 c 0,50,51
 489 324 l 1,52,53
 478 324 478 324 467 329 c 1,54,55
 494 294 494 294 494 257 c 0,56,57
 494 252 494 252 494 247 c 0,58,59
 494 164 494 164 409 126 c 0,60,61
 346 98 346 98 260 98 c 0,0,1
295 -20 m 1,62,-1
 288 -20 l 2,63,64
 218 -20 218 -20 166 -59.5 c 128,-1,65
 114 -99 114 -99 114 -151 c 256,66,67
 114 -199 114 -199 170.5 -239 c 128,-1,68
 227 -279 227 -279 294 -279 c 128,-1,69
 361 -279 361 -279 418 -241.5 c 128,-1,70
 475 -204 475 -204 475 -160 c 0,71,72
 475 -69 475 -69 382 -35 c 0,73,74
 347 -22 347 -22 295 -20 c 1,62,-1
288 377 m 1,75,-1
 283 377 l 2,76,77
 228 377 228 377 194.5 338.5 c 128,-1,78
 161 300 161 300 161 247 c 256,79,80
 161 197 161 197 198.5 160.5 c 128,-1,81
 236 124 236 124 290 124 c 2,82,-1
 295 124 l 1,83,84
 345 126 345 126 379.5 157 c 128,-1,85
 414 188 414 188 414 225 c 0,86,87
 414 297 414 297 398 323 c 128,-1,88
 382 349 382 349 357 362 c 128,-1,89
 332 375 332 375 288 377 c 1,75,-1
404 353 m 1,90,91
 400 353 400 353 400.5 351.5 c 128,-1,92
 401 350 401 350 404 353 c 1,90,91
EndSplineSet
Validated: 8388641
EndChar

StartChar: h
Encoding: 104 104 38
Width: 605
Flags: W
HStem: 0 80<43 105> 0 56<180 237> 359 45<263 406>
VStem: 103 73<65 296 360 665> 439 76<72 319>
LayerCount: 2
Fore
SplineSet
433 0 m 2,0,1
 420 0 420 0 420 14.5 c 128,-1,2
 420 29 420 29 434 53 c 1,3,-1
 439 133 l 1,4,-1
 439 207 l 1,5,6
 434 293 434 293 408 335 c 0,7,8
 394 358 394 358 369 359 c 1,9,-1
 362 359 l 2,10,11
 303 359 303 359 215 316 c 2,12,-1
 176 296 l 1,13,-1
 176 209 l 2,14,15
 176 71 176 71 180 63.5 c 128,-1,16
 184 56 184 56 192.5 54.5 c 128,-1,17
 201 53 201 53 210.5 54 c 128,-1,18
 220 55 220 55 226.5 55.5 c 128,-1,19
 233 56 233 56 233 52 c 0,20,21
 234 35 234 35 241.5 21 c 128,-1,22
 249 7 249 7 249.5 3.5 c 128,-1,23
 250 0 250 0 244 0 c 2,24,-1
 60 0 l 2,25,26
 46 0 46 0 44 17 c 128,-1,27
 42 34 42 34 38.5 57 c 128,-1,28
 35 80 35 80 45.5 80 c 128,-1,29
 56 80 56 80 68.5 74.5 c 128,-1,30
 81 69 81 69 93 63.5 c 128,-1,31
 105 58 105 58 105 65 c 2,32,-1
 105 160 l 1,33,-1
 103 350 l 1,34,-1
 103 591 l 2,35,36
 103 638 103 638 102 692 c 0,37,38
 101 699 101 699 96.5 694.5 c 128,-1,39
 92 690 92 690 85.5 686.5 c 128,-1,40
 79 683 79 683 73 686.5 c 128,-1,41
 67 690 67 690 64.5 705 c 128,-1,42
 62 720 62 720 62 730 c 128,-1,43
 62 740 62 740 74 752.5 c 128,-1,44
 86 765 86 765 102.5 767.5 c 128,-1,45
 119 770 119 770 131.5 762.5 c 128,-1,46
 144 755 144 755 154.5 743.5 c 128,-1,47
 165 732 165 732 173.5 721.5 c 128,-1,48
 182 711 182 711 188 708 c 0,49,50
 216 711 216 711 222 711 c 128,-1,51
 228 711 228 711 232 710.5 c 128,-1,52
 236 710 236 710 231 706 c 0,53,54
 180 669 180 669 176 557 c 0,55,56
 175 527 175 527 174.5 495.5 c 128,-1,57
 174 464 174 464 175 429 c 128,-1,58
 176 394 176 394 176 360 c 1,59,60
 289 404 289 404 374 404 c 0,61,62
 379 404 379 404 384 404 c 0,63,64
 457 400 457 400 490 326 c 0,65,66
 515 270 515 270 514.5 197 c 128,-1,67
 514 124 514 124 506 71 c 1,68,69
 562 39 562 39 565 27 c 1,70,-1
 557 0 l 1,71,-1
 433 0 l 2,0,1
EndSplineSet
Validated: 8388641
EndChar

StartChar: i
Encoding: 105 105 39
Width: 276
Flags: W
HStem: 2 54<171 226> 4 66<44 93> 368 98<77 180> 385 81<58 92>
VStem: 91 73<67 317 322 368>
LayerCount: 2
Fore
SplineSet
177 368 m 0,0,1
 163 368 163 368 164 325 c 0,2,3
 165 248 165 248 165 200 c 0,4,5
 165 75 165 75 171 67 c 0,6,7
 175 56 175 56 192 56 c 0,8,9
 196 56 196 56 209 57.5 c 128,-1,10
 222 59 222 59 222 54 c 0,11,12
 224 36 224 36 230 22 c 128,-1,13
 236 8 236 8 236 5 c 128,-1,14
 236 2 236 2 228 2 c 2,15,-1
 99 2 l 2,16,17
 54 2 54 2 51 4 c 128,-1,18
 48 6 48 6 46.5 11.5 c 128,-1,19
 45 17 45 17 43.5 27 c 128,-1,20
 42 37 42 37 39 52 c 256,21,22
 36 67 36 67 44 69.5 c 128,-1,23
 52 72 52 72 63 69.5 c 128,-1,24
 74 67 74 67 83.5 63.5 c 128,-1,25
 93 60 93 60 93 67 c 2,26,-1
 92 202 l 1,27,-1
 92 226 l 1,28,29
 91 271 91 271 91 291 c 2,30,-1
 91 317 l 1,31,-1
 91 322 l 2,32,33
 92 320 92 320 92 324 c 2,34,-1
 92 340 l 2,35,36
 92 354 92 354 91 390 c 0,37,38
 91 397 91 397 86.5 392.5 c 128,-1,39
 82 388 82 388 75.5 384.5 c 128,-1,40
 69 381 69 381 62.5 384.5 c 128,-1,41
 56 388 56 388 53.5 402 c 128,-1,42
 51 416 51 416 51 426.5 c 128,-1,43
 51 437 51 437 64 450 c 0,44,45
 81 466 81 466 95 466 c 0,46,47
 120 466 120 466 155.5 430.5 c 128,-1,48
 191 395 191 395 191 380 c 128,-1,49
 191 365 191 365 187 366.5 c 128,-1,50
 183 368 183 368 177 368 c 0,0,1
111 647 m 1,51,-1
 183 593 l 1,52,-1
 113 544 l 1,53,-1
 52 593 l 1,54,-1
 111 647 l 1,51,-1
EndSplineSet
Validated: 8388641
EndChar

StartChar: j
Encoding: 106 106 40
Width: 419
Flags: W
HStem: -313 49<117 235> 370 83<249 279>
VStem: 43 86<-232 -202> 274 73<-55 363> 282 70<-202 65>
LayerCount: 2
Fore
SplineSet
273 316 m 1,0,-1
 272 377 l 2,1,2
 272 385 272 385 267 380 c 0,3,4
 257 370 257 370 249 370 c 0,5,6
 239 370 239 370 234 388 c 0,7,8
 230 402 230 402 230.5 412.5 c 128,-1,9
 231 423 231 423 244 436.5 c 128,-1,10
 257 450 257 450 273 452 c 0,11,12
 276 452 276 452 279 453 c 0,13,14
 309 453 309 453 343 406 c 0,15,16
 354 394 354 394 359.5 392.5 c 128,-1,17
 365 391 365 391 375 390.5 c 128,-1,18
 385 390 385 390 376.5 380.5 c 128,-1,19
 368 371 368 371 362 369 c 128,-1,20
 356 367 356 367 351 363 c 128,-1,21
 346 359 346 359 346 311 c 0,22,23
 348 157 348 157 348 54 c 2,24,-1
 349 -60 l 257,25,-1
 351 -77 l 2,26,27
 352 -95 352 -95 352 -111 c 0,28,29
 352 -216 352 -216 309 -262 c 0,30,31
 290 -282 290 -282 257.5 -297.5 c 128,-1,32
 225 -313 225 -313 187 -313 c 2,33,-1
 149 -313 l 2,34,35
 117 -313 117 -313 87 -303.5 c 128,-1,36
 57 -294 57 -294 45.5 -277.5 c 128,-1,37
 34 -261 34 -261 36 -255.5 c 128,-1,38
 38 -250 38 -250 39.5 -236.5 c 128,-1,39
 41 -223 41 -223 43 -216 c 0,40,41
 46 -202 46 -202 89 -199 c 1,42,-1
 102 -199 l 2,43,44
 114 -199 114 -199 128 -200 c 1,45,46
 115 -219 115 -219 115 -232 c 0,47,48
 115 -261 115 -261 169 -264 c 0,49,50
 183 -264 183 -264 202 -262 c 1,51,52
 282 -239 282 -239 282 -55 c 0,53,54
 282 -54 282 -54 277 69 c 1,55,-1
 276 73 l 1,56,-1
 275 85 l 1,57,-1
 275 122 l 2,58,59
 275 141 275 141 274 178 c 1,60,-1
 274 244 l 1,61,62
 273 289 273 289 273 301 c 2,63,-1
 273 316 l 1,0,-1
289 640 m 1,64,-1
 361 586 l 1,65,-1
 291 537 l 1,66,-1
 230 586 l 1,67,-1
 289 640 l 1,64,-1
EndSplineSet
Validated: 8388609
EndChar

StartChar: k
Encoding: 107 107 41
Width: 628
Flags: W
HStem: 2 83<42 105> 2 59<181 236>
VStem: 101 75<70 190 262 671>
LayerCount: 2
Fore
SplineSet
175 516 m 2,0,-1
 176 379 l 1,1,-1
 176 262 l 1,2,-1
 279 366 l 2,3,4
 321 408 321 408 338 424 c 128,-1,5
 355 440 355 440 365 451 c 2,6,-1
 375 461 l 2,7,8
 375 460 375 460 396 460 c 2,9,-1
 442 460 l 2,10,11
 472 460 472 460 510 461 c 1,12,13
 310 297 310 297 271 266 c 1,14,15
 272 265 272 265 285.5 260 c 128,-1,16
 299 255 299 255 317 247 c 0,17,18
 440 192 440 192 452 174.5 c 128,-1,19
 464 157 464 157 468 121.5 c 128,-1,20
 472 86 472 86 473.5 48 c 128,-1,21
 475 10 475 10 478.5 -24.5 c 128,-1,22
 482 -59 482 -59 495 -79 c 128,-1,23
 508 -99 508 -99 533.5 -122.5 c 128,-1,24
 559 -146 559 -146 590 -160 c 1,25,-1
 579 -162 l 2,26,27
 556 -166 556 -166 539 -166 c 2,28,-1
 515 -166 l 2,29,30
 487 -166 487 -166 461.5 -153.5 c 128,-1,31
 436 -141 436 -141 423.5 -129.5 c 128,-1,32
 411 -118 411 -118 397 -75 c 0,33,34
 392 -68 392 -68 386 -6 c 128,-1,35
 380 56 380 56 375.5 93.5 c 128,-1,36
 371 131 371 131 368 139 c 0,37,38
 362 153 362 153 309.5 178.5 c 128,-1,39
 257 204 257 204 214 220 c 1,40,-1
 176 190 l 1,41,42
 177 139 177 139 177.5 106.5 c 128,-1,43
 178 74 178 74 181 67.5 c 128,-1,44
 184 61 184 61 192.5 59.5 c 128,-1,45
 201 58 201 58 210.5 59 c 128,-1,46
 220 60 220 60 226.5 60.5 c 128,-1,47
 233 61 233 61 233 57 c 0,48,49
 234 40 234 40 240.5 25 c 128,-1,50
 247 10 247 10 247 6 c 128,-1,51
 247 2 247 2 239 2 c 0,52,53
 147 2 147 2 55 2 c 0,54,55
 45 2 45 2 43.5 16 c 128,-1,56
 42 30 42 30 41.5 42 c 128,-1,57
 41 54 41 54 39 70 c 0,58,59
 36 85 36 85 46 85 c 128,-1,60
 56 85 56 85 69 79.5 c 128,-1,61
 82 74 82 74 93.5 68.5 c 128,-1,62
 105 63 105 63 105 70 c 2,63,-1
 105 165 l 1,64,-1
 101 371 l 1,65,-1
 101 596 l 2,66,67
 101 643 101 643 100 697 c 0,68,69
 100 704 100 704 95.5 699.5 c 128,-1,70
 91 695 91 695 85.5 691.5 c 128,-1,71
 80 688 80 688 73.5 691.5 c 128,-1,72
 67 695 67 695 64 713 c 0,73,74
 63 720 63 720 63 727 c 0,75,76
 63 744 63 744 72 754 c 0,77,78
 84 768 84 768 101 771.5 c 128,-1,79
 118 775 118 775 131 767.5 c 128,-1,80
 144 760 144 760 155 748.5 c 128,-1,81
 166 737 166 737 174 726.5 c 128,-1,82
 182 716 182 716 188 713 c 0,83,84
 216 716 216 716 222 716 c 128,-1,85
 228 716 228 716 232 715.5 c 128,-1,86
 236 715 236 715 231 711 c 0,87,88
 180 674 180 674 176 562 c 0,89,90
 175 543 175 543 175 516 c 2,0,-1
EndSplineSet
Validated: 8388609
EndChar

StartChar: l
Encoding: 108 108 42
Width: 276
Flags: W
HStem: -1 52<171 226>
VStem: 91 72<62 661>
LayerCount: 2
Fore
SplineSet
190 -1 m 2,0,-1
 148 0 l 1,1,-1
 47 1 l 2,2,3
 39 1 39 1 38 3 c 128,-1,4
 37 5 37 5 40.5 14.5 c 128,-1,5
 44 24 44 24 44 33.5 c 128,-1,6
 44 43 44 43 42 55.5 c 128,-1,7
 40 68 40 68 47.5 69.5 c 128,-1,8
 55 71 55 71 65 67 c 128,-1,9
 75 63 75 63 84.5 59.5 c 128,-1,10
 94 56 94 56 94 62 c 2,11,-1
 91 348 l 1,12,-1
 91 589 l 2,13,14
 91 636 91 636 90 690 c 0,15,16
 90 697 90 697 85 692.5 c 128,-1,17
 80 688 80 688 74 684.5 c 128,-1,18
 68 681 68 681 61.5 684.5 c 128,-1,19
 55 688 55 688 52.5 702 c 128,-1,20
 50 716 50 716 50 726.5 c 128,-1,21
 50 737 50 737 63 750 c 128,-1,22
 76 763 76 763 92 765.5 c 128,-1,23
 108 768 108 768 121 760.5 c 128,-1,24
 134 753 134 753 144 741.5 c 128,-1,25
 154 730 154 730 162.5 719.5 c 128,-1,26
 171 709 171 709 177 706 c 0,27,28
 205 709 205 709 211 709 c 128,-1,29
 217 709 217 709 219 709 c 0,30,31
 226 708 226 708 221 703 c 0,32,33
 167 665 167 665 163 555 c 0,34,35
 162 535 162 535 162.5 512.5 c 128,-1,36
 163 490 163 490 163 455 c 128,-1,37
 163 420 163 420 163.5 344.5 c 128,-1,38
 164 269 164 269 165 168.5 c 128,-1,39
 166 68 166 68 170 61 c 0,40,41
 176 51 176 51 192 52 c 0,42,43
 196 52 196 52 200 52 c 0,44,45
 222 55 222 55 222 50 c 0,46,47
 223 32 223 32 229.5 22.5 c 128,-1,48
 236 13 236 13 236 11 c 128,-1,49
 236 9 236 9 226 4 c 128,-1,50
 216 -1 216 -1 190 -1 c 2,0,-1
EndSplineSet
Validated: 33
EndChar

StartChar: m
Encoding: 109 109 43
Width: 787
Flags: W
HStem: 0 22G<48 218 334 474 601 739> 349 56<207 333 520 600>
VStem: 42 170<4 54> 43 179<0 54> 83 72<64 309> 350 130<1 52> 361 73<73 299> 595 150<1 54> 625 73<76 311>
LayerCount: 2
Fore
SplineSet
361 166 m 2,0,-1
 359 228 l 2,1,2
 359 250 359 250 353 279 c 0,3,4
 337 347 337 347 296 349 c 0,5,6
 289 349 289 349 282 349 c 0,7,8
 229 349 229 349 154 293 c 1,9,-1
 154 281 l 1,10,11
 155 204 155 204 155 162.5 c 128,-1,12
 155 121 155 121 155.5 95.5 c 128,-1,13
 156 70 156 70 159.5 63 c 128,-1,14
 163 56 163 56 171.5 54.5 c 128,-1,15
 180 53 180 53 189.5 54 c 128,-1,16
 199 55 199 55 205.5 55.5 c 128,-1,17
 212 56 212 56 212 52 c 0,18,19
 213 40 213 40 216 30 c 128,-1,20
 219 20 219 20 220.5 13.5 c 128,-1,21
 222 7 222 7 221.5 3.5 c 128,-1,22
 221 0 221 0 214 0 c 2,23,-1
 51 0 l 2,24,25
 44 0 44 0 43 2 c 128,-1,26
 42 4 42 4 42.5 10 c 128,-1,27
 43 16 43 16 44 26 c 128,-1,28
 45 36 45 36 42 51 c 256,29,30
 39 66 39 66 45 68.5 c 128,-1,31
 51 71 51 71 60 68 c 128,-1,32
 69 65 69 65 76.5 61.5 c 128,-1,33
 84 58 84 58 84 65 c 2,34,-1
 83 200 l 1,35,-1
 83 279 l 1,36,37
 82 294 82 294 82 300 c 128,-1,38
 82 306 82 306 81 342 c 0,39,40
 81 345 81 345 77.5 347 c 128,-1,41
 74 349 74 349 65.5 343 c 128,-1,42
 57 337 57 337 51.5 340.5 c 128,-1,43
 46 344 46 344 43.5 359 c 128,-1,44
 41 374 41 374 41.5 384 c 128,-1,45
 42 394 42 394 54.5 406.5 c 128,-1,46
 67 419 67 419 81.5 421.5 c 128,-1,47
 96 424 96 424 107.5 418 c 128,-1,48
 119 412 119 412 128 402.5 c 128,-1,49
 137 393 137 393 145.5 383 c 128,-1,50
 154 373 154 373 160 367 c 1,51,52
 225 406 225 406 271 406 c 2,53,-1
 281 406 l 2,54,55
 319 406 319 406 346.5 387.5 c 128,-1,56
 374 369 374 369 387 352 c 1,57,58
 472 406 472 406 534.5 406.5 c 128,-1,59
 597 407 597 407 640.5 363.5 c 128,-1,60
 684 320 684 320 694 240 c 0,61,62
 699 199 699 199 699 184 c 1,63,-1
 697 170 l 1,64,65
 697 130 697 130 688 75 c 1,66,67
 695 71 695 71 705 65.5 c 128,-1,68
 715 60 715 60 729 49 c 0,69,70
 744 37 744 37 745 32 c 0,71,72
 745 25 745 25 732 0 c 1,73,-1
 606 0 l 2,74,75
 595 0 595 0 595 12 c 0,76,77
 595 29 595 29 606 48.5 c 128,-1,78
 617 68 617 68 621 116.5 c 128,-1,79
 625 165 625 165 625 188 c 2,80,-1
 625 224 l 1,81,82
 623 296 623 296 597 332 c 0,83,84
 584 351 584 351 561 352 c 0,85,86
 557 352 557 352 553 352 c 2,87,-1
 520 349 l 1,88,89
 481 341 481 341 455 325.5 c 128,-1,90
 429 310 429 310 416 301 c 1,91,92
 434 247 434 247 434 187 c 128,-1,93
 434 127 434 127 425 72 c 1,94,95
 439 64 439 64 459.5 51 c 128,-1,96
 480 38 480 38 480 29 c 0,97,98
 480 27 480 27 467 0 c 1,99,-1
 342 0 l 2,100,101
 326 0 326 0 332 19 c 128,-1,102
 338 38 338 38 344 45.5 c 128,-1,103
 350 53 350 53 350 58 c 2,104,-1
 354 91 l 2,105,106
 361 145 361 145 361 166 c 2,0,-1
EndSplineSet
Validated: 8388641
EndChar

StartChar: n
Encoding: 110 110 44
Width: 535
Flags: W
HStem: 0 57<43 89 164 220> 349 52<232 361>
VStem: 88 70<65 300> 381 78<78 330>
LayerCount: 2
Fore
SplineSet
307 401 m 1,0,-1
 325 402 l 2,1,2
 337 402 337 402 364.5 394 c 128,-1,3
 392 386 392 386 415 361 c 0,4,5
 459 313 459 313 459 237 c 2,6,-1
 459 227 l 2,7,8
 459 166 459 166 435 72 c 1,9,10
 442 68 442 68 452 62 c 0,11,12
 490 42 490 42 492 29 c 0,13,14
 492 24 492 24 487 11 c 1,15,-1
 482 1 l 1,16,17
 454 0 454 0 429 0 c 2,18,-1
 355 0 l 2,19,20
 342 0 342 0 342.5 12 c 128,-1,21
 343 24 343 24 351.5 40.5 c 128,-1,22
 360 57 360 57 362 61 c 0,23,24
 364 72 364 72 372.5 117 c 128,-1,25
 381 162 381 162 381 211 c 128,-1,26
 381 260 381 260 376 286 c 0,27,28
 365 348 365 348 324 349 c 0,29,30
 287 349 287 349 249 334.5 c 128,-1,31
 211 320 211 320 158 288 c 1,32,-1
 158 281 l 1,33,34
 159 204 159 204 159 162.5 c 128,-1,35
 159 121 159 121 159.5 96.5 c 128,-1,36
 160 72 160 72 164 64 c 128,-1,37
 168 56 168 56 176.5 54.5 c 128,-1,38
 185 53 185 53 194.5 54 c 128,-1,39
 204 55 204 55 210.5 55.5 c 128,-1,40
 217 56 217 56 217 52 c 0,41,42
 219 34 219 34 224 21 c 128,-1,43
 229 8 229 8 229 4.5 c 128,-1,44
 229 1 229 1 223 1 c 2,45,-1
 149 0 l 2,46,47
 97 0 97 0 46 0 c 0,48,49
 44 0 44 0 44 8.5 c 128,-1,50
 44 17 44 17 41 35 c 128,-1,51
 38 53 38 53 45.5 57 c 128,-1,52
 53 61 53 61 63 60.5 c 128,-1,53
 73 60 73 60 81 59 c 128,-1,54
 89 58 89 58 89 65 c 2,55,-1
 88 200 l 1,56,-1
 88 224 l 1,57,-1
 87 253 l 2,58,59
 87 255 87 255 86.5 256 c 128,-1,60
 86 257 86 257 85.5 264.5 c 128,-1,61
 85 272 85 272 84.5 291 c 128,-1,62
 84 310 84 310 83 346 c 0,63,64
 83 353 83 353 78.5 348.5 c 128,-1,65
 74 344 74 344 68 340.5 c 128,-1,66
 62 337 62 337 56 340.5 c 128,-1,67
 50 344 50 344 47.5 359 c 128,-1,68
 45 374 45 374 45 384 c 128,-1,69
 45 394 45 394 57 406.5 c 128,-1,70
 69 419 69 419 85 421.5 c 128,-1,71
 101 424 101 424 114 416.5 c 128,-1,72
 127 409 127 409 137.5 397.5 c 128,-1,73
 148 386 148 386 156.5 375.5 c 128,-1,74
 165 365 165 365 171 361 c 1,75,76
 239 395 239 395 307 401 c 1,0,-1
EndSplineSet
Validated: 1
EndChar

StartChar: o
Encoding: 111 111 45
Width: 507
Flags: W
HStem: 0 68<187 320> 374 57<177 326>
VStem: 40 77<146 311> 382 79<137 318>
LayerCount: 2
Fore
SplineSet
259 431 m 0,0,1
 330 431 330 431 373 408 c 0,2,3
 457 362 457 362 461 264 c 1,4,5
 461 230 l 2,6,7
 461 207 461 207 452 172 c 128,-1,8
 443 137 443 137 426 105 c 0,9,10
 366 0 366 0 263 0 c 2,11,-1
 258 0 l 1,12,13
 172 2 172 2 107.5 59 c 128,-1,14
 43 116 43 116 41 195 c 0,15,16
 40 211 40 211 40 226 c 0,17,18
 40 312 40 312 75 360 c 0,19,20
 127 431 127 431 259 431 c 0,0,1
382 233 m 0,21,22
 382 320 382 320 316 358 c 0,23,24
 288 374 288 374 252 374 c 0,25,26
 189 374 189 374 153 331.5 c 128,-1,27
 117 289 117 289 117 224 c 0,28,29
 119 165 119 165 159 116.5 c 128,-1,30
 199 68 199 68 254.5 68 c 128,-1,31
 310 68 310 68 346 115.5 c 128,-1,32
 382 163 382 163 382 233 c 0,21,22
EndSplineSet
Validated: 1
EndChar

StartChar: p
Encoding: 112 112 46
Width: 605
Flags: W
HStem: -304 52<184 236> -302 77<46 103> -298 46<184 236> -1 50<177 411> 366 65<181 391> 368 84<69 99>
VStem: 100 74<-240 3 63 361> 480 79<113 296>
LayerCount: 2
Fore
SplineSet
100 193 m 2,0,-1
 99 359 l 2,1,2
 99 372 99 372 99 376 c 0,3,4
 99 383 99 383 95 378 c 0,5,6
 85 368 85 368 77 368 c 0,7,8
 63 368 63 368 60 406 c 0,9,10
 60 423 60 423 75.5 437.5 c 128,-1,11
 91 452 91 452 109.5 452 c 128,-1,12
 128 452 128 452 143 443.5 c 128,-1,13
 158 435 158 435 165.5 428.5 c 128,-1,14
 173 422 173 422 179 418 c 1,15,16
 235 430 235 430 274 430 c 2,17,-1
 329 430 l 1,18,19
 491 422 491 422 541 305 c 0,20,21
 558 264 558 264 559 180 c 0,22,23
 559 -1 559 -1 260 -1 c 2,24,-1
 244 -1 l 1,25,26
 205 0 205 0 176 3 c 1,27,28
 177 -101 177 -101 178 -150.5 c 128,-1,29
 179 -200 179 -200 179.5 -220 c 128,-1,30
 180 -240 180 -240 184 -247 c 128,-1,31
 188 -254 188 -254 203.5 -252 c 128,-1,32
 219 -250 219 -250 225 -249.5 c 128,-1,33
 231 -249 231 -249 231 -253 c 0,34,35
 233 -269 233 -269 239.5 -279.5 c 128,-1,36
 246 -290 246 -290 246 -292 c 128,-1,37
 246 -294 246 -294 237 -298 c 128,-1,38
 228 -302 228 -302 205 -303.5 c 128,-1,39
 182 -305 182 -305 174.5 -304 c 128,-1,40
 167 -303 167 -303 158 -303 c 2,41,-1
 57 -302 l 2,42,43
 49 -302 49 -302 46 -298 c 0,44,45
 44 -294 44 -294 42 -274.5 c 128,-1,46
 40 -255 40 -255 36 -241 c 256,47,48
 33 -226 33 -226 44 -225 c 0,49,50
 57 -225 57 -225 92 -242 c 0,51,52
 104 -247 104 -247 103 -241 c 0,53,54
 103 -213 103 -213 103 -189 c 128,-1,55
 103 -165 103 -165 103 -145 c 2,56,-1
 100 45 l 2,57,58
 100 63 100 63 100 80 c 128,-1,59
 100 97 100 97 100 122 c 128,-1,60
 100 147 100 147 100 193 c 2,0,-1
175 286 m 2,61,-1
 174 121 l 2,62,63
 174 67 174 67 175 67.5 c 128,-1,64
 176 68 176 68 218.5 58.5 c 128,-1,65
 261 49 261 49 276 49 c 128,-1,66
 291 49 291 49 305.5 50 c 128,-1,67
 320 51 320 51 345 52 c 128,-1,68
 370 53 370 53 403 66.5 c 128,-1,69
 436 80 436 80 458 111 c 128,-1,70
 480 142 480 142 480 204 c 128,-1,71
 480 266 480 266 458 295 c 0,72,73
 405 365 405 365 258 366 c 0,74,75
 213 366 213 366 200 362 c 0,76,77
 173 354 173 354 174 336 c 1,78,79
 175 326 175 326 175 286 c 2,61,-1
EndSplineSet
Validated: 8388641
EndChar

StartChar: q
Encoding: 113 113 47
Width: 623
Flags: W
HStem: -289 55<372 420 497 549> -167 57<306 420 492 544> -2 51<169 418> 354 51<239 418> 405 8<532 538>
VStem: 38 59<112 262> 420 69<-229 -167 -108 2 59 353>
LayerCount: 2
Fore
SplineSet
372 -253 m 0,0,1
 372 -233 372 -233 412 -233 c 0,2,3
 420 -233 420 -233 420 -227 c 2,4,-1
 420 -167 l 1,5,-1
 301 -170 l 1,6,-1
 306 -114 l 1,7,-1
 420 -110 l 1,8,9
 420 -77 420 -77 419.5 -50.5 c 128,-1,10
 419 -24 419 -24 419 2 c 1,11,12
 376 -2 376 -2 316.5 -2 c 128,-1,13
 257 -2 257 -2 178.5 16 c 128,-1,14
 100 34 100 34 61 92 c 0,15,16
 40 123 40 123 38 167 c 0,17,18
 38 174 38 174 38 181 c 0,19,20
 40 296 40 296 130 353 c 0,21,22
 214 406 214 406 367 405 c 0,23,24
 415 405 415 405 464 398 c 1,25,26
 479 401 479 401 498.5 405 c 128,-1,27
 518 409 518 409 546 414 c 1,28,29
 494 377 494 377 489 265 c 0,30,31
 488 235 488 235 488 207 c 2,32,-1
 490 -108 l 1,33,-1
 580 -104 l 1,34,-1
 585 -163 l 1,35,-1
 492 -165 l 1,36,37
 494 -223 494 -223 497 -229 c 0,38,39
 503 -240 503 -240 525 -237.5 c 128,-1,40
 547 -235 547 -235 547 -240 c 2,41,-1
 552 -271 l 1,42,43
 552 -289 552 -289 467 -290 c 2,44,-1
 372 -289 l 2,45,46
 357 -289 357 -289 369 -267 c 0,47,48
 372 -262 372 -262 372 -253 c 0,0,1
417 93 m 2,49,-1
 420 244 l 1,50,-1
 420 354 l 1,51,52
 271 354 271 354 178 309 c 0,53,54
 97 269 97 269 97 198 c 0,55,56
 97 139 97 139 121 110 c 0,57,58
 165 54 165 54 256 49 c 0,59,60
 275 48 275 48 299 48 c 128,-1,61
 323 48 323 48 356.5 51.5 c 128,-1,62
 390 55 390 55 403 57.5 c 128,-1,63
 416 60 416 60 418 59 c 1,64,65
 417 77 417 77 417 93 c 2,49,-1
EndSplineSet
Validated: 8388641
EndChar

StartChar: r
Encoding: 114 114 48
Width: 369
Flags: W
HStem: -1 54<182 238> 0 79<45 107> 335 70<62 103> 337 53<177 260>
VStem: 103 75<67 337>
LayerCount: 2
Fore
SplineSet
161 -1 m 2,0,-1
 60 0 l 2,1,2
 46 0 46 0 45.5 16.5 c 128,-1,3
 45 33 45 33 41 56 c 128,-1,4
 37 79 37 79 47 79 c 128,-1,5
 57 79 57 79 70 73.5 c 128,-1,6
 83 68 83 68 95 62.5 c 128,-1,7
 107 57 107 57 107 63 c 0,8,9
 107 165 107 165 105.5 191 c 128,-1,10
 104 217 104 217 103.5 244 c 128,-1,11
 103 271 103 271 103 287 c 128,-1,12
 103 303 103 303 104 304 c 1,13,-1
 103 349 l 2,14,15
 103 356 103 356 97 350 c 0,16,17
 84 335 84 335 76 335 c 0,18,19
 65 335 65 335 61 362 c 0,20,21
 60 368 60 368 60 378 c 0,22,23
 60 406 60 406 122 406 c 0,24,25
 150 406 150 406 164 390 c 1,26,-1
 202 390 l 2,27,28
 229 390 229 390 260 391 c 128,-1,29
 291 392 291 392 329 393 c 1,30,31
 296 356 296 356 296 326 c 0,32,33
 296 309 296 309 305 281 c 257,34,-1
 295 276 l 1,35,36
 267 267 267 267 253 267 c 0,37,38
 236 267 236 267 252.5 285 c 128,-1,39
 269 303 269 303 268 311 c 128,-1,40
 267 319 267 319 261 324 c 0,41,42
 251 330 251 330 223 333.5 c 128,-1,43
 195 337 195 337 177 337 c 1,44,-1
 177 296 l 1,45,46
 178 219 178 219 178 175 c 2,47,-1
 178 108 l 2,48,49
 178 70 178 70 182 62 c 0,50,51
 187 52 187 52 203 53 c 0,52,53
 207 53 207 53 211 53 c 0,54,55
 234 56 234 56 234 51 c 0,56,57
 235 33 235 33 241.5 23.5 c 128,-1,58
 248 14 248 14 248 12 c 128,-1,59
 248 10 248 10 236 4.5 c 128,-1,60
 224 -1 224 -1 161 -1 c 2,0,-1
EndSplineSet
Validated: 8388609
EndChar

StartChar: t
Encoding: 116 116 49
Width: 359
Flags: W
HStem: -2 53<226 283> 0 77<89 151> 436 56<42 148> 440 58<78 148 222 315>
VStem: 148 85<499 586> 151 72<62 439 499 585>
LayerCount: 2
Fore
SplineSet
184 641 m 1,0,1
 233 636 233 636 233 594 c 0,2,3
 233 578 233 578 231 574.5 c 128,-1,4
 229 571 229 571 225.5 564 c 128,-1,5
 222 557 222 557 222 514 c 2,6,-1
 222 499 l 1,7,-1
 315 502 l 1,8,-1
 319 443 l 1,9,-1
 222 440 l 1,10,-1
 222 186 l 2,11,12
 222 70 222 70 226 61 c 0,13,14
 231 50 231 50 248 51 c 0,15,16
 251 51 251 51 256 51 c 0,17,18
 279 54 279 54 279 49 c 0,19,20
 280 31 280 31 286.5 21.5 c 128,-1,21
 293 12 293 12 293.5 10 c 128,-1,22
 294 8 294 8 283 3 c 128,-1,23
 272 -2 272 -2 243 -2 c 2,24,-1
 205 -2 l 1,25,-1
 102 0 l 2,26,27
 89 0 89 0 89 16.5 c 128,-1,28
 89 33 89 33 83 61 c 0,29,30
 81 76 81 76 91 76.5 c 128,-1,31
 101 77 101 77 114.5 71.5 c 128,-1,32
 128 66 128 66 139.5 60.5 c 128,-1,33
 151 55 151 55 151 61 c 2,34,-1
 151 352 l 1,35,36
 149 420 149 420 148 439 c 1,37,-1
 37 436 l 1,38,-1
 42 493 l 1,39,-1
 150 496 l 1,40,-1
 150 523 l 2,41,42
 150 540 150 540 148 580 c 1,43,44
 116 587 116 587 110.5 598 c 128,-1,45
 105 609 105 609 115 619 c 0,46,47
 134 638 134 638 177 641 c 1,48,-1
 184 641 l 1,0,1
EndSplineSet
Validated: 8388609
EndChar

StartChar: u
Encoding: 117 117 50
Width: 563
Flags: W
HStem: -2 50<186 344> 379 53<41 85> 411 2<216 222>
VStem: 41 95<101 324> 406 88<114 405>
LayerCount: 2
Fore
SplineSet
484 57 m 1,0,1
 520 39 520 39 520.5 31.5 c 128,-1,2
 521 24 521 24 516 13 c 128,-1,3
 511 2 511 2 511 0 c 1,4,-1
 497 0 l 1,5,6
 470 -2 470 -2 439 -2 c 2,7,8
 398 -2 l 2,9,10
 386 -2 386 -2 384 7 c 128,-1,11
 382 16 382 16 387 28 c 1,12,13
 314 -1 314 -1 239 -1 c 0,14,15
 108 -1 108 -1 63 84 c 0,16,17
 41 128 41 128 41 174 c 0,18,19
 41 279 41 279 85 386 c 1,20,21
 67 379 67 379 61 379 c 0,22,23
 47 379 47 379 41 398 c 0,24,25
 36 411 36 411 53.5 421.5 c 128,-1,26
 71 432 71 432 96 432 c 128,-1,27
 121 432 121 432 140.5 424 c 128,-1,28
 160 416 160 416 172 413 c 1,29,30
 197 413 197 413 222 413 c 0,31,32
 229 413 229 413 220 411 c 0,33,34
 188 406 188 406 154 357 c 1,35,36
 151 331 151 331 146 299.5 c 128,-1,37
 141 268 141 268 139 243 c 128,-1,38
 137 218 137 218 136 202 c 0,39,40
 136 48 136 48 263 48 c 0,41,42
 405 51 405 51 406 222 c 0,43,44
 405 229 405 229 404 250.5 c 128,-1,45
 403 272 403 272 398 307 c 128,-1,46
 393 342 393 342 388.5 369 c 128,-1,47
 384 396 384 396 382 413 c 128,-1,48
 380 430 380 430 386 432 c 1,49,-1
 488 432 l 2,50,51
 494 432 494 432 494 298 c 128,-1,52
 494 164 494 164 484 58 c 1,53,-1
 484 57 l 1,0,1
EndSplineSet
Validated: 8388609
EndChar

StartChar: v
Encoding: 118 118 51
Width: 561
Flags: W
HStem: 1 45<291 349> 336 70<53 77>
LayerCount: 2
Fore
SplineSet
273 1 m 2,0,-1
 168 2 l 2,1,2
 161 2 161 2 161.5 6 c 128,-1,3
 162 10 162 10 168.5 22.5 c 128,-1,4
 175 35 175 35 171 41 c 0,5,6
 162 55 162 55 168.5 57 c 128,-1,7
 175 59 175 59 186 57.5 c 128,-1,8
 197 56 197 56 207 54 c 128,-1,9
 217 52 217 52 215 57 c 0,10,11
 197 106 197 106 182 146 c 128,-1,12
 167 186 167 186 144.5 234.5 c 128,-1,13
 122 283 122 283 77 342 c 1,14,15
 77 349 77 349 72.5 344.5 c 128,-1,16
 68 340 68 340 62 336.5 c 128,-1,17
 56 333 56 333 49 336.5 c 128,-1,18
 42 340 42 340 39 357 c 0,19,20
 38 362 38 362 38 368 c 0,21,22
 38 386 38 386 52 394 c 0,23,24
 73 406 73 406 98 406 c 128,-1,25
 123 406 123 406 150 383 c 0,26,27
 157 377 157 377 163 374 c 0,28,29
 191 378 191 378 197.5 377.5 c 128,-1,30
 204 377 204 377 208 376.5 c 128,-1,31
 212 376 212 376 207 372 c 0,32,33
 175 349 175 349 175 321 c 0,34,35
 175 302 175 302 189 278 c 128,-1,36
 203 254 203 254 218 227 c 1,37,-1
 259 135 l 1,38,-1
 432 404 l 1,39,-1
 520 403 l 1,40,-1
 291 56 l 1,41,42
 296 46 296 46 306.5 46 c 128,-1,43
 317 46 317 46 330 48 c 128,-1,44
 343 50 343 50 343 45 c 0,45,46
 345 26 345 26 352.5 19.5 c 128,-1,47
 360 13 360 13 361 12 c 128,-1,48
 362 11 362 11 351 6 c 128,-1,49
 340 1 340 1 273 1 c 2,0,-1
EndSplineSet
Validated: 33
EndChar

StartChar: x
Encoding: 120 120 52
Width: 578
Flags: W
HStem: -2 23G<55 108 414 449> 410 21G<106 121 424 539>
LayerCount: 2
Fore
SplineSet
539 430 m 1,0,-1
 306 199 l 1,1,2
 360 147 360 147 463 62 c 0,3,4
 497 33 497 33 512 16 c 128,-1,5
 527 -1 527 -1 511 -1 c 0,6,7
 467 -2 467 -2 431.5 -2 c 128,-1,8
 396 -2 396 -2 391 4 c 0,9,10
 387 10 387 10 386 15 c 0,11,12
 382 37 382 37 360 63 c 0,13,14
 315 116 315 116 270 163 c 1,15,-1
 108 0 l 1,16,-1
 36 -1 l 1,17,-1
 231 207 l 1,18,19
 221 217 221 217 176.5 266 c 128,-1,20
 132 315 132 315 106 349 c 1,21,22
 106 357 106 357 99.5 350.5 c 128,-1,23
 93 344 93 344 88.5 342 c 128,-1,24
 84 340 84 340 76 344 c 0,25,26
 64 349 64 349 64.5 375 c 128,-1,27
 65 401 65 401 77 412 c 0,28,29
 98 431 98 431 113.5 430.5 c 128,-1,30
 129 430 129 430 142 423 c 128,-1,31
 155 416 155 416 163 406.5 c 128,-1,32
 171 397 171 397 182.5 381.5 c 128,-1,33
 194 366 194 366 197 366 c 0,34,35
 221 370 221 370 231 370 c 2,36,-1
 243 370 l 1,37,38
 251 369 251 369 237 359 c 128,-1,39
 223 349 223 349 223 334.5 c 128,-1,40
 223 320 223 320 227.5 303.5 c 128,-1,41
 232 287 232 287 266 243 c 1,42,-1
 443 430 l 1,43,-1
 539 430 l 1,0,-1
EndSplineSet
Validated: 33
EndChar

StartChar: zero
Encoding: 48 48 53
Width: 558
Flags: W
HStem: 2 57<250 357> 588 186<290 390>
VStem: 38 97<202 530> 432 89<254 529>
LayerCount: 2
Fore
SplineSet
119 665 m 0,0,1
 189 773 189 773 283 773 c 0,2,3
 288 774 288 774 292 774 c 0,4,5
 367 774 367 774 430 683 c 0,6,7
 466 631 466 631 481 593 c 0,8,9
 515 506 515 506 521 409 c 1,10,-1
 521 393 l 2,11,12
 521 344 521 344 498 248 c 0,13,14
 459 89 459 89 413 56 c 0,15,16
 344 5 344 5 273 2 c 0,17,18
 197 2 197 2 133 72 c 0,19,20
 41 171 41 171 38 356 c 1,21,-1
 38 368 l 2,22,23
 38 473 38 473 73 571 c 0,24,25
 91 621 91 621 119 665 c 0,0,1
179 178 m 0,26,27
 181 188 181 188 192.5 216.5 c 128,-1,28
 204 245 204 245 265 428 c 128,-1,29
 326 611 326 611 332 649 c 1,30,31
 310 699 310 699 302 703.5 c 128,-1,32
 294 708 294 708 280.5 705.5 c 128,-1,33
 267 703 267 703 247 693.5 c 128,-1,34
 227 684 227 684 196 638.5 c 128,-1,35
 165 593 165 593 150 516 c 128,-1,36
 135 439 135 439 135 375 c 128,-1,37
 135 311 135 311 140 269.5 c 128,-1,38
 145 228 145 228 151.5 204 c 128,-1,39
 158 180 158 180 164.5 169 c 128,-1,40
 171 158 171 158 179 178 c 0,26,27
385 587 m 0,41,42
 378 570 378 570 305 366 c 128,-1,43
 232 162 232 162 232 125 c 0,44,45
 232 109 232 109 240 93.5 c 128,-1,46
 248 78 248 78 283 63 c 0,47,48
 294 58 294 58 305 59 c 0,49,50
 330 59 330 59 355 80 c 0,51,52
 393 111 393 111 416 240 c 0,53,54
 432 332 432 332 432 372 c 0,55,56
 432 462 432 462 406 545 c 0,57,58
 393 588 393 588 387 588 c 0,59,60
 386 588 386 588 385 587 c 0,41,42
EndSplineSet
Validated: 1
EndChar

StartChar: one
Encoding: 49 49 54
Width: 428
Flags: W
HStem: 3 74<276 377> 3 64<55 159 276 382> 720 3<62 63>
VStem: 221 80<440 592>
LayerCount: 2
Fore
SplineSet
159 70 m 0,0,1
 159 212 159 212 176 309 c 0,2,3
 181 339 181 339 186 371 c 256,4,5
 191 403 191 403 197 433 c 0,6,7
 221 549 221 549 221 647 c 1,8,9
 215 649 215 649 206 651 c 128,-1,10
 197 653 197 653 176.5 662 c 128,-1,11
 156 671 156 671 136 671 c 0,12,13
 71 671 71 671 43 633 c 0,14,15
 36 624 36 624 36 630 c 0,16,17
 36 639 36 639 44 664 c 2,18,-1
 53 690 l 2,19,20
 57 702 57 702 60 711 c 128,-1,21
 63 720 63 720 62 720 c 258,22,-1
 77 722 l 2,23,24
 122 729 122 729 159 734 c 128,-1,25
 196 739 196 739 219 742 c 0,26,27
 279 750 279 750 347 781 c 1,28,29
 346 775 346 775 344.5 766 c 128,-1,30
 343 757 343 757 339 735 c 1,31,-1
 342 739 l 1,32,33
 340 722 340 722 336 694 c 128,-1,34
 332 666 332 666 328 632.5 c 128,-1,35
 324 599 324 599 319 562.5 c 128,-1,36
 314 526 314 526 307.5 471.5 c 128,-1,37
 301 417 301 417 301 361.5 c 128,-1,38
 301 306 301 306 295 250 c 128,-1,39
 289 194 289 194 283.5 155.5 c 128,-1,40
 278 117 278 117 274.5 96.5 c 128,-1,41
 271 76 271 76 276 69.5 c 128,-1,42
 281 63 281 63 297 64.5 c 128,-1,43
 313 66 313 66 329.5 70 c 128,-1,44
 346 74 346 74 358.5 77 c 128,-1,45
 371 80 371 80 371 76 c 0,46,47
 372 64 372 64 379 50.5 c 128,-1,48
 386 37 386 37 390 27 c 0,49,50
 401 3 401 3 383 3 c 2,51,-1
 74 3 l 2,52,53
 60 3 60 3 55 7.5 c 128,-1,54
 50 12 50 12 48 21 c 128,-1,55
 46 30 46 30 45 42 c 128,-1,56
 44 54 44 54 39 67 c 128,-1,57
 34 80 34 80 42 83 c 128,-1,58
 50 86 50 86 63 84 c 0,59,60
 84 82 84 82 114.5 74.5 c 128,-1,61
 145 67 145 67 152 67.5 c 128,-1,62
 159 68 159 68 159 70 c 0,0,1
EndSplineSet
Validated: 8388641
EndChar

StartChar: two
Encoding: 50 50 55
Width: 651
Flags: W
HStem: 1 170<468 556> 1 49<227 431> 702 69<231 345>
VStem: 431 123<400 571> 490 66<98 146>
LayerCount: 2
Fore
SplineSet
147 0 m 2,0,-1
 81 1 l 1,1,-1
 48 1 l 2,2,3
 34 1 34 1 32 0 c 1,4,5
 36 3 36 3 60 20 c 128,-1,6
 84 37 84 37 118 65 c 0,7,8
 344 247 344 247 407 387 c 0,9,10
 432 441 432 441 431 479 c 2,11,-1
 431 490 l 2,12,13
 431 530 431 530 415 560 c 128,-1,14
 399 590 399 590 379 630 c 0,15,16
 343 702 343 702 299 702 c 2,17,-1
 296 702 l 1,18,19
 256 700 256 700 232 681 c 0,20,21
 189 647 189 647 180 603 c 1,22,-1
 176 589 l 257,23,24
 175 592 175 592 153 592 c 2,25,-1
 97 592 l 1,26,-1
 82 591 l 257,27,28
 82 600 82 600 90.5 626.5 c 128,-1,29
 99 653 99 653 112 675 c 0,30,31
 140 725 140 725 200 752 c 0,32,33
 243 771 243 771 281 771 c 0,34,35
 284 771 284 771 287 771 c 0,36,37
 395 771 395 771 473 679 c 0,38,39
 540 601 540 601 553 504 c 0,40,41
 554 497 554 497 554 489 c 0,42,43
 554 454 554 454 531 400 c 0,44,45
 464 237 464 237 227 50 c 1,46,47
 309 50 309 50 431 73 c 0,48,49
 478 82 478 82 486 98 c 0,50,51
 489 105 489 105 490 113 c 0,52,53
 490 122 490 122 484 131 c 0,54,55
 474 147 474 147 471 159 c 128,-1,56
 468 171 468 171 483 171 c 128,-1,57
 498 171 498 171 518 165.5 c 128,-1,58
 538 160 538 160 555 153.5 c 128,-1,59
 572 147 572 147 575 146 c 1,60,61
 571 144 571 144 563.5 135 c 128,-1,62
 556 126 556 126 556 113 c 0,63,64
 556 64 556 64 618 1 c 1,65,66
 479 1 479 1 340 1 c 1,67,-1
 202 0 l 2,68,69
 174 0 174 0 147 0 c 2,0,-1
EndSplineSet
Validated: 8388641
EndChar

StartChar: three
Encoding: 51 51 56
Width: 567
Flags: W
HStem: 4 92<174 399> 702 57<147 276>
VStem: 35 91<600 680> 362 120<464 602> 433 97<130 240>
LayerCount: 2
Fore
SplineSet
333 455 m 0,0,1
 362 486 362 486 362 539 c 0,2,3
 362 567 362 567 337 610 c 0,4,5
 282 703 282 703 212 702 c 0,6,7
 209 702 209 702 206 702 c 0,8,9
 167 700 167 700 146.5 680.5 c 128,-1,10
 126 661 126 661 126 626 c 0,11,12
 127 621 127 621 128 609.5 c 128,-1,13
 129 598 129 598 130 597 c 1,14,15
 126 600 126 600 111 600 c 2,16,-1
 79 600 l 2,17,18
 62 600 62 600 49 599 c 2,19,-1
 36 598 l 1,20,-1
 35 608 l 1,21,22
 35 703 35 703 125 742 c 0,23,24
 165 759 165 759 208 759.5 c 128,-1,25
 251 760 251 760 285 750 c 128,-1,26
 319 740 319 740 347 724.5 c 128,-1,27
 375 709 375 709 394.5 690.5 c 128,-1,28
 414 672 414 672 426 657 c 128,-1,29
 438 642 438 642 441.5 634.5 c 128,-1,30
 445 627 445 627 442 631 c 1,31,32
 479 579 479 579 482 537 c 0,33,34
 482 531 482 531 482 524 c 0,35,36
 482 451 482 451 418 404 c 0,37,38
 386 380 386 380 352 364 c 1,39,40
 355 357 355 357 357 350 c 1,41,42
 486 291 486 291 522 225 c 0,43,44
 530 209 530 209 530 195.5 c 128,-1,45
 530 182 530 182 528 174 c 0,46,47
 503 81 503 81 437 42.5 c 128,-1,48
 371 4 371 4 259 4 c 2,49,-1
 236 4 l 1,50,51
 154 9 154 9 102 52.5 c 128,-1,52
 50 96 50 96 38 162 c 2,53,-1
 36 173 l 1,54,-1
 49 172 l 1,55,-1
 107 172 l 2,56,57
 131 172 131 172 131 174.5 c 128,-1,58
 131 177 131 177 134 166 c 128,-1,59
 137 155 137 155 150 140 c 0,60,61
 183 100 183 100 249 96 c 0,62,63
 292 94 292 94 308 94 c 0,64,65
 394 94 394 94 421 144 c 0,66,67
 433 167 433 167 433 181 c 0,68,69
 433 216 433 216 411 240.5 c 128,-1,70
 389 265 389 265 362.5 279.5 c 128,-1,71
 336 294 336 294 311.5 303.5 c 128,-1,72
 287 313 287 313 268 318.5 c 128,-1,73
 249 324 249 324 246 325 c 0,74,75
 231 320 231 320 216 315.5 c 128,-1,76
 201 311 201 311 172 300 c 1,77,78
 191 333 191 333 191 345.5 c 128,-1,79
 191 358 191 358 187.5 364.5 c 128,-1,80
 184 371 184 371 178 376 c 128,-1,81
 172 381 172 381 169.5 387 c 128,-1,82
 167 393 167 393 173 396 c 0,83,84
 187 402 187 402 242 401 c 1,85,86
 295 417 295 417 333 455 c 0,0,1
130 597 m 1026,87,-1
EndSplineSet
Validated: 8388641
EndChar

StartChar: four
Encoding: 52 52 57
Width: 660
Flags: W
HStem: -1 56<242 354 488 605> 199 52<156 333> 212 96<553 601> 739 22G<44 144 370 403>
VStem: 44 100<403 758> 53 103<159 199 251 547> 354 123<60 204 303 578>
LayerCount: 2
Fore
SplineSet
353 204 m 1,0,1
 190 201 190 201 156 199 c 1,2,-1
 157 159 l 1,3,-1
 53 155 l 1,4,-1
 44 760 l 1,5,-1
 144 758 l 1,6,-1
 155 251 l 1,7,8
 257 260 257 260 351 276 c 1,9,-1
 348 348 l 1,10,-1
 348 382 l 1,11,12
 352 548 l 1,13,-1
 352 571 l 2,14,15
 352 669 352 669 335 725 c 0,16,17
 328 748 328 748 337 752 c 0,18,19
 354 761 354 761 386.5 761 c 128,-1,20
 419 761 419 761 438 750 c 0,21,22
 475 728 475 728 480 664 c 0,23,24
 481 648 481 648 482 631 c 1,25,-1
 473 498 l 1,26,27
 473 396 473 396 475 303 c 1,28,-1
 485 306 l 1,29,30
 525 308 525 308 575 308 c 128,-1,31
 625 308 625 308 625 299.5 c 128,-1,32
 625 291 625 291 617 285 c 0,33,34
 603 275 603 275 602.5 259 c 128,-1,35
 602 243 602 243 620 212 c 1,36,37
 525 246 525 246 477 251 c 1,38,39
 482 74 482 74 494 62 c 0,40,41
 500 55 500 55 514.5 55 c 128,-1,42
 529 55 529 55 547.5 60 c 128,-1,43
 566 65 566 65 579 68 c 128,-1,44
 592 71 592 71 592 67 c 0,45,46
 593 55 593 55 599 44 c 2,47,-1
 610 26 l 2,48,49
 615 18 615 18 614 14 c 0,50,51
 612 -1 612 -1 486 -1 c 0,52,53
 471 0 471 0 455 0 c 2,54,-1
 268 1 l 2,55,56
 245 1 245 1 242 16 c 0,57,58
 240 24 240 24 239.5 35.5 c 128,-1,59
 239 47 239 47 234.5 60 c 128,-1,60
 230 73 230 73 238 76 c 128,-1,61
 246 79 246 79 259 77 c 0,62,63
 278 75 278 75 309 67.5 c 128,-1,64
 340 60 340 60 347 60 c 128,-1,65
 354 60 354 60 354 62 c 2,66,-1
 354 142 l 2,67,68
 354 176 354 176 353 204 c 1,0,1
EndSplineSet
Validated: 8388641
EndChar

StartChar: five
Encoding: 53 53 58
Width: 580
Flags: W
HStem: -3 75<176 311> 532 234<396 486> 715 51<193 358>
VStem: 410 101<164 274> 418 69<559 678>
LayerCount: 2
Fore
SplineSet
32 183 m 258,0,-1
 73 182 l 1,1,-1
 109 182 l 2,2,3
 127 182 127 182 129 185 c 1,4,-1
 131 170 l 2,5,6
 135 128 135 128 176 93 c 0,7,8
 198 75 198 75 240 72 c 1,9,-1
 253 72 l 2,10,11
 264 72 264 72 288.5 82.5 c 128,-1,12
 313 93 313 93 338 113 c 0,13,14
 393 157 393 157 408 208 c 0,15,16
 410 214 410 214 410 227 c 128,-1,17
 410 240 410 240 393.5 266.5 c 128,-1,18
 377 293 377 293 345 323 c 0,19,20
 287 378 287 378 211 427 c 128,-1,21
 135 476 135 476 118 484 c 1,22,-1
 123 484 l 1,23,-1
 85 769 l 1,24,-1
 186 767 l 1,25,-1
 186 766 l 1,26,27
 367 766 367 766 548 766 c 1,28,29
 524 739 524 739 505 706 c 128,-1,30
 486 673 486 673 486 643.5 c 128,-1,31
 486 614 486 614 503 569 c 1,32,-1
 507 559 l 1,33,-1
 476 548 l 2,34,35
 430 532 430 532 413 532 c 128,-1,36
 396 532 396 532 396 540 c 128,-1,37
 396 548 396 548 407 578 c 128,-1,38
 418 608 418 608 418 626 c 0,39,40
 418 667 418 667 399 678 c 0,41,42
 373 694 373 694 241 713 c 0,43,44
 226 715 226 715 215 715 c 2,45,-1
 193 715 l 1,46,-1
 224 482 l 1,47,48
 227 480 227 480 255.5 466.5 c 128,-1,49
 284 453 284 453 322 430 c 0,50,51
 511 315 511 315 511 203 c 0,52,53
 511 184 511 184 500.5 165.5 c 128,-1,54
 490 147 490 147 475 121 c 0,55,56
 437 55 437 55 352 16 c 0,57,58
 309 -3 309 -3 248 -3 c 2,59,-1
 237 -3 l 1,60,61
 150 4 150 4 98 52 c 128,-1,62
 46 100 46 100 35 170 c 0,63,64
 33 183 33 183 32 183 c 258,0,-1
EndSplineSet
Validated: 8388613
EndChar

StartChar: six
Encoding: 54 54 59
Width: 563
Flags: W
HStem: -6 73<190 372> 333 71<211 380> 750 20G<301 401>
VStem: 37 95<123 263> 441 83<129 274>
LayerCount: 2
Fore
SplineSet
401 770 m 1,0,-1
 199 391 l 1,1,2
 244 403 244 403 269 403 c 2,3,4
 300 403 l 1,5,6
 388 401 388 401 454 354.5 c 128,-1,7
 520 308 520 308 524 230 c 1,8,-1
 524 209 l 2,9,10
 524 174 524 174 519 136.5 c 128,-1,11
 514 99 514 99 489 67 c 0,12,13
 436 -2 436 -2 303 -6 c 0,14,15
 297 -6 297 -6 291 -6 c 0,16,17
 219 -6 219 -6 166 17.5 c 128,-1,18
 113 41 113 41 81 81 c 0,19,20
 37 136 37 136 37 210 c 0,21,22
 37 238 37 238 44 264 c 1,23,-1
 41 264 l 1,24,-1
 48 278 l 1,25,26
 52 290 52 290 60 303 c 1,27,-1
 301 766 l 1,28,-1
 399 770 l 1,29,-1
 401 770 l 1,0,-1
278 67 m 1,30,-1
 289 67 l 2,31,32
 351 67 351 67 396 104 c 128,-1,33
 441 141 441 141 441 202 c 0,34,35
 441 230 441 230 429.5 255.5 c 128,-1,36
 418 281 418 281 400 296 c 0,37,38
 359 332 359 332 302 333 c 256,39,40
 239 333 239 333 187.5 297 c 128,-1,41
 136 261 136 261 132 208 c 1,42,-1
 132 201 l 1,43,44
 133 146 133 146 165 109 c 128,-1,45
 197 72 197 72 278 67 c 1,30,-1
EndSplineSet
Validated: 1
EndChar

StartChar: seven
Encoding: 55 55 60
Width: 521
Flags: W
HStem: -2 22G<33 134> 696 68<196 352>
LayerCount: 2
Fore
SplineSet
59 770 m 1,0,1
 286 764 286 764 331 764 c 2,2,-1
 386 764 l 1,3,-1
 387 766 l 1,4,-1
 485 770 l 1,5,-1
 488 770 l 1,6,-1
 124 -2 l 1,7,-1
 33 2 l 1,8,-1
 352 691 l 1,9,10
 344 696 344 696 331 696 c 2,11,-1
 313 696 l 2,12,13
 267 696 267 696 235 689.5 c 128,-1,14
 203 683 203 683 196 679 c 0,15,16
 179 667 179 667 178 657 c 128,-1,17
 177 647 177 647 184 637 c 128,-1,18
 191 627 191 627 201.5 615.5 c 128,-1,19
 212 604 212 604 215.5 591.5 c 128,-1,20
 219 579 219 579 203 579.5 c 128,-1,21
 187 580 187 580 166 585 c 128,-1,22
 145 590 145 590 126.5 597 c 128,-1,23
 108 604 108 604 103 605 c 1,24,25
 108 607 108 607 117 621 c 128,-1,26
 126 635 126 635 126 652 c 0,27,28
 126 695 126 695 59 770 c 1,0,1
EndSplineSet
Validated: 1
EndChar

StartChar: eight
Encoding: 56 56 61
Width: 527
Flags: W
HStem: 7 81<167 356> 384 76<183 325> 714 51<171 335>
VStem: 40 76<136 308 506 657> 387 78<498 666> 412 77<140 293>
LayerCount: 2
Fore
SplineSet
40 202 m 0,0,1
 40 377 40 377 151 429 c 1,2,3
 105 439 105 439 75 464 c 128,-1,4
 45 489 45 489 43 542 c 1,5,-1
 43 561 l 2,6,7
 43 653 43 653 81 700 c 0,8,9
 133 765 133 765 264.5 765 c 128,-1,10
 396 765 396 765 442 688 c 0,11,12
 462 654 462 654 465 609 c 1,13,-1
 465 581 l 2,14,15
 465 559 465 559 455 518 c 0,16,17
 436 443 436 443 366 426 c 1,18,19
 440 386 440 386 471 303 c 0,20,21
 488 257 488 257 488 218 c 0,22,23
 488 135 488 135 451 88 c 0,24,25
 409 34 409 34 334 14 c 0,26,27
 305 7 305 7 287 7 c 2,28,-1
 262 7 l 1,29,30
 172 9 172 9 107.5 52 c 128,-1,31
 43 95 43 95 41 172 c 0,32,33
 40 187 40 187 40 202 c 0,0,1
195 370 m 0,34,35
 141 336 141 336 123 269 c 0,36,37
 115 238 115 238 116 224 c 2,38,-1
 116 204 l 1,39,40
 119 146 119 146 157.5 117 c 128,-1,41
 196 88 196 88 258 88 c 0,42,43
 357 88 357 88 396 148 c 0,44,45
 411 172 411 172 412 201 c 0,46,47
 412 267 412 267 374 316 c 0,48,49
 328 378 328 378 254 384 c 1,50,-1
 247 384 l 2,51,52
 219 384 219 384 195 370 c 0,34,35
199 706 m 0,53,54
 145 685 145 685 125 631 c 0,55,56
 116 607 116 607 117 593 c 2,57,-1
 117 572 l 1,58,59
 119 514 119 514 158.5 487 c 128,-1,60
 198 460 198 460 258 460 c 128,-1,61
 318 460 318 460 351 484 c 128,-1,62
 384 508 384 508 387 565 c 1,63,-1
 387 577 l 2,64,65
 387 637 387 637 370 661 c 0,66,67
 336 708 336 708 261 714 c 1,68,-1
 250 714 l 2,69,70
 222 714 222 714 199 706 c 0,53,54
EndSplineSet
Validated: 8388641
EndChar

StartChar: nine
Encoding: 57 57 62
Width: 559
Flags: W
HStem: 361 69<178 349> 702 70<184 369>
VStem: 35 79<492 636> 429 94<502 642>
LayerCount: 2
Fore
SplineSet
359 374 m 1,0,1
 317 362 317 362 292 361 c 2,2,-1
 261 361 l 1,3,4
 172 363 172 363 105.5 410.5 c 128,-1,5
 39 458 39 458 35 535 c 1,6,-1
 35 568 l 2,7,8
 35 649 35 649 71 698 c 0,9,10
 122 767 122 767 257 771 c 0,11,12
 263 771 263 771 269 771 c 0,13,14
 411 769 411 769 479 683 c 0,15,16
 523 628 523 628 523 555 c 0,17,18
 523 527 523 527 516 501 c 1,19,-1
 519 501 l 1,20,-1
 511 485 l 1,21,22
 506 472 506 472 499 462 c 1,23,-1
 259 -1 l 1,24,-1
 163 -5 l 1,25,-1
 158 -5 l 1,26,-1
 359 374 l 1,0,1
282 701 m 2,27,-1
 249 702 l 2,28,29
 240 702 240 702 213 693 c 0,30,31
 155 674 155 674 126 621 c 0,32,33
 114 598 114 598 114 568 c 0,34,35
 114 509 114 509 155.5 469.5 c 128,-1,36
 197 430 197 430 258 430 c 128,-1,37
 319 430 319 430 372 466.5 c 128,-1,38
 425 503 425 503 429 557 c 1,39,-1
 429 564 l 2,40,41
 429 619 429 619 397 655 c 0,42,43
 358 701 358 701 282 701 c 2,27,-1
EndSplineSet
Validated: 1
EndChar

StartChar: less
Encoding: 60 60 63
Width: 471
Flags: W
LayerCount: 2
Fore
SplineSet
433 166 m 1,0,1
 369 113 369 113 360 113 c 0,2,3
 358 113 358 113 343.5 123 c 128,-1,4
 329 133 329 133 253 187 c 128,-1,5
 177 241 177 241 106.5 294.5 c 128,-1,6
 36 348 36 348 36 349 c 0,7,8
 36 354 36 354 88.5 390.5 c 128,-1,9
 141 427 141 427 182 455.5 c 128,-1,10
 223 484 223 484 281.5 523.5 c 128,-1,11
 340 563 340 563 349 572 c 1,12,13
 350 569 350 569 388 547 c 128,-1,14
 426 525 426 525 433 525 c 0,15,16
 434 525 434 525 423.5 518 c 128,-1,17
 413 511 413 511 395 498.5 c 128,-1,18
 377 486 377 486 353.5 471 c 128,-1,19
 330 456 330 456 289 428.5 c 128,-1,20
 248 401 248 401 173 353 c 1,21,-1
 433 166 l 1,0,1
349 572 m 1048,22,-1
EndSplineSet
Validated: 1
EndChar

StartChar: greater
Encoding: 62 62 64
Width: 470
Flags: W
LayerCount: 2
Fore
SplineSet
110 586 m 128,-1,1
 112 586 112 586 137 568 c 128,-1,2
 162 550 162 550 178.5 537.5 c 128,-1,3
 195 525 195 525 210 515 c 128,-1,4
 225 505 225 505 329 429 c 148,-1,5
 433 353 433 353 433 349.5 c 128,-1,6
 433 346 433 346 381 308.5 c 128,-1,7
 329 271 329 271 288 244 c 0,8,9
 131 137 131 137 120 125 c 1,10,11
 109 136 109 136 74.5 154.5 c 128,-1,12
 40 173 40 173 37 173 c 0,13,14
 36 173 36 173 46.5 180 c 128,-1,15
 57 187 57 187 75 199.5 c 128,-1,16
 93 212 93 212 116.5 227.5 c 128,-1,17
 140 243 140 243 181 270 c 128,-1,18
 222 297 222 297 297 345 c 1,19,-1
 37 532 l 1,20,21
 67 557 67 557 87.5 571.5 c 128,-1,0
 108 586 108 586 110 586 c 128,-1,1
EndSplineSet
Validated: 1
EndChar

StartChar: question
Encoding: 63 63 65
Width: 459
Flags: W
HStem: 3 105<119 244> 650 53<138 270>
VStem: 35 78<565 625> 110 146<15 86> 343 82<502 561>
LayerCount: 2
Fore
SplineSet
124 351 m 1,0,1
 217 406 217 406 280 461 c 128,-1,2
 343 516 343 516 343 550 c 0,3,4
 343 556 343 556 341 561 c 0,5,6
 324 597 324 597 276 625 c 0,7,8
 237 651 237 651 202 650 c 0,9,10
 200 650 200 650 198 650 c 128,-1,11
 196 650 196 650 194 650 c 0,12,13
 138 643 138 643 119 602 c 0,14,15
 112 587 112 587 113 575 c 2,16,-1
 112 563 l 1,17,18
 110 565 110 565 93.5 565 c 128,-1,19
 77 565 77 565 45 562 c 2,20,-1
 34 561 l 1,21,-1
 35 570 l 1,22,23
 35 593 35 593 47 617 c 0,24,25
 91 703 91 703 212 703 c 0,26,27
 216 703 216 703 235.5 703.5 c 128,-1,28
 255 704 255 704 289.5 693 c 128,-1,29
 324 682 324 682 350 663 c 128,-1,30
 376 644 376 644 389.5 626 c 128,-1,31
 403 608 403 608 414 595 c 128,-1,32
 425 582 425 582 424.5 567.5 c 128,-1,33
 424 553 424 553 422 537.5 c 128,-1,34
 420 522 420 522 400 496 c 0,35,36
 346 426 346 426 211 358 c 1,37,-1
 200 156 l 1,38,-1
 116 148 l 1,39,-1
 128 351 l 1,40,-1
 124 351 l 1,0,1
185 109 m 0,41,42
 230 109 230 109 247 87 c 0,43,44
 256 75 256 75 256 64 c 128,-1,45
 256 53 256 53 254 45 c 0,46,47
 241 3 241 3 194 3 c 2,48,-1
 174 3 l 2,49,50
 158 3 158 3 134 14 c 128,-1,51
 110 25 110 25 110 55 c 0,52,53
 110 62 110 62 112 70 c 0,54,55
 118 109 118 109 185 109 c 0,41,42
EndSplineSet
Validated: 8388641
EndChar

StartChar: ampersand
Encoding: 38 38 66
Width: 747
Flags: W
HStem: 1 88<164 339> 15 73<553 633> 338 97<519 554> 696 61<255 376>
VStem: 36 97<121 289> 150 70<518 661> 398 66<590 674> 554 85<254 338> 637 76<90 148>
LayerCount: 2
Fore
SplineSet
561 435 m 2,0,-1
 563 435 l 2,1,2
 564 435 564 435 566 435 c 2,3,-1
 618 397 l 1,4,5
 638 367 638 367 638.5 334 c 128,-1,6
 639 301 639 301 622 260 c 0,7,8
 586 176 586 176 528 142 c 0,9,10
 526 142 526 142 526.5 139.5 c 128,-1,11
 527 137 527 137 550.5 112.5 c 128,-1,12
 574 88 574 88 601 88 c 2,13,-1
 606 88 l 1,14,15
 636 90 636 90 637 127 c 1,16,17
 649 165 649 165 667 165 c 0,18,19
 678 164 678 164 695.5 142.5 c 128,-1,20
 713 121 713 121 713 102 c 128,-1,21
 713 83 713 83 705 70 c 0,22,23
 674 16 674 16 605 15 c 1,24,25
 582 15 582 15 535.5 41 c 128,-1,26
 489 67 489 67 479 77 c 1,27,28
 479 74 479 74 409.5 46 c 128,-1,29
 340 18 340 18 248 4 c 0,30,31
 230 1 230 1 212 1 c 0,32,33
 141 1 141 1 88.5 52 c 128,-1,34
 36 103 36 103 36 188 c 128,-1,35
 36 273 36 273 95.5 349 c 128,-1,36
 155 425 155 425 201 447 c 1,37,38
 150 547 150 547 150 602.5 c 128,-1,39
 150 658 150 658 178 684 c 0,40,41
 259 758 259 758 316 758 c 0,42,43
 356 758 356 758 404 731 c 0,44,45
 463 698 463 698 463.5 643 c 128,-1,46
 464 588 464 588 300 433 c 1,47,48
 289 433 289 433 297 412 c 128,-1,49
 305 391 305 391 375.5 296.5 c 128,-1,50
 446 202 446 202 475 201 c 0,51,52
 481 201 481 201 485 205 c 0,53,54
 546 256 546 256 553 305 c 0,55,56
 554 316 554 316 554 327 c 128,-1,57
 554 338 554 338 550 338 c 128,-1,58
 546 338 546 338 538 328 c 128,-1,59
 530 318 530 318 518 318 c 128,-1,60
 506 318 506 318 488.5 335 c 128,-1,61
 471 352 471 352 471 364.5 c 128,-1,62
 471 377 471 377 482 391.5 c 128,-1,63
 493 406 493 406 522 420.5 c 128,-1,64
 551 435 551 435 561 435 c 2,0,-1
397 138 m 1,65,-1
 390 146 l 1,66,67
 240 331 240 331 222 372 c 0,68,69
 222 372 l 0,70,71
 209 372 209 372 171 322.5 c 128,-1,72
 133 273 133 273 133 213 c 0,73,74
 133 190 133 190 137 166 c 0,75,76
 150 89 150 89 227 89 c 0,77,78
 241 89 241 89 258 92 c 0,79,80
 362 109 362 109 382.5 123.5 c 128,-1,81
 403 138 403 138 397 138 c 1,65,-1
262 477 m 1,82,83
 295 510 295 510 362 573 c 0,84,85
 398 607 398 607 398 633 c 128,-1,86
 398 659 398 659 371 677.5 c 128,-1,87
 344 696 344 696 314 696 c 128,-1,88
 284 696 284 696 251.5 670.5 c 128,-1,89
 219 645 219 645 219 599.5 c 128,-1,90
 219 554 219 554 262 477 c 1,82,83
EndSplineSet
Validated: 8388641
EndChar

StartChar: exclam
Encoding: 33 33 67
Width: 218
Flags: W
HStem: 5 105<59 171>
VStem: 35 148<17 88> 65 77<241 770>
LayerCount: 2
Fore
SplineSet
65 237 m 1,0,-1
 65 772 l 1,1,-1
 138 770 l 1,2,-1
 141 241 l 1,3,-1
 65 237 l 1,0,-1
111 111 m 0,4,5
 154 111 154 111 174 88 c 0,6,7
 183 78 183 78 183 66 c 0,8,9
 183 55 183 55 179 43 c 0,10,11
 166 5 166 5 118 5 c 2,12,-1
 111 5 l 2,13,14
 82 5 82 5 58.5 16.5 c 128,-1,15
 35 28 35 28 35 57 c 0,16,17
 35 63 35 63 36 72 c 0,18,19
 42 111 42 111 111 111 c 0,4,5
EndSplineSet
Validated: 8388609
EndChar

StartChar: slash
Encoding: 47 47 68
Width: 521
Flags: W
HStem: 0 22G<39 114> 748 20G<402 488>
LayerCount: 2
Fore
SplineSet
103 0 m 1,0,-1
 33 23 l 1,1,-1
 413 768 l 1,2,-1
 488 751 l 1,3,-1
 103 0 l 1,0,-1
EndSplineSet
Validated: 1
EndChar

StartChar: y
Encoding: 121 121 70
Width: 771
Flags: W
HStem: -300 54<125 239> 411 20G<633 731>
VStem: 36 83<-236 -173>
LayerCount: 2
Fore
SplineSet
119 -209 m 0,0,1
 119 -236 119 -236 179 -246 c 5,2,3
 279 -246 279 -246 417 29 c 5,4,5
 398 65 398 65 372 119 c 4,6,7
 314 242 314 242 285 296 c 132,-1,8
 256 350 256 350 234 378 c 5,9,10
 234 385 234 385 229.5 380.5 c 132,-1,11
 225 376 225 376 219 372.5 c 132,-1,12
 213 369 213 369 207 372.5 c 132,-1,13
 201 376 201 376 198.5 389.5 c 132,-1,14
 196 403 196 403 196 414 c 132,-1,15
 196 425 196 425 209 438 c 132,-1,16
 222 451 222 451 237.5 453.5 c 132,-1,17
 253 456 253 456 265.5 448 c 132,-1,18
 278 440 278 440 288.5 429 c 132,-1,19
 299 418 299 418 307 407 c 132,-1,20
 315 396 315 396 322 393 c 4,21,22
 350 396 350 396 356 396.5 c 128,-1,23
 362 397 362 397 364 396 c 4,24,25
 371 395 371 395 366 391 c 4,26,27
 353 381 353 381 352 368 c 4,28,29
 352 328 352 328 378 269 c 132,-1,30
 404 210 404 210 465 109 c 5,31,-1
 644 431 l 5,32,-1
 731 431 l 5,33,-1
 505 41 l 5,34,-1
 504 41 l 5,35,36
 503 37 503 37 488 8 c 4,37,38
 454 -62 454 -62 385 -156.5 c 132,-1,39
 316 -251 316 -251 228 -288 c 4,40,41
 198 -300 198 -300 171.5 -300 c 132,-1,42
 145 -300 145 -300 134 -297 c 4,43,44
 84 -284 84 -284 63 -265 c 132,-1,45
 42 -246 42 -246 39 -232 c 132,-1,46
 36 -218 36 -218 36 -209.5 c 132,-1,47
 36 -201 36 -201 41 -188.5 c 132,-1,48
 46 -176 46 -176 48 -168 c 5,49,50
 63 -169 63 -169 78.5 -169.5 c 132,-1,51
 94 -170 94 -170 108.5 -172 c 132,-1,52
 123 -174 123 -174 137 -175 c 5,53,54
 119 -194 119 -194 119 -209 c 0,0,1
EndSplineSet
Validated: 1
EndChar

StartChar: z
Encoding: 122 122 71
Width: 538
Flags: W
HStem: -1 24<150 347> 407 24<180 376>
LayerCount: 2
Fore
SplineSet
379 401 m 1,0,1
 287 406 287 406 268 407 c 0,2,3
 162 407 162 407 119 357 c 0,4,5
 115 352 115 352 108 340 c 257,6,7
 108 341 108 341 101.5 348 c 128,-1,8
 95 355 95 355 87.5 366 c 128,-1,9
 80 377 80 377 73 388.5 c 128,-1,10
 66 400 66 400 63.5 410 c 128,-1,11
 61 420 61 420 66 426 c 128,-1,12
 71 432 71 432 80 431 c 128,-1,13
 89 430 89 430 178 430 c 2,14,15
 421 430 l 1,16,-1
 497 429 l 1,17,-1
 499 429 l 1,18,-1
 150 28 l 1,19,-1
 234 23 l 1,20,-1
 250 23 l 2,21,22
 349 23 349 23 390 56 c 0,23,24
 408 71 408 71 420 90 c 257,25,26
 420 89 420 89 433 74 c 0,27,28
 470 32 470 32 472 12 c 0,29,30
 472 -1 472 -1 445 -1 c 2,31,-1
 271 -1 l 2,32,33
 197 -1 197 -1 105 0 c 1,34,-1
 37 0 l 1,35,-1
 379 401 l 1,0,1
EndSplineSet
Validated: 1
EndChar

StartChar: period
Encoding: 46 46 72
Width: 265
Flags: W
HStem: 0 143<71 195>
VStem: 48 168<18 121>
LayerCount: 2
Fore
SplineSet
88 134 m 0,0,1
 105 143 105 143 135 143 c 0,2,3
 186 143 186 143 205 106 c 0,4,5
 216 85 216 85 216 71.5 c 128,-1,6
 216 58 216 58 213 48 c 0,7,8
 195 0 195 0 144 0 c 2,9,-1
 121 0 l 2,10,11
 103 0 103 0 76.5 12.5 c 128,-1,12
 50 25 50 25 49 49 c 0,13,14
 49 55 49 55 48 60 c 0,15,16
 48 113 48 113 88 134 c 0,0,1
EndSplineSet
Validated: 1
EndChar

StartChar: colon
Encoding: 58 58 73
Width: 276
Flags: W
HStem: 0 143<66 190> 240 143<86 210>
VStem: 43 168<18 121> 63 168<258 360>
LayerCount: 2
Fore
SplineSet
104 374 m 4
 121 383 121 383 150 383 c 4
 201 383 201 383 220 346 c 4
 231 325 231 325 231 311 c 0
 231 297 231 297 228 288 c 4
 210 240 210 240 159 240 c 6
 136 240 l 6
 118 240 118 240 91 252 c 4
 64 264 64 264 64 289 c 4
 64 295 64 295 63 300 c 0
 64 353 64 353 104 374 c 4
EndSplineSet
Refer: 72 46 N 1 0 0 1 -5 0 2
Validated: 9011201
EndChar

StartChar: semicolon
Encoding: 59 59 74
Width: 267
Flags: W
HStem: -164 304 269 143<81 205>
VStem: 58 166<285 390> 107 76<-67 -10>
LayerCount: 2
Fore
SplineSet
144 413 m 4
 195 413 195 413 215 376 c 4
 224 358 224 358 224 342 c 0
 224 325 224 325 219 307 c 4
 213 289 213 289 196 280 c 4
 179 270 179 270 165 269 c 6
 145 269 l 6
 112 269 112 269 86 282 c 4
 59 294 59 294 58 318 c 4
 58 324 58 324 58 329 c 0
 58 382 58 382 98 403 c 4
 115 413 115 413 144 413 c 4
EndSplineSet
Refer: 75 44 N 1 0 0 1 -5 0 2
Validated: 9011201
EndChar

StartChar: comma
Encoding: 44 44 75
Width: 237
Flags: W
HStem: -164 304
VStem: 112 76<-67 -10>
LayerCount: 2
Fore
SplineSet
112 -19 m 5,0,1
 87 -14 87 -14 60 17 c 4,2,3
 47 33 47 33 47 56.5 c 132,-1,4
 47 80 47 80 60.5 110 c 132,-1,5
 74 140 74 140 105 140 c 6,6,-1
 106 140 l 6,7,8
 128 140 128 140 160 123 c 5,9,10
 188 89 188 89 188 49 c 132,-1,11
 188 9 188 9 173 -40 c 5,12,13
 151 -141 151 -141 60 -164 c 5,14,15
 111 -68 111 -68 112 -19 c 5,0,1
EndSplineSet
Validated: 1
EndChar

StartChar: quotedbl
Encoding: 34 34 76
Width: 491
Flags: W
HStem: 524 237
VStem: 45 183<655 728> 262 182<651 730>
LayerCount: 2
Fore
SplineSet
129 629 m 1,0,1
 114 634 114 634 94.5 640.5 c 128,-1,2
 75 647 75 647 60 660.5 c 128,-1,3
 45 674 45 674 45 692 c 0,4,5
 45 712 45 712 65 735 c 0,6,7
 88 761 88 761 136 761 c 0,8,9
 141 761 141 761 146 761 c 0,10,11
 168 764 168 764 187 748 c 0,12,13
 217 722 217 722 226 690 c 0,14,15
 228 683 228 683 228 674 c 0,16,17
 228 645 228 645 209 627 c 0,18,19
 106 529 106 529 80 528 c 0,20,21
 68 528 68 528 62 542 c 0,22,23
 56 555 56 555 56 563 c 128,-1,24
 56 571 56 571 62.5 578.5 c 128,-1,25
 69 586 69 586 81.5 591.5 c 128,-1,26
 94 597 94 597 109 604.5 c 128,-1,27
 124 612 124 612 129 629 c 1,0,1
345 625 m 1,28,29
 331 630 331 630 312 636.5 c 128,-1,30
 293 643 293 643 277.5 656.5 c 128,-1,31
 262 670 262 670 262 688 c 128,-1,32
 262 706 262 706 283 731 c 0,33,34
 300 757 300 757 353 757 c 1,35,-1
 373 756 l 1,36,37
 410 752 410 752 427 723 c 128,-1,38
 444 694 444 694 444 675 c 0,39,40
 444 673 444 673 444 670 c 0,41,42
 444 641 444 641 426 623 c 0,43,44
 331 525 331 525 297 524 c 0,45,46
 285 524 285 524 281 538 c 0,47,48
 275 552 275 552 274.5 559.5 c 128,-1,49
 274 567 274 567 279.5 574.5 c 128,-1,50
 285 582 285 582 297.5 587.5 c 128,-1,51
 310 593 310 593 325 600.5 c 128,-1,52
 340 608 340 608 345 625 c 1,28,29
EndSplineSet
Validated: 33
EndChar

StartChar: quotedblbase
Encoding: 8222 8222 77
Width: 497
Flags: W
HStem: 1 132<78 132>
VStem: 47 183<28 104> 265 183<23 99>
LayerCount: 2
Fore
SplineSet
132 1 m 1,0,1
 80 18 80 18 63.5 32 c 128,-1,2
 47 46 47 46 47 64 c 128,-1,3
 47 82 47 82 68 107.5 c 128,-1,4
 89 133 89 133 131.5 133 c 128,-1,5
 174 133 174 133 190 121 c 0,6,7
 221 98 221 98 230 61 c 0,8,9
 233 52 233 52 228.5 32 c 128,-1,10
 224 12 224 12 212 -1 c 0,11,12
 115 -99 115 -99 83 -99 c 0,13,14
 71 -99 71 -99 65.5 -86 c 128,-1,15
 60 -73 60 -73 60 -65 c 128,-1,16
 60 -57 60 -57 65.5 -50 c 128,-1,17
 71 -43 71 -43 84 -37 c 128,-1,18
 97 -31 97 -31 112 -23.5 c 128,-1,19
 127 -16 127 -16 132 1 c 1,0,1
348 -3 m 1,20,21
 334 2 334 2 314 9 c 0,22,23
 265 26 265 26 265 60 c 0,24,25
 265 77 265 77 285 103 c 0,26,27
 308 129 308 129 356 129 c 0,28,29
 428 129 428 129 446 57 c 0,30,31
 448 48 448 48 449 41 c 0,32,33
 449 16 449 16 429 -5 c 0,34,35
 332 -103 332 -103 300 -103 c 0,36,37
 288 -103 288 -103 282 -90.5 c 128,-1,38
 276 -78 276 -78 276 -69.5 c 128,-1,39
 276 -61 276 -61 282.5 -54 c 128,-1,40
 289 -47 289 -47 301.5 -41 c 128,-1,41
 314 -35 314 -35 329 -27.5 c 128,-1,42
 344 -20 344 -20 348 -3 c 1,20,21
EndSplineSet
Validated: 1
EndChar

StartChar: Adieresis
Encoding: 196 196 78
Width: 529
Flags: W
HStem: 0 1<260 264> 1 40<65 111> 154 52<214 337> 552 51<196 220> 555 34<286 352> 658 93<137 239 342 445>
VStem: 118 130<673 739> 134 46<49 145> 220 112<501 554> 296 143<4 61> 326 130<673 738>
LayerCount: 2
Fore
SplineSet
206 154 m 1,0,1
 180 96 180 96 180 75 c 128,-1,2
 180 54 180 54 186 48 c 0,3,4
 198 38 198 38 229 19.5 c 128,-1,5
 260 1 260 1 264 1 c 1,6,7
 263 0 263 0 244 0 c 2,8,-1
 197 0 l 1,9,-1
 81 1 l 2,10,11
 53 1 53 1 45 9.5 c 128,-1,12
 37 18 37 18 38 20 c 0,13,14
 39 21 39 21 39 31 c 0,15,16
 39 53 39 53 65 57 c 1,17,18
 63 50 63 50 83 44 c 0,19,20
 91 41 91 41 98.5 41 c 128,-1,21
 106 41 106 41 111 48 c 0,22,23
 121 62 121 62 127.5 95 c 128,-1,24
 134 128 134 128 134 138 c 128,-1,25
 134 148 134 148 132 152 c 1,26,27
 122 155 122 155 107.5 155 c 128,-1,28
 93 155 93 155 82 147.5 c 128,-1,29
 71 140 71 140 71 141 c 0,30,31
 66 148 66 148 66 156 c 0,32,33
 66 174 66 174 97 191 c 0,34,35
 113 200 113 200 128 205.5 c 128,-1,36
 143 211 143 211 143 210 c 2,37,-1
 148 230 l 2,38,39
 153 250 153 250 162 283 c 0,40,41
 211 474 211 474 220 548 c 0,42,43
 220 553 220 553 217 553 c 2,44,-1
 206 552 l 2,45,46
 191 552 191 552 178 566 c 1,47,48
 197 583 197 583 197 596 c 0,49,50
 197 599 197 599 196 601 c 1,51,52
 201 603 201 603 208 603 c 0,53,54
 219 603 219 603 234 597 c 0,55,56
 257 588 257 588 286 588.5 c 128,-1,57
 315 589 315 589 367 601 c 1,58,59
 385 596 385 596 385.5 579.5 c 128,-1,60
 386 563 386 563 377 547 c 1,61,62
 365 555 365 555 353 555 c 128,-1,63
 341 555 341 555 332 550 c 1,64,65
 332 495 332 495 439 61 c 0,66,67
 439 53 439 53 446.5 49.5 c 128,-1,68
 454 46 454 46 463.5 43.5 c 128,-1,69
 473 41 473 41 480.5 38 c 128,-1,70
 488 35 488 35 489 27 c 128,-1,71
 490 19 490 19 484.5 12 c 128,-1,72
 479 5 479 5 479 3 c 128,-1,73
 479 1 479 1 423 1 c 2,74,-1
 302 1 l 2,75,76
 297 1 297 1 296 4 c 0,77,78
 296 9 296 9 325.5 31 c 128,-1,79
 355 53 355 53 360 63 c 128,-1,80
 365 73 365 73 365 96 c 128,-1,81
 365 119 365 119 348 154 c 1,82,-1
 206 154 l 1,0,1
214 206 m 1,83,-1
 337 207 l 1,84,85
 320 290 320 290 311 335.5 c 128,-1,86
 302 381 302 381 297 407 c 128,-1,87
 292 433 292 433 287.5 453 c 128,-1,88
 283 473 283 473 281 485 c 2,89,-1
 278 498 l 257,90,-1
 275 485 l 2,91,92
 266 446 266 446 259 412.5 c 128,-1,93
 252 379 252 379 241.5 333.5 c 128,-1,94
 231 288 231 288 214 206 c 1,83,-1
342 668 m 1,95,96
 326 686 326 686 326 706 c 128,-1,97
 326 726 326 726 348.5 739 c 128,-1,98
 371 752 371 752 397 752 c 128,-1,99
 423 752 423 752 439 737 c 128,-1,100
 455 722 455 722 455 705 c 0,101,102
 455 701 455 701 454 696 c 0,103,104
 451 676 451 676 410 664 c 0,105,106
 393 659 393 659 375 659 c 128,-1,107
 357 659 357 659 342 668 c 1,95,96
137 668 m 1,108,109
 119 686 119 686 118.5 706.5 c 128,-1,110
 118 727 118 727 141.5 739.5 c 128,-1,111
 165 752 165 752 190.5 752 c 128,-1,112
 216 752 216 752 232.5 737 c 128,-1,113
 249 722 249 722 249 706 c 2,114,-1
 249 696 l 1,115,116
 245 676 245 676 204 664 c 0,117,118
 187 659 187 659 169.5 659 c 128,-1,119
 152 659 152 659 137 668 c 1,108,109
EndSplineSet
Validated: 8388641
EndChar

StartChar: Odieresis
Encoding: 214 214 79
Width: 513
Flags: W
HStem: 6 38<205 320> 546 52<185 324> 658 93<108 210 314 416>
VStem: 40 62<176 433> 92 128<672 738> 299 128<672 738> 406 61<160 447>
LayerCount: 2
Fore
SplineSet
108 668 m 1,0,1
 93 686 93 686 92.5 706 c 128,-1,2
 92 726 92 726 115 739 c 128,-1,3
 138 752 138 752 163.5 752 c 128,-1,4
 189 752 189 752 204.5 736.5 c 128,-1,5
 220 721 220 721 220 703 c 2,6,-1
 220 696 l 1,7,8
 217 676 217 676 176 664 c 0,9,10
 159 659 159 659 141.5 659 c 128,-1,11
 124 659 124 659 108 668 c 1,0,1
314 668 m 1,12,13
 299 686 299 686 299 706 c 128,-1,14
 299 726 299 726 321.5 739 c 128,-1,15
 344 752 344 752 368.5 752 c 128,-1,16
 393 752 393 752 410 736.5 c 128,-1,17
 427 721 427 721 426.5 710.5 c 128,-1,18
 426 700 426 700 426 696 c 0,19,20
 422 676 422 676 383 664 c 0,21,22
 366 659 366 659 348 659 c 128,-1,23
 330 659 330 659 314 668 c 1,12,13
443 475 m 0,24,25
 466 420 466 420 467 352 c 1,26,-1
 467 328 l 2,27,28
 467 273 467 273 458 217 c 0,29,30
 441 112 441 112 392 59 c 128,-1,31
 343 6 343 6 273 6 c 0,32,33
 269 6 269 6 264 6 c 0,34,35
 173 8 173 8 108 73 c 128,-1,36
 43 138 43 138 41 250 c 0,37,38
 40 275 40 275 40 298 c 0,39,40
 40 424 40 424 75 494 c 0,41,42
 128 598 128 598 260 598 c 128,-1,43
 392 598 392 598 443 475 c 0,24,25
261 546 m 0,44,45
 256 546 256 546 251 546 c 0,46,47
 183 546 183 546 142 473.5 c 128,-1,48
 101 401 101 401 101 308 c 0,49,50
 101 199 101 199 150 121.5 c 128,-1,51
 199 44 199 44 263 44 c 256,52,53
 325 44 325 44 365.5 116 c 128,-1,54
 406 188 406 188 406 305 c 0,55,56
 406 458 406 458 334 517 c 0,57,58
 305 541 305 541 261 546 c 0,44,45
EndSplineSet
Validated: 8388641
EndChar

StartChar: Aring
Encoding: 197 197 80
Width: 529
Flags: W
HStem: 0 1<260 264> 1 40<65 111> 154 52<214 337> 552 51<196 220> 555 34<286 352> 636 18<260 311> 734 24<252 316>
VStem: 134 46<49 145> 208 35<663 722> 220 112<501 554> 296 143<4 61> 325 33<662 724>
LayerCount: 2
Fore
SplineSet
206 154 m 1,0,1
 180 96 180 96 180 75 c 128,-1,2
 180 54 180 54 186 48 c 0,3,4
 198 38 198 38 229 19.5 c 128,-1,5
 260 1 260 1 264 1 c 1,6,7
 263 0 263 0 244 0 c 2,8,-1
 197 0 l 1,9,-1
 81 1 l 2,10,11
 53 1 53 1 45 9.5 c 128,-1,12
 37 18 37 18 38 20 c 0,13,14
 39 21 39 21 39 31 c 0,15,16
 39 53 39 53 65 57 c 1,17,18
 63 50 63 50 83 44 c 0,19,20
 91 41 91 41 98.5 41 c 128,-1,21
 106 41 106 41 111 48 c 0,22,23
 121 62 121 62 127.5 95 c 128,-1,24
 134 128 134 128 134 138 c 128,-1,25
 134 148 134 148 132 152 c 1,26,27
 122 155 122 155 107.5 155 c 128,-1,28
 93 155 93 155 82 147.5 c 128,-1,29
 71 140 71 140 71 141 c 0,30,31
 66 148 66 148 66 156 c 0,32,33
 66 174 66 174 97 191 c 0,34,35
 113 200 113 200 128 205.5 c 128,-1,36
 143 211 143 211 143 210 c 2,37,-1
 148 230 l 2,38,39
 153 250 153 250 162 283 c 0,40,41
 211 474 211 474 220 548 c 0,42,43
 220 553 220 553 217 553 c 2,44,-1
 206 552 l 2,45,46
 191 552 191 552 178 566 c 1,47,48
 197 583 197 583 197 596 c 0,49,50
 197 599 197 599 196 601 c 1,51,52
 201 603 201 603 208 603 c 0,53,54
 219 603 219 603 234 597 c 0,55,56
 257 588 257 588 286 588.5 c 128,-1,57
 315 589 315 589 367 601 c 1,58,59
 385 596 385 596 385.5 579.5 c 128,-1,60
 386 563 386 563 377 547 c 1,61,62
 365 555 365 555 353 555 c 128,-1,63
 341 555 341 555 332 550 c 1,64,65
 332 495 332 495 439 61 c 0,66,67
 439 53 439 53 446.5 49.5 c 128,-1,68
 454 46 454 46 463.5 43.5 c 128,-1,69
 473 41 473 41 480.5 38 c 128,-1,70
 488 35 488 35 489 27 c 128,-1,71
 490 19 490 19 484.5 12 c 128,-1,72
 479 5 479 5 479 3 c 128,-1,73
 479 1 479 1 423 1 c 2,74,-1
 302 1 l 2,75,76
 297 1 297 1 296 4 c 0,77,78
 296 9 296 9 325.5 31 c 128,-1,79
 355 53 355 53 360 63 c 128,-1,80
 365 73 365 73 365 96 c 128,-1,81
 365 119 365 119 348 154 c 1,82,-1
 206 154 l 1,0,1
214 206 m 1,83,-1
 337 207 l 1,84,85
 320 290 320 290 311 335.5 c 128,-1,86
 302 381 302 381 297 407 c 128,-1,87
 292 433 292 433 287.5 453 c 128,-1,88
 283 473 283 473 281 485 c 2,89,-1
 278 498 l 257,90,-1
 275 485 l 2,91,92
 266 446 266 446 259 412.5 c 128,-1,93
 252 379 252 379 241.5 333.5 c 128,-1,94
 231 288 231 288 214 206 c 1,83,-1
298 636 m 2,95,-1
 287 636 l 2,96,97
 257 636 257 636 233 649 c 128,-1,98
 209 662 209 662 209 686 c 0,99,100
 209 692 209 692 208.5 707 c 128,-1,101
 208 722 208 722 219 734 c 128,-1,102
 230 746 230 746 246 752 c 128,-1,103
 262 758 262 758 286 758 c 0,104,105
 330 758 330 758 348 732 c 0,106,107
 357 718 357 718 357.5 705.5 c 128,-1,108
 358 693 358 693 355 684 c 0,109,110
 340 636 340 636 298 636 c 2,95,-1
285 734 m 1,111,-1
 280 734 l 1,112,113
 263 733 263 733 251.5 722 c 128,-1,114
 240 711 240 711 243 694 c 0,115,116
 243 679 243 679 256 666.5 c 128,-1,117
 269 654 269 654 286 654 c 256,118,119
 303 654 303 654 313 666 c 128,-1,120
 323 678 323 678 325 692 c 0,121,122
 325 708 325 708 317.5 720 c 128,-1,123
 310 732 310 732 285 734 c 1,111,-1
EndSplineSet
Validated: 8388641
EndChar

StartChar: quotesinglbase
Encoding: 8218 8218 81
Width: 210
Flags: W
HStem: -65 144<74 75>
VStem: 51 109<9 57>
LayerCount: 2
Fore
SplineSet
96 -2 m 1,0,1
 86 2 86 2 63 14 c 0,2,3
 51 21 51 21 51 33 c 128,-1,4
 51 45 51 45 59 57 c 0,5,6
 74 80 74 80 111 80 c 0,7,8
 123 80 123 80 135 79 c 1,9,10
 160 52 160 52 160 29 c 128,-1,11
 160 6 160 6 151 -3 c 0,12,13
 75 -64 75 -64 56 -65 c 0,14,15
 52 -65 52 -65 50 -61 c 1,16,17
 93 -13 93 -13 96 -2 c 1,0,1
EndSplineSet
Validated: 1
EndChar

StartChar: Udieresis
Encoding: 220 220 82
Width: 490
Flags: W
HStem: -1 62<171 290> 656 93<85 187 291 394>
VStem: 43 85<112 474> 69 128<670 736> 275 129<671 737> 352 73<155 573>
LayerCount: 2
Fore
SplineSet
231 61 m 1,0,1
 352 64 352 64 352 310 c 2,2,-1
 352 330 l 1,3,4
 350 406 350 406 342.5 477 c 128,-1,5
 335 548 335 548 333 569.5 c 128,-1,6
 331 591 331 591 336 590 c 1,7,-1
 418 590 l 2,8,9
 424 590 424 590 424.5 397 c 128,-1,10
 425 204 425 204 416 79 c 1,11,-1
 416 76 l 1,12,13
 446 49 446 49 448 35 c 0,14,15
 448 31 448 31 446 22 c 2,16,-1
 441 2 l 1,17,-1
 440 -1 l 1,18,-1
 343 -1 l 2,19,20
 333 -1 333 -1 333 11 c 128,-1,21
 333 23 333 23 336 36 c 1,22,23
 314 25 314 25 283.5 12 c 128,-1,24
 253 -1 253 -1 204 -1 c 0,25,26
 42 -1 42 -1 43 257 c 1,27,28
 47 406 47 406 75 523 c 1,29,30
 61 515 61 515 56 516 c 0,31,32
 44 519 44 519 41 536 c 0,33,34
 40 543 40 543 40 550 c 0,35,36
 40 567 40 567 49 577 c 0,37,38
 61 590 61 590 76 593.5 c 128,-1,39
 91 597 91 597 102.5 589.5 c 128,-1,40
 114 582 114 582 124 571 c 128,-1,41
 134 560 134 560 141.5 550.5 c 128,-1,42
 149 541 149 541 154 538 c 0,43,44
 169 539 169 539 188 539 c 128,-1,45
 207 539 207 539 194 535 c 0,46,47
 171 530 171 530 149 487 c 1,48,49
 147 454 147 454 137 382.5 c 128,-1,50
 127 311 127 311 127 272 c 2,51,-1
 128 226 l 1,52,53
 128 64 128 64 231 61 c 1,0,1
290 666 m 1,54,55
 275 684 275 684 275 704 c 128,-1,56
 275 724 275 724 297.5 737 c 128,-1,57
 320 750 320 750 346 750 c 128,-1,58
 372 750 372 750 388.5 735 c 128,-1,59
 405 720 405 720 404.5 709 c 128,-1,60
 404 698 404 698 404 694 c 0,61,62
 400 674 400 674 359 662 c 0,63,64
 342 657 342 657 324 657 c 128,-1,65
 306 657 306 657 290 666 c 1,54,55
85 666 m 1,66,67
 70 684 70 684 69.5 704 c 128,-1,68
 69 724 69 724 92 737 c 128,-1,69
 115 750 115 750 140.5 750 c 128,-1,70
 166 750 166 750 181.5 734.5 c 128,-1,71
 197 719 197 719 197 701 c 2,72,-1
 197 694 l 1,73,74
 195 674 195 674 154 662 c 0,75,76
 137 657 137 657 119 657 c 128,-1,77
 101 657 101 657 85 666 c 1,66,67
EndSplineSet
Validated: 8388641
EndChar

StartChar: quotedblleft
Encoding: 8220 8220 83
Width: 492
Flags: W
HStem: 517 237
VStem: 45 183<551 628> 262 183<546 625>
LayerCount: 2
Fore
SplineSet
361 649 m 1,0,1
 375 644 375 644 396 637 c 0,2,3
 445 621 445 621 445 586 c 0,4,5
 445 569 445 569 432 551 c 0,6,7
 405 517 405 517 353 517 c 1,8,-1
 334 518 l 1,9,10
 298 522 298 522 280 552 c 128,-1,11
 262 582 262 582 262 598 c 128,-1,12
 262 614 262 614 265 626.5 c 128,-1,13
 268 639 268 639 282 651 c 0,14,15
 379 749 379 749 411 750 c 0,16,17
 423 750 423 750 429 736 c 0,18,19
 433 723 433 723 433 715 c 128,-1,20
 433 707 433 707 427.5 699.5 c 128,-1,21
 422 692 422 692 409 686 c 128,-1,22
 396 680 396 680 381 673 c 128,-1,23
 366 666 366 666 361 649 c 1,0,1
145 653 m 1,24,25
 159 648 159 648 179 641.5 c 128,-1,26
 199 635 199 635 213.5 622.5 c 128,-1,27
 228 610 228 610 228 592 c 128,-1,28
 228 574 228 574 215 556 c 0,29,30
 189 522 189 522 137 521 c 0,31,32
 133 521 133 521 129 521 c 0,33,34
 105 521 105 521 87 535 c 0,35,36
 57 554 57 554 47 592 c 0,37,38
 45 600 45 600 45 609 c 0,39,40
 45 637 45 637 63 655 c 0,41,42
 161 753 161 753 194 754 c 0,43,44
 206 754 206 754 212 740 c 0,45,46
 216 728 216 728 216 720 c 128,-1,47
 216 712 216 712 211 704 c 128,-1,48
 206 696 206 696 192.5 690 c 128,-1,49
 179 684 179 684 164 677 c 128,-1,50
 149 670 149 670 145 653 c 1,24,25
EndSplineSet
Validated: 1
EndChar

StartChar: quoteleft
Encoding: 8216 8216 84
Width: 274
Flags: W
HStem: 521 233<162 188>
VStem: 45 183<551 628>
LayerCount: 2
Fore
SplineSet
145 653 m 1,0,1
 159 648 159 648 179 641.5 c 128,-1,2
 199 635 199 635 213.5 622.5 c 128,-1,3
 228 610 228 610 228 592 c 128,-1,4
 228 574 228 574 215 556 c 0,5,6
 189 522 189 522 137 521 c 0,7,8
 133 521 133 521 129 521 c 0,9,10
 105 521 105 521 87 535 c 0,11,12
 57 554 57 554 47 592 c 0,13,14
 45 600 45 600 45 609 c 0,15,16
 45 637 45 637 63 655 c 0,17,18
 161 753 161 753 194 754 c 0,19,20
 206 754 206 754 212 740 c 0,21,22
 216 728 216 728 216 720 c 128,-1,23
 216 712 216 712 211 704 c 128,-1,24
 206 696 206 696 192.5 690 c 128,-1,25
 179 684 179 684 164 677 c 128,-1,26
 149 670 149 670 145 653 c 1,0,1
EndSplineSet
Validated: 1
EndChar

StartChar: quoteright
Encoding: 8217 8217 85
Width: 275
Flags: W
HStem: 609 132<75 129>
VStem: 45 182<637 712>
LayerCount: 2
Fore
SplineSet
129 609 m 1,0,1
 77 626 77 626 61 640.5 c 128,-1,2
 45 655 45 655 45 673 c 128,-1,3
 45 691 45 691 65 716 c 0,4,5
 88 742 88 742 129 741.5 c 128,-1,6
 170 741 170 741 186 730 c 0,7,8
 218 707 218 707 227 670 c 0,9,10
 230 659 230 659 226 640 c 128,-1,11
 222 621 222 621 209 607 c 0,12,13
 115 509 115 509 80 509 c 0,14,15
 68 509 68 509 62 522 c 0,16,17
 56 535 56 535 56 543 c 128,-1,18
 56 551 56 551 62.5 558 c 128,-1,19
 69 565 69 565 81.5 571.5 c 128,-1,20
 94 578 94 578 109 585 c 128,-1,21
 124 592 124 592 129 609 c 1,0,1
EndSplineSet
Validated: 33
EndChar

StartChar: quotedblright
Encoding: 8221 8221 86
Width: 491
Flags: W
HStem: 524 237
VStem: 45 183<655 731> 262 183<651 729>
LayerCount: 2
Fore
SplineSet
129 629 m 1,0,1
 114 634 114 634 94.5 640.5 c 128,-1,2
 75 647 75 647 60 660.5 c 128,-1,3
 45 674 45 674 45 692.5 c 128,-1,4
 45 711 45 711 65 735 c 0,5,6
 88 761 88 761 136 761 c 0,7,8
 141 762 141 762 146 761 c 0,9,10
 171 761 171 761 187 748 c 0,11,12
 216 728 216 728 226 690 c 0,13,14
 228 683 228 683 228 674 c 0,15,16
 228 644 228 644 209 627 c 0,17,18
 115 529 115 529 80 528 c 0,19,20
 68 528 68 528 62 542 c 0,21,22
 56 555 56 555 56 563 c 128,-1,23
 56 571 56 571 62.5 578.5 c 128,-1,24
 69 586 69 586 81.5 591.5 c 128,-1,25
 94 597 94 597 109 604.5 c 128,-1,26
 124 612 124 612 129 629 c 1,0,1
345 625 m 1,27,28
 331 630 331 630 312 636.5 c 128,-1,29
 293 643 293 643 277.5 656.5 c 128,-1,30
 262 670 262 670 262 688 c 128,-1,31
 262 706 262 706 283 731 c 0,32,33
 300 757 300 757 353 757 c 1,34,-1
 373 756 l 1,35,36
 408 752 408 752 426.5 723 c 128,-1,37
 445 694 445 694 445 675 c 0,38,39
 445 672 445 672 444 670 c 0,40,41
 444 641 444 641 426 623 c 0,42,43
 331 525 331 525 297 524 c 0,44,45
 285 524 285 524 281 538 c 0,46,47
 275 552 275 552 274.5 559.5 c 128,-1,48
 274 567 274 567 279.5 574.5 c 128,-1,49
 285 582 285 582 297.5 587.5 c 128,-1,50
 310 593 310 593 325 600.5 c 128,-1,51
 340 608 340 608 345 625 c 1,27,28
EndSplineSet
Validated: 1
EndChar

StartChar: bullet
Encoding: 8226 8226 87
Width: 395
Flags: W
HStem: 162 218<112 292>
VStem: 47 300<201 322>
LayerCount: 2
Fore
SplineSet
83 182 m 1,0,1
 47 225 47 225 47 271 c 128,-1,2
 47 317 47 317 73 335 c 0,3,4
 139 380 139 380 206 380 c 0,5,6
 225 380 225 380 294 361 c 1,7,8
 347 305 347 305 347 260 c 0,9,10
 347 254 347 254 347 248 c 0,11,12
 339 199 339 199 307 178 c 1,13,14
 232 162 232 162 175 162 c 128,-1,15
 118 162 118 162 83 182 c 1,0,1
EndSplineSet
Validated: 1
EndChar

StartChar: periodcentered
Encoding: 183 183 88
Width: 288
Flags: W
HStem: 200 137<67 216>
VStem: 47 192<222 318>
LayerCount: 2
Fore
SplineSet
147 337 m 0,0,1
 204 337 204 337 227 308 c 0,2,3
 239 293 239 293 239 279 c 128,-1,4
 239 265 239 265 236 254 c 0,5,6
 218 199 218 199 157 200 c 0,7,8
 153 200 153 200 149 200 c 0,9,10
 110 200 110 200 78.5 215 c 128,-1,11
 47 230 47 230 47 266 c 0,12,13
 47 276 47 276 49 287 c 0,14,15
 60 337 60 337 147 337 c 0,0,1
EndSplineSet
Validated: 33
EndChar

StartChar: exclamdown
Encoding: 161 161 89
Width: 227
Flags: W
HStem: 372 105<48 170>
VStem: 39 147<394 465> 81 76<-288 242>
LayerCount: 2
Fore
SplineSet
156 246 m 1,0,-1
 156 -290 l 1,1,-1
 81 -288 l 1,2,-1
 78 242 l 1,3,-1
 156 246 l 1,0,-1
110 372 m 256,4,5
 64 372 64 372 47 394 c 0,6,7
 39 405 39 405 39 416.5 c 128,-1,8
 39 428 39 428 43 443.5 c 128,-1,9
 47 459 47 459 64 468 c 128,-1,10
 81 477 81 477 93 477 c 2,11,-1
 110 477 l 2,12,13
 158 477 158 477 178 453 c 0,14,15
 186 443 186 443 186 433 c 0,16,17
 186 402 186 402 170.5 387 c 128,-1,18
 155 372 155 372 110 372 c 256,4,5
EndSplineSet
Validated: 8388609
EndChar

StartChar: ellipsis
Encoding: 8230 8230 90
Width: 661
Flags: W
HStem: 1 105<75 186 268 392 474 600>
VStem: 50 148<13 84> 257 147<12 83> 464 146<13 85>
LayerCount: 2
Fore
SplineSet
127 106 m 0,0,1
 172 106 172 106 189 84 c 0,2,3
 197 73 197 73 197.5 61.5 c 128,-1,4
 198 50 198 50 194 39 c 0,5,6
 182 1 182 1 135 1 c 2,7,-1
 127 1 l 2,8,9
 98 1 98 1 74 12 c 128,-1,10
 50 23 50 23 50 51 c 0,11,12
 50 59 50 59 52 68 c 0,13,14
 61 106 61 106 127 106 c 0,0,1
395 83 m 0,15,16
 403 72 403 72 403.5 60.5 c 128,-1,17
 404 49 404 49 400 38 c 0,18,19
 387 0 387 0 339 0 c 2,20,-1
 332 0 l 2,21,22
 303 0 303 0 281 11 c 128,-1,23
 259 22 259 22 256.5 38.5 c 128,-1,24
 254 55 254 55 257 67 c 128,-1,25
 260 79 260 79 268 87 c 0,26,27
 286 105 286 105 332 105 c 128,-1,28
 378 105 378 105 395 83 c 0,15,16
540 2 m 2,29,30
 464 2 464 2 464 54 c 0,31,32
 464 61 464 61 465 69 c 0,33,34
 472 107 472 107 539 108 c 0,35,36
 584 108 584 108 601 86 c 0,37,38
 610 75 610 75 610 62 c 0,39,40
 610 2 610 2 547 2 c 2,41,-1
 540 2 l 2,29,30
EndSplineSet
Validated: 1
EndChar

StartChar: oslash
Encoding: 248 248 91
Width: 506
Flags: W
HStem: 0 49<220 320> 367 60<174 284>
VStem: 39 77<127 301> 380 81<120 310>
LayerCount: 2
Fore
SplineSet
261 427 m 0,0,1
 289 427 289 427 312 421 c 1,2,-1
 332 462 l 1,3,-1
 408 443 l 1,4,-1
 384 394 l 1,5,6
 436 359 436 359 454 291 c 0,7,8
 461 263 461 263 461 246 c 2,9,-1
 461 225 l 1,10,11
 457 100 457 100 382 39 c 0,12,13
 334 0 334 0 267 0 c 2,14,15
 244 0 l 2,16,17
 226 0 226 0 198 6 c 1,18,-1
 180 -31 l 1,19,-1
 112 -7 l 1,20,-1
 130 33 l 1,21,22
 44 83 44 83 40 179 c 0,23,24
 39 197 39 197 39 213 c 0,25,26
 39 302 39 302 74 353 c 0,27,28
 125 427 125 427 261 427 c 0,0,1
284 361 m 1,29,30
 266 366 266 366 241 367 c 0,31,32
 187 367 187 367 151.5 322 c 128,-1,33
 116 277 116 277 116 210 c 0,34,35
 118 143 118 143 160 95 c 1,36,-1
 284 361 l 1,29,30
220 53 m 1,37,38
 233 49 233 49 258 49 c 0,39,40
 307 49 307 49 341 93.5 c 128,-1,41
 375 138 375 138 380 203 c 1,42,-1
 380 218 l 2,43,44
 380 244 380 244 375 271 c 128,-1,45
 370 298 370 298 349 322 c 1,46,-1
 220 53 l 1,37,38
EndSplineSet
Validated: 1
EndChar

StartChar: degree
Encoding: 176 176 92
Width: 308
Flags: W
HStem: 537 28<118 196> 680 33<111 199>
VStem: 46 49<578 670> 214 47<581 660>
LayerCount: 2
Fore
SplineSet
170 537 m 2,0,-1
 150 537 l 2,1,2
 115 537 115 537 81.5 556.5 c 128,-1,3
 48 576 48 576 46 609 c 1,4,-1
 46 618 l 1,5,6
 49 661 49 661 62.5 678.5 c 128,-1,7
 76 696 76 696 99 704.5 c 128,-1,8
 122 713 122 713 158 713 c 128,-1,9
 194 713 194 713 215 702 c 0,10,11
 256 683 256 683 260 640 c 1,12,-1
 260 631 l 2,13,14
 260 575 260 575 221 551 c 0,15,16
 199 537 199 537 170 537 c 2,0,-1
99 644 m 0,17,18
 95 633 95 633 95 616 c 128,-1,19
 95 599 95 599 113 581.5 c 128,-1,20
 131 564 131 564 158 564 c 256,21,22
 185 564 185 564 199.5 580.5 c 128,-1,23
 214 597 214 597 214 619.5 c 128,-1,24
 214 642 214 642 202 660 c 0,25,26
 189 680 189 680 151 680 c 128,-1,27
 113 680 113 680 99 644 c 0,17,18
EndSplineSet
Validated: 1
EndChar

StartChar: quotesingle
Encoding: 39 39 93
Width: 275
Flags: W
HStem: 609 132<75 129>
VStem: 45 182<637 712>
LayerCount: 2
Fore
SplineSet
129 609 m 1,0,1
 77 626 77 626 61 640.5 c 128,-1,2
 45 655 45 655 45 673 c 128,-1,3
 45 691 45 691 65 716 c 0,4,5
 88 742 88 742 129 741.5 c 128,-1,6
 170 741 170 741 186 730 c 0,7,8
 218 707 218 707 227 670 c 0,9,10
 230 659 230 659 226 640 c 128,-1,11
 222 621 222 621 209 607 c 0,12,13
 115 509 115 509 80 509 c 0,14,15
 68 509 68 509 62 522 c 0,16,17
 56 535 56 535 56 543 c 128,-1,18
 56 551 56 551 62.5 558 c 128,-1,19
 69 565 69 565 81.5 571.5 c 128,-1,20
 94 578 94 578 109 585 c 128,-1,21
 124 592 124 592 129 609 c 1,0,1
EndSplineSet
Validated: 33
EndChar

StartChar: backslash
Encoding: 92 92 94
Width: 570
Flags: W
HStem: 6 22G<453 519> 741 20G<35 114>
LayerCount: 2
Fore
SplineSet
32 740 m 1,0,-1
 101 762 l 1,1,-1
 536 33 l 1,2,-1
 465 6 l 1,3,-1
 32 740 l 1,0,-1
EndSplineSet
Validated: 1
EndChar

StartChar: hyphen
Encoding: 45 45 95
Width: 480
Flags: W
HStem: 189 109<54 343> 197 111<137 426>
LayerCount: 2
Fore
SplineSet
429 197 m 1,0,-1
 48 189 l 1,1,-1
 54 298 l 1,2,-1
 426 307 l 1,3,-1
 429 197 l 1,0,-1
EndSplineSet
Validated: 8388609
EndChar

StartChar: endash
Encoding: 8211 8211 96
Width: 477
Flags: W
HStem: 189 85<51 340> 197 87<134 423>
LayerCount: 2
Fore
SplineSet
428 197 m 1,0,-1
 47 189 l 1,1,-1
 51 274 l 1,2,-1
 423 284 l 1,3,-1
 428 197 l 1,0,-1
EndSplineSet
Validated: 8388609
EndChar

StartChar: emdash
Encoding: 8212 8212 97
Width: 906
Flags: W
HStem: 218 56<51 673> 225 58<229 851>
LayerCount: 2
Fore
SplineSet
856 225 m 1,0,-1
 47 218 l 1,1,-1
 51 274 l 1,2,-1
 851 284 l 1,3,-1
 856 225 l 1,0,-1
EndSplineSet
Validated: 8388609
EndChar

StartChar: minus
Encoding: 8722 8722 98
Width: 478
Flags: W
HStem: 218 56<51 340> 225 58<134 423>
LayerCount: 2
Fore
SplineSet
428 225 m 1,0,-1
 47 218 l 1,1,-1
 51 274 l 1,2,-1
 423 284 l 1,3,-1
 428 225 l 1,0,-1
EndSplineSet
Validated: 8388609
EndChar

StartChar: plus
Encoding: 43 43 99
Width: 502
Flags: W
HStem: 302 71<39 68> 317 96<405 451>
VStem: 185 88<537 581> 212 93<135 179>
LayerCount: 2
Fore
SplineSet
212 129 m 1,0,-1
 188 294 l 1,1,-1
 38 302 l 1,2,-1
 39 373 l 1,3,-1
 178 408 l 1,4,-1
 185 582 l 1,5,-1
 273 581 l 1,6,-1
 301 414 l 1,7,-1
 451 414 l 1,8,-1
 464 317 l 1,9,-1
 312 299 l 1,10,-1
 305 135 l 1,11,-1
 212 129 l 1,0,-1
EndSplineSet
Validated: 8388609
EndChar

StartChar: fraction
Encoding: 8260 8260 100
Width: 521
Flags: W
HStem: 0 22G<39 114> 748 20G<402 488>
LayerCount: 2
Fore
SplineSet
103 0 m 1,0,-1
 33 23 l 1,1,-1
 413 768 l 1,2,-1
 488 751 l 1,3,-1
 103 0 l 1,0,-1
EndSplineSet
Validated: 1
EndChar

StartChar: Agrave
Encoding: 192 192 101
Width: 529
Flags: W
HStem: 0 1<260 264> 1 40<65 111> 154 52<214 337> 552 51<196 220> 555 34<286 352> 678 73<216 303>
VStem: 134 46<49 145> 220 112<501 554> 296 143<4 61>
LayerCount: 2
Fore
SplineSet
206 154 m 1,0,1
 180 96 180 96 180 75 c 128,-1,2
 180 54 180 54 186 48 c 0,3,4
 198 38 198 38 229 19.5 c 128,-1,5
 260 1 260 1 264 1 c 1,6,7
 263 0 263 0 244 0 c 2,8,-1
 197 0 l 1,9,-1
 81 1 l 2,10,11
 53 1 53 1 45 9.5 c 128,-1,12
 37 18 37 18 38 20 c 0,13,14
 39 21 39 21 39 31 c 0,15,16
 39 53 39 53 65 57 c 1,17,18
 63 50 63 50 83 44 c 0,19,20
 91 41 91 41 98.5 41 c 128,-1,21
 106 41 106 41 111 48 c 0,22,23
 121 62 121 62 127.5 95 c 128,-1,24
 134 128 134 128 134 138 c 128,-1,25
 134 148 134 148 132 152 c 1,26,27
 122 155 122 155 107.5 155 c 128,-1,28
 93 155 93 155 82 147.5 c 128,-1,29
 71 140 71 140 71 141 c 0,30,31
 66 148 66 148 66 156 c 0,32,33
 66 174 66 174 97 191 c 0,34,35
 113 200 113 200 128 205.5 c 128,-1,36
 143 211 143 211 143 210 c 2,37,-1
 148 230 l 2,38,39
 153 250 153 250 162 283 c 0,40,41
 211 474 211 474 220 548 c 0,42,43
 220 553 220 553 217 553 c 2,44,-1
 206 552 l 2,45,46
 191 552 191 552 178 566 c 1,47,48
 197 583 197 583 197 596 c 0,49,50
 197 599 197 599 196 601 c 1,51,52
 201 603 201 603 208 603 c 0,53,54
 219 603 219 603 234 597 c 0,55,56
 257 588 257 588 286 588.5 c 128,-1,57
 315 589 315 589 367 601 c 1,58,59
 385 596 385 596 385.5 579.5 c 128,-1,60
 386 563 386 563 377 547 c 1,61,62
 365 555 365 555 353 555 c 128,-1,63
 341 555 341 555 332 550 c 1,64,65
 332 495 332 495 439 61 c 0,66,67
 439 53 439 53 446.5 49.5 c 128,-1,68
 454 46 454 46 463.5 43.5 c 128,-1,69
 473 41 473 41 480.5 38 c 128,-1,70
 488 35 488 35 489 27 c 128,-1,71
 490 19 490 19 484.5 12 c 128,-1,72
 479 5 479 5 479 3 c 128,-1,73
 479 1 479 1 423 1 c 2,74,-1
 302 1 l 2,75,76
 297 1 297 1 296 4 c 0,77,78
 296 9 296 9 325.5 31 c 128,-1,79
 355 53 355 53 360 63 c 128,-1,80
 365 73 365 73 365 96 c 128,-1,81
 365 119 365 119 348 154 c 1,82,-1
 206 154 l 1,0,1
214 206 m 1,83,-1
 337 207 l 1,84,85
 320 290 320 290 311 335.5 c 128,-1,86
 302 381 302 381 297 407 c 128,-1,87
 292 433 292 433 287.5 453 c 128,-1,88
 283 473 283 473 281 485 c 2,89,-1
 278 498 l 257,90,-1
 275 485 l 2,91,92
 266 446 266 446 259 412.5 c 128,-1,93
 252 379 252 379 241.5 333.5 c 128,-1,94
 231 288 231 288 214 206 c 1,83,-1
305 701 m 1,95,96
 275 677 275 677 250.5 677.5 c 128,-1,97
 226 678 226 678 190 695 c 0,98,99
 189 696 189 696 189 697 c 0,100,101
 189 706 189 706 215.5 728.5 c 128,-1,102
 242 751 242 751 264.5 751 c 128,-1,103
 287 751 287 751 317 729 c 0,104,105
 383 680 383 680 383 655 c 0,106,107
 383 645 383 645 368 645 c 0,108,109
 366 645 366 645 364 645 c 1,110,111
 319 693 319 693 305 701 c 1,95,96
EndSplineSet
Validated: 8388641
EndChar

StartChar: Aacute
Encoding: 193 193 102
Width: 529
Flags: W
HStem: 0 1<260 264> 1 40<65 111> 154 52<214 337> 552 51<196 220> 555 34<286 352> 675 73<275 365>
VStem: 134 46<49 145> 220 112<501 554> 296 143<4 61>
LayerCount: 2
Fore
SplineSet
206 154 m 1,0,1
 180 96 180 96 180 75 c 128,-1,2
 180 54 180 54 186 48 c 0,3,4
 198 38 198 38 229 19.5 c 128,-1,5
 260 1 260 1 264 1 c 1,6,7
 263 0 263 0 244 0 c 2,8,-1
 197 0 l 1,9,-1
 81 1 l 2,10,11
 53 1 53 1 45 9.5 c 128,-1,12
 37 18 37 18 38 20 c 0,13,14
 39 21 39 21 39 31 c 0,15,16
 39 53 39 53 65 57 c 1,17,18
 63 50 63 50 83 44 c 0,19,20
 91 41 91 41 98.5 41 c 128,-1,21
 106 41 106 41 111 48 c 0,22,23
 121 62 121 62 127.5 95 c 128,-1,24
 134 128 134 128 134 138 c 128,-1,25
 134 148 134 148 132 152 c 1,26,27
 122 155 122 155 107.5 155 c 128,-1,28
 93 155 93 155 82 147.5 c 128,-1,29
 71 140 71 140 71 141 c 0,30,31
 66 148 66 148 66 156 c 0,32,33
 66 174 66 174 97 191 c 0,34,35
 113 200 113 200 128 205.5 c 128,-1,36
 143 211 143 211 143 210 c 2,37,-1
 148 230 l 2,38,39
 153 250 153 250 162 283 c 0,40,41
 211 474 211 474 220 548 c 0,42,43
 220 553 220 553 217 553 c 2,44,-1
 206 552 l 2,45,46
 191 552 191 552 178 566 c 1,47,48
 197 583 197 583 197 596 c 0,49,50
 197 599 197 599 196 601 c 1,51,52
 201 603 201 603 208 603 c 0,53,54
 219 603 219 603 234 597 c 0,55,56
 257 588 257 588 286 588.5 c 128,-1,57
 315 589 315 589 367 601 c 1,58,59
 385 596 385 596 385.5 579.5 c 128,-1,60
 386 563 386 563 377 547 c 1,61,62
 365 555 365 555 353 555 c 128,-1,63
 341 555 341 555 332 550 c 1,64,65
 332 495 332 495 439 61 c 0,66,67
 439 53 439 53 446.5 49.5 c 128,-1,68
 454 46 454 46 463.5 43.5 c 128,-1,69
 473 41 473 41 480.5 38 c 128,-1,70
 488 35 488 35 489 27 c 128,-1,71
 490 19 490 19 484.5 12 c 128,-1,72
 479 5 479 5 479 3 c 128,-1,73
 479 1 479 1 423 1 c 2,74,-1
 302 1 l 2,75,76
 297 1 297 1 296 4 c 0,77,78
 296 9 296 9 325.5 31 c 128,-1,79
 355 53 355 53 360 63 c 128,-1,80
 365 73 365 73 365 96 c 128,-1,81
 365 119 365 119 348 154 c 1,82,-1
 206 154 l 1,0,1
214 206 m 1,83,-1
 337 207 l 1,84,85
 320 290 320 290 311 335.5 c 128,-1,86
 302 381 302 381 297 407 c 128,-1,87
 292 433 292 433 287.5 453 c 128,-1,88
 283 473 283 473 281 485 c 2,89,-1
 278 498 l 257,90,-1
 275 485 l 2,91,92
 266 446 266 446 259 412.5 c 128,-1,93
 252 379 252 379 241.5 333.5 c 128,-1,94
 231 288 231 288 214 206 c 1,83,-1
274 698 m 1,95,96
 261 690 261 690 213 641 c 1,97,98
 211 641 211 641 209 641 c 0,99,100
 194 641 194 641 193 651 c 0,101,102
 193 679 193 679 261 727 c 0,103,104
 291 749 291 749 314.5 749 c 128,-1,105
 338 749 338 749 357 733 c 0,106,107
 392 704 392 704 392 695 c 0,108,109
 392 693 392 693 391 692 c 0,110,111
 356 675 356 675 337.5 675 c 128,-1,112
 319 675 319 675 300 683.5 c 128,-1,113
 281 692 281 692 274 698 c 1,95,96
EndSplineSet
Validated: 8388641
EndChar

StartChar: Acircumflex
Encoding: 194 194 103
Width: 529
Flags: W
HStem: 0 1<260 264> 1 40<65 111> 154 52<214 337> 552 51<196 220> 555 34<286 352>
VStem: 134 46<49 145> 220 112<501 554> 296 143<4 61>
LayerCount: 2
Fore
SplineSet
206 154 m 1,0,1
 180 96 180 96 180 75 c 128,-1,2
 180 54 180 54 186 48 c 0,3,4
 198 38 198 38 229 19.5 c 128,-1,5
 260 1 260 1 264 1 c 1,6,7
 263 0 263 0 244 0 c 2,8,-1
 197 0 l 1,9,-1
 81 1 l 2,10,11
 53 1 53 1 45 9.5 c 128,-1,12
 37 18 37 18 38 20 c 0,13,14
 39 21 39 21 39 31 c 0,15,16
 39 53 39 53 65 57 c 1,17,18
 63 50 63 50 83 44 c 0,19,20
 91 41 91 41 98.5 41 c 128,-1,21
 106 41 106 41 111 48 c 0,22,23
 121 62 121 62 127.5 95 c 128,-1,24
 134 128 134 128 134 138 c 128,-1,25
 134 148 134 148 132 152 c 1,26,27
 122 155 122 155 107.5 155 c 128,-1,28
 93 155 93 155 82 147.5 c 128,-1,29
 71 140 71 140 71 141 c 0,30,31
 66 148 66 148 66 156 c 0,32,33
 66 174 66 174 97 191 c 0,34,35
 113 200 113 200 128 205.5 c 128,-1,36
 143 211 143 211 143 210 c 2,37,-1
 148 230 l 2,38,39
 153 250 153 250 162 283 c 0,40,41
 211 474 211 474 220 548 c 0,42,43
 220 553 220 553 217 553 c 2,44,-1
 206 552 l 2,45,46
 191 552 191 552 178 566 c 1,47,48
 197 583 197 583 197 596 c 0,49,50
 197 599 197 599 196 601 c 1,51,52
 201 603 201 603 208 603 c 0,53,54
 219 603 219 603 234 597 c 0,55,56
 257 588 257 588 286 588.5 c 128,-1,57
 315 589 315 589 367 601 c 1,58,59
 385 596 385 596 385.5 579.5 c 128,-1,60
 386 563 386 563 377 547 c 1,61,62
 365 555 365 555 353 555 c 128,-1,63
 341 555 341 555 332 550 c 1,64,65
 332 495 332 495 439 61 c 0,66,67
 439 53 439 53 446.5 49.5 c 128,-1,68
 454 46 454 46 463.5 43.5 c 128,-1,69
 473 41 473 41 480.5 38 c 128,-1,70
 488 35 488 35 489 27 c 128,-1,71
 490 19 490 19 484.5 12 c 128,-1,72
 479 5 479 5 479 3 c 128,-1,73
 479 1 479 1 423 1 c 2,74,-1
 302 1 l 2,75,76
 297 1 297 1 296 4 c 0,77,78
 296 9 296 9 325.5 31 c 128,-1,79
 355 53 355 53 360 63 c 128,-1,80
 365 73 365 73 365 96 c 128,-1,81
 365 119 365 119 348 154 c 1,82,-1
 206 154 l 1,0,1
214 206 m 1,83,-1
 337 207 l 1,84,85
 320 290 320 290 311 335.5 c 128,-1,86
 302 381 302 381 297 407 c 128,-1,87
 292 433 292 433 287.5 453 c 128,-1,88
 283 473 283 473 281 485 c 2,89,-1
 278 498 l 257,90,-1
 275 485 l 2,91,92
 266 446 266 446 259 412.5 c 128,-1,93
 252 379 252 379 241.5 333.5 c 128,-1,94
 231 288 231 288 214 206 c 1,83,-1
377 684 m 1,95,96
 348 650 348 650 348 646 c 256,97,98
 345.5 646 l 0,99,100
 343 646 343 646 306 673 c 0,101,102
 288 684 288 684 265 700 c 1,103,-1
 178 646 l 1,104,105
 143 677 143 677 143 681 c 1,106,-1
 152 688 l 2,107,108
 160 694 160 694 173.5 703.5 c 128,-1,109
 187 713 187 713 203 724 c 128,-1,110
 219 735 219 735 241 750.5 c 128,-1,111
 263 766 263 766 263 767 c 256,112,113
 263 769 263 769 319 726.5 c 128,-1,114
 375 684 375 684 377 684 c 1,95,96
EndSplineSet
Validated: 8912929
EndChar

StartChar: adieresis
Encoding: 228 228 104
Width: 510
Flags: W
HStem: 4 57<159 276> 372 58<168 307>
VStem: 37 100<95 153> 331 69<150 199 251 306 306 348> 341 61<99 199> 345 118<4 60>
LayerCount: 2
Fore
SplineSet
330 257 m 2,0,-1
 331 283 l 2,1,2
 331 291 331 291 327 308 c 0,3,4
 313 372 313 372 250 372 c 128,-1,5
 187 372 187 372 88 304 c 0,6,7
 78 297 78 297 78 298 c 256,8,9
 78 299 78 299 70 305 c 128,-1,10
 62 311 62 311 57 321 c 0,11,12
 52 330 52 330 51 338 c 0,13,14
 51 387 51 387 234 425 c 0,15,16
 261 430 261 430 278 430 c 128,-1,17
 295 430 295 430 315.5 426.5 c 128,-1,18
 336 423 336 423 355 409.5 c 128,-1,19
 374 396 374 396 386.5 371.5 c 128,-1,20
 399 347 399 347 399 317 c 2,21,-1
 399 306 l 1,22,23
 398 306 398 306 398.5 290 c 128,-1,24
 399 274 399 274 399 250 c 2,25,-1
 402 82 l 1,26,27
 406 79 406 79 417 73 c 0,28,29
 466 47 466 47 469 33 c 1,30,-1
 463 4 l 1,31,-1
 357 4 l 2,32,33
 341 4 341 4 345 25.5 c 128,-1,34
 349 47 349 47 358 63 c 1,35,36
 239 4 239 4 185.5 4 c 128,-1,37
 132 4 132 4 96.5 31 c 128,-1,38
 61 58 61 58 42 94 c 0,39,40
 37 104 37 104 37 116 c 128,-1,41
 37 128 37 128 49.5 145 c 128,-1,42
 62 162 62 162 94 179.5 c 128,-1,43
 126 197 126 197 166.5 211 c 128,-1,44
 207 225 207 225 243.5 235 c 128,-1,45
 280 245 280 245 304.5 250.5 c 128,-1,46
 329 256 329 256 330 257 c 2,0,-1
341 117 m 258,47,-1
 335 199 l 257,48,49
 296 199 296 199 251 187.5 c 128,-1,50
 206 176 206 176 184 166 c 0,51,52
 137 145 137 145 137 116 c 0,53,54
 137 113 137 113 138 109 c 1,55,56
 164 64 164 64 215 61 c 1,57,-1
 228 61 l 2,58,59
 253 61 253 61 286 80 c 0,60,61
 341 112 341 112 341 117 c 258,47,-1
111 647 m 1,62,-1
 182 593 l 1,63,-1
 113 544 l 1,64,-1
 51 593 l 1,65,-1
 111 647 l 1,62,-1
338 647 m 1,66,-1
 410 593 l 1,67,-1
 340 544 l 1,68,-1
 279 593 l 1,69,-1
 338 647 l 1,66,-1
EndSplineSet
Validated: 8388609
EndChar

StartChar: odieresis
Encoding: 246 246 105
Width: 506
Flags: W
HStem: 0 68<186 319> 374 57<176 325>
VStem: 39 77<146 311> 381 79<137 318>
LayerCount: 2
Fore
SplineSet
258 431 m 0,0,1
 329 431 329 431 372 408 c 0,2,3
 456 362 456 362 460 264 c 1,4,5
 460 230 l 2,6,7
 460 207 460 207 451 172 c 128,-1,8
 442 137 442 137 425 105 c 0,9,10
 365 0 365 0 262 0 c 2,11,-1
 257 0 l 1,12,13
 171 2 171 2 106.5 59 c 128,-1,14
 42 116 42 116 40 195 c 0,15,16
 39 211 39 211 39 226 c 0,17,18
 39 312 39 312 74 360 c 0,19,20
 126 431 126 431 258 431 c 0,0,1
381 233 m 0,21,22
 381 320 381 320 315 358 c 0,23,24
 287 374 287 374 251 374 c 0,25,26
 188 374 188 374 152 331.5 c 128,-1,27
 116 289 116 289 116 224 c 0,28,29
 118 165 118 165 158 116.5 c 128,-1,30
 198 68 198 68 253.5 68 c 128,-1,31
 309 68 309 68 345 115.5 c 128,-1,32
 381 163 381 163 381 233 c 0,21,22
112 647 m 1,33,-1
 183 593 l 1,34,-1
 114 544 l 1,35,-1
 52 593 l 1,36,-1
 112 647 l 1,33,-1
339 647 m 1,37,-1
 411 593 l 1,38,-1
 341 544 l 1,39,-1
 280 593 l 1,40,-1
 339 647 l 1,37,-1
EndSplineSet
Validated: 1
EndChar

StartChar: bar
Encoding: 124 124 106
Width: 177
Flags: W
VStem: 46 75<141 637> 56 76<-142 354>
LayerCount: 2
Fore
SplineSet
56 -146 m 1,0,-1
 46 639 l 1,1,-1
 121 637 l 1,2,-1
 132 -142 l 1,3,-1
 56 -146 l 1,0,-1
EndSplineSet
Validated: 8388609
EndChar

StartChar: Ydieresis
Encoding: 376 376 107
Width: 533
Flags: W
HStem: -1 57<148 238> -1 49<345 412> -1 39<325 416> 658 93<121 222 327 428>
VStem: 104 129<673 738> 238 80<45 267> 309 130<673 738>
LayerCount: 2
Fore
SplineSet
495 593 m 1,0,1
 487 573 487 573 486 566 c 0,2,3
 485 558 485 558 462 551.5 c 128,-1,4
 439 545 439 545 437 534 c 0,5,6
 407 462 407 462 390 417.5 c 128,-1,7
 373 373 373 373 362 346 c 0,8,9
 332 272 332 272 318 223 c 1,10,11
 318 59 318 59 329 44 c 0,12,13
 335 38 335 38 344.5 38 c 128,-1,14
 354 38 354 38 369.5 41.5 c 128,-1,15
 385 45 385 45 395 47.5 c 128,-1,16
 405 50 405 50 405 47 c 0,17,18
 406 35 406 35 414.5 21 c 128,-1,19
 423 7 423 7 423 3 c 128,-1,20
 423 -1 423 -1 411 -1 c 2,21,-1
 224 -1 l 2,22,23
 158 -1 158 -1 154.5 1.5 c 128,-1,24
 151 4 151 4 150 9.5 c 128,-1,25
 149 15 149 15 148.5 24 c 128,-1,26
 148 33 148 33 143.5 44.5 c 128,-1,27
 139 56 139 56 153.5 55.5 c 128,-1,28
 168 55 168 55 186.5 51.5 c 128,-1,29
 205 48 205 48 221.5 44 c 128,-1,30
 238 40 238 40 238 44 c 0,31,32
 238 137 238 137 236 167 c 128,-1,33
 234 197 234 197 233 221 c 1,34,35
 209 282 209 282 194 327 c 0,36,37
 139 484 139 484 109 551 c 0,38,39
 105 559 105 559 87 551 c 128,-1,40
 69 543 69 543 61.5 537 c 128,-1,41
 54 531 54 531 49 536 c 0,42,43
 36 545 36 545 36 574 c 0,44,45
 34 576 34 576 51 584.5 c 128,-1,46
 68 593 68 593 95 593 c 2,47,-1
 277 593 l 1,48,49
 262 588 262 588 236 571.5 c 128,-1,50
 210 555 210 555 203.5 549 c 128,-1,51
 197 543 197 543 200 524 c 128,-1,52
 203 505 203 505 210.5 479 c 128,-1,53
 218 453 218 453 229.5 423.5 c 128,-1,54
 241 394 241 394 251 368 c 128,-1,55
 261 342 261 342 269 322.5 c 128,-1,56
 277 303 277 303 278 297 c 1,57,58
 279 309 279 309 292 340 c 0,59,60
 342 459 342 459 341 506 c 0,61,62
 341 532 341 532 329.5 548 c 128,-1,63
 318 564 318 564 313 572 c 0,64,65
 300 592 300 592 317 593 c 2,66,-1
 495 593 l 1,0,1
327 668 m 1,67,68
 310 686 310 686 309.5 706 c 128,-1,69
 309 726 309 726 333 739 c 128,-1,70
 357 752 357 752 381.5 752 c 128,-1,71
 406 752 406 752 423 736.5 c 128,-1,72
 440 721 440 721 440 705 c 0,73,74
 440 678 440 678 395 664 c 0,75,76
 379 659 379 659 361 659 c 128,-1,77
 343 659 343 659 327 668 c 1,67,68
120 668 m 1,78,79
 104 686 104 686 104 706 c 128,-1,80
 104 726 104 726 128 739 c 128,-1,81
 152 752 152 752 175.5 752 c 128,-1,82
 199 752 199 752 216 737 c 128,-1,83
 233 722 233 722 233 703 c 0,84,85
 232 700 232 700 232 696 c 0,86,87
 228 676 228 676 188 664 c 0,88,89
 171 659 171 659 153 659 c 128,-1,90
 135 659 135 659 120 668 c 1,78,79
EndSplineSet
Validated: 8388641
EndChar

StartChar: dollar
Encoding: 36 36 108
Width: 517
Flags: W
VStem: 75 71<535 650> 244 59<-56 8 476 700 771 870> 269 55<-125 -56> 383 71<133 271>
LayerCount: 2
Fore
SplineSet
92.5 524.5 m 128,-1,1
 75 556 75 556 75 592 c 0,2,3
 75 627 75 627 81 654.5 c 128,-1,4
 87 682 87 682 108 709 c 0,5,6
 153 767 153 767 246 773 c 1,7,8
 248 803 248 803 252 830 c 0,9,10
 255 848 255 848 266.5 870 c 128,-1,11
 278 892 278 892 286 892 c 0,12,13
 297 892 297 892 301 862 c 0,14,15
 303 849 303 849 305 809 c 0,16,17
 306 792 306 792 304 768 c 1,18,19
 396 746 396 746 429 690 c 0,20,21
 449 655 449 655 450 596 c 1,22,23
 450 599 450 599 484 571 c 1,24,25
 468 571 468 571 441.5 561 c 128,-1,26
 415 551 415 551 400 551 c 0,27,28
 361 551 361 551 356 599 c 0,29,30
 349 673 349 673 303 700 c 1,31,-1
 303 437 l 1,32,33
 401 378 401 378 419 334 c 0,34,35
 449 256 449 256 452 222 c 0,36,37
 455 186 455 186 455 182 c 2,38,-1
 455 142 l 1,39,40
 451 68 451 68 391 30 c 0,41,42
 361 11 361 11 309 7 c 1,43,44
 311 -23 311 -23 316 -29 c 0,45,46
 322 -36 322 -36 325 -74 c 0,47,48
 326 -93 326 -93 314 -113 c 0,49,50
 305 -129 305 -129 296 -130 c 0,51,52
 288 -131 288 -131 283 -125 c 0,53,54
 277 -118 277 -118 269 -88 c 0,55,56
 262 -60 262 -60 248 -56 c 0,57,58
 244 -55 244 -55 240 8 c 1,59,60
 185 13 185 13 156 27 c 0,61,62
 97 55 97 55 76 96 c 0,63,64
 70 108 70 108 70 119 c 0,65,66
 70 130 70 130 74 147.5 c 128,-1,67
 78 165 78 165 78 178 c 0,68,69
 78 190 78 190 76 197 c 1,70,71
 34 229 34 229 34 234 c 0,72,73
 34 241 34 241 69.5 251.5 c 128,-1,74
 105 262 105 262 123 262 c 0,75,76
 139 262 139 262 142 250 c 0,77,78
 176 129 176 129 193 106 c 0,79,80
 211 80 211 80 238 73 c 1,81,-1
 238 209 l 1,82,83
 239 286 239 286 239 367 c 2,84,-1
 239 380 l 1,85,86
 160 439 160 439 135 466 c 128,-1,0
 110 493 110 493 92.5 524.5 c 128,-1,1
240 476 m 1,87,88
 242 517 242 517 244 668 c 1,89,-1
 244 708 l 1,90,91
 202 698 202 698 172 656 c 0,92,93
 145 619 145 619 145 590 c 0,94,95
 146 555 146 555 175 528 c 0,96,97
 205 500 205 500 240 476 c 1,87,88
303 331 m 1,98,99
 303 273 303 273 307 106 c 1,100,-1
 307 81 l 1,101,102
 353 103 353 103 373 158 c 0,103,104
 383 186 383 186 383 208.5 c 128,-1,105
 383 231 383 231 368 259.5 c 128,-1,106
 353 288 353 288 303 331 c 1,98,99
EndSplineSet
Validated: 8388641
EndChar

StartChar: hungarumlaut
Encoding: 733 733 109
Width: 492
Flags: W
HStem: 527 60<156 215 377 431> 738 20G<134 163 355 373>
VStem: 45 184<655 729> 263 182<659 734>
LayerCount: 2
Fore
SplineSet
361 632 m 1,0,1
 366 615 366 615 381.5 607.5 c 128,-1,2
 397 600 397 600 415 591.5 c 128,-1,3
 433 583 433 583 433 570 c 0,4,5
 433 531 433 531 412 531 c 0,6,7
 377 531 377 531 283 630 c 0,8,9
 264 651 264 651 263.5 676.5 c 128,-1,10
 263 702 263 702 275 721 c 0,11,12
 299 758 299 758 334 762 c 0,13,14
 347 763 347 763 364.5 763 c 128,-1,15
 382 763 382 763 400 755.5 c 128,-1,16
 418 748 418 748 425 738 c 0,17,18
 445 712 445 712 445 694 c 128,-1,19
 445 676 445 676 428 662.5 c 128,-1,20
 411 649 411 649 361 632 c 1,0,1
146 628 m 1,21,22
 150 611 150 611 164.5 603.5 c 128,-1,23
 179 596 179 596 196.5 587.5 c 128,-1,24
 214 579 214 579 217 563 c 0,25,26
 217 554 217 554 211.5 540.5 c 128,-1,27
 206 527 206 527 194 527 c 0,28,29
 160 527 160 527 65 626 c 0,30,31
 46 645 46 645 45.5 669.5 c 128,-1,32
 45 694 45 694 58 715 c 0,33,34
 82 753 82 753 118 758 c 0,35,36
 129 759 129 759 139 759 c 0,37,38
 187 759 187 759 209 734 c 0,39,40
 229 708 229 708 229 690 c 128,-1,41
 229 672 229 672 212.5 659 c 128,-1,42
 196 646 196 646 146 628 c 1,21,22
EndSplineSet
Validated: 33
EndChar

StartChar: dotaccent
Encoding: 729 729 110
Width: 283
Flags: W
HStem: 616 135<89 208> 616 124<89 208>
VStem: 47 186<644 723>
LayerCount: 2
Fore
SplineSet
146 616 m 1,0,-1
 124 616 l 2,1,2
 108 616 108 616 88 626 c 1,3,4
 47 660 47 660 47 687 c 0,5,6
 47 718 47 718 99 740 c 0,7,8
 125 751 125 751 151 751 c 1,9,-1
 166 750 l 1,10,11
 198 746 198 746 220 715 c 0,12,13
 233 698 233 698 233 677 c 128,-1,14
 233 656 233 656 203 634 c 0,15,16
 179 618 179 618 146 616 c 1,0,-1
EndSplineSet
Validated: 8388609
EndChar

StartChar: ring
Encoding: 730 730 111
Width: 477
Flags: W
HStem: 481 68<181 320> 695 68<182 322>
VStem: 44 106<580 666> 350 80<574 667>
LayerCount: 2
Fore
SplineSet
194 561 m 0,0,1
 217 549 217 549 250 549 c 2,2,3
 255 549 l 1,4,5
 292 550 292 550 321 567 c 1,6,7
 351 591 351 591 350.5 623 c 128,-1,8
 350 655 350 655 310 681 c 0,9,10
 289 695 289 695 272 695 c 0,11,12
 219 695 219 695 173 668 c 1,13,14
 150 649 150 649 150 628 c 128,-1,15
 150 607 150 607 164.5 589 c 128,-1,16
 179 571 179 571 194 561 c 0,0,1
229 481 m 0,17,18
 172 481 172 481 131 502 c 1,19,20
 68 551 68 551 49 603 c 0,21,22
 44 616 44 616 44 630 c 0,23,24
 44 698 44 698 152 739 c 0,25,26
 214 762 214 762 265 762.5 c 128,-1,27
 316 763 316 763 351 739.5 c 128,-1,28
 386 716 386 716 408 684 c 128,-1,29
 430 652 430 652 430 624 c 0,30,31
 430 561 430 561 373 521 c 128,-1,32
 316 481 316 481 229 481 c 0,17,18
EndSplineSet
Validated: 33
EndChar

StartChar: cent
Encoding: 162 162 112
Width: 463
Flags: W
HStem: 360 40<160 213 290 366>
VStem: 44 65<131 311> 213 76<-68 4 63 359 400 470>
LayerCount: 2
Fore
SplineSet
44 214 m 2,0,1
 44 380 44 380 213 400 c 1,2,-1
 213 480 l 1,3,-1
 289 470 l 1,4,-1
 289 401 l 1,5,6
 348 397 348 397 403 380 c 0,7,8
 417 375 417 375 418 364 c 0,9,10
 418 349 418 349 394 330 c 1,11,12
 345 352 345 352 290 359 c 1,13,-1
 292 63 l 1,14,15
 329 72 329 72 394 115 c 1,16,17
 408 115 408 115 412 106.5 c 128,-1,18
 416 98 416 98 421 90 c 256,19,20
 423 87 423 87 423 84 c 0,21,22
 423 70 423 70 385 46 c 128,-1,23
 347 22 347 22 292 10 c 1,24,-1
 293 -71 l 1,25,-1
 215 -68 l 1,26,-1
 214 4 l 1,27,28
 102 8 102 8 61 110 c 0,29,30
 46 147 46 147 44 201 c 1,31,-1
 44 214 l 2,0,1
110 197 m 1,32,33
 124 129 124 129 152.5 98 c 128,-1,34
 181 67 181 67 214 58 c 1,35,-1
 213 360 l 1,36,37
 133 349 133 349 114 269 c 0,38,39
 109 249 109 249 109 229.5 c 128,-1,40
 109 210 109 210 110 197 c 1,32,33
EndSplineSet
Validated: 1
EndChar

StartChar: Euro
Encoding: 8364 8364 113
Width: 580
Flags: W
HStem: 2 68<264 381> 241 56<39 105 199 286> 248 58<199 313> 367 56<39 101 184 285> 374 58<184 313> 689 71<270 374>
VStem: 105 76<304 368 427 531> 108 91<169 243> 436 82<135 343> 438 90<460 595>
LayerCount: 2
Fore
SplineSet
314 70 m 0,0,1
 436 70 436 70 436 265 c 0,2,3
 436 295 436 295 433.5 315.5 c 128,-1,4
 431 336 431 336 432 337 c 256,5,6
 438 343 438 343 487.5 347 c 128,-1,7
 537 351 537 351 542 351 c 0,8,-1
 547 351 l 256,9,10
 547 350 547 350 541 344 c 0,11,12
 516 314 516 314 516 279 c 1,13,-1
 519 233 l 1,14,15
 518 229 518 229 518 214 c 128,-1,16
 518 199 518 199 513 169 c 0,17,18
 485 21 485 21 374 4 c 0,19,20
 353 2 353 2 324.5 2 c 128,-1,21
 296 2 296 2 255 13 c 0,22,23
 179 33 179 33 142 103 c 0,24,25
 115 152 115 152 108 243 c 1,26,-1
 37 241 l 1,27,-1
 39 297 l 1,28,-1
 105 299 l 1,29,-1
 105 336 l 2,30,31
 105 353 105 353 104 368 c 1,32,-1
 37 367 l 1,33,-1
 39 423 l 1,34,-1
 101 425 l 1,35,36
 101 431 101 431 101 437 c 128,-1,37
 101 443 101 443 101 465 c 0,38,39
 101 557 101 557 135 630 c 0,40,41
 186 741 186 741 302 759 c 0,42,43
 311 760 311 760 341 760 c 128,-1,44
 371 760 371 760 411 740 c 128,-1,45
 451 720 451 720 473 700 c 1,46,47
 507 660 507 660 524 506 c 0,48,49
 528 471 528 471 528 463 c 128,-1,50
 528 455 528 455 527 455 c 2,51,-1
 509 455 l 1,52,53
 503 454 503 454 493 453.5 c 128,-1,54
 483 453 483 453 473.5 444.5 c 128,-1,55
 464 436 464 436 456.5 426 c 128,-1,56
 449 416 449 416 444 408 c 128,-1,57
 439 400 439 400 438 401 c 256,58,59
 437 402 437 402 429.5 407.5 c 128,-1,60
 422 413 422 413 406 424 c 128,-1,61
 390 435 390 435 390 436.5 c 128,-1,62
 390 438 390 438 399 447 c 0,63,64
 438 486 438 486 438 513 c 0,65,66
 438 517 438 517 434.5 529.5 c 128,-1,67
 431 542 431 542 422 573 c 0,68,69
 402 646 402 646 364 676 c 0,70,71
 347 689 347 689 331.5 689 c 128,-1,72
 316 689 316 689 310 688 c 0,73,74
 258 681 258 681 222 589 c 0,75,76
 195 521 195 521 184 427 c 1,77,-1
 313 432 l 1,78,-1
 316 374 l 1,79,-1
 181 370 l 1,80,81
 182 351 182 351 188 302 c 1,82,-1
 313 306 l 1,83,-1
 316 248 l 1,84,-1
 199 245 l 1,85,86
 216 165 216 165 245 117.5 c 128,-1,87
 274 70 274 70 310 70 c 0,88,89
 312 70 312 70 314 70 c 0,0,1
EndSplineSet
Validated: 8388609
EndChar

StartChar: Eth
Encoding: 208 208 114
Width: 556
Flags: W
HStem: 0 70<56 125> 343 56<40 119 202 288> 350 58<202 313> 702 57<196 266>
VStem: 118 83<60 345 404 694> 125 86<57 345> 447 63<231 499>
LayerCount: 2
Fore
SplineSet
118 535 m 1,0,-1
 118 602 l 2,1,2
 118 637 118 637 117 696 c 0,3,4
 117 703 117 703 112.5 698.5 c 128,-1,5
 108 694 108 694 100.5 690.5 c 128,-1,6
 93 687 93 687 86 690.5 c 128,-1,7
 79 694 79 694 76.5 708 c 128,-1,8
 74 722 74 722 74 732.5 c 128,-1,9
 74 743 74 743 88.5 756 c 128,-1,10
 103 769 103 769 117 771 c 128,-1,11
 131 773 131 773 145 773 c 128,-1,12
 159 773 159 773 185 760 c 1,13,14
 253 760 253 760 299 742.5 c 128,-1,15
 345 725 345 725 381.5 699 c 128,-1,16
 418 673 418 673 446 629 c 0,17,18
 511 530 511 530 511 357.5 c 128,-1,19
 511 185 511 185 430 91 c 0,20,21
 373 25 373 25 280 5 c 0,22,23
 276 3 276 3 271 3 c 2,24,-1
 227 -1 l 2,25,26
 219 -1 219 -1 208.5 -1 c 128,-1,27
 198 -1 198 -1 185 -1 c 2,28,-1
 129 0 l 1,29,-1
 76 0 l 2,30,31
 60 0 60 0 56 9 c 128,-1,32
 52 18 52 18 50 29 c 2,33,-1
 45 54 l 2,34,35
 43 69 43 69 55.5 69.5 c 128,-1,36
 68 70 68 70 83 64 c 128,-1,37
 98 58 98 58 111.5 53 c 128,-1,38
 125 48 125 48 125 54 c 0,39,40
 125 171 125 171 122.5 242.5 c 128,-1,41
 120 314 120 314 120 345 c 1,42,-1
 38 343 l 1,43,-1
 40 399 l 1,44,-1
 119 401 l 1,45,46
 118 443 118 443 118 478 c 2,47,-1
 118 535 l 1,0,-1
211 57 m 1,48,49
 312 79 312 79 379.5 155 c 128,-1,50
 447 231 447 231 447 365 c 128,-1,51
 447 499 447 499 376 593 c 0,52,53
 332 651 332 651 264 681 c 0,54,55
 217 702 217 702 196 702 c 1,56,57
 199 647 199 647 199 591 c 128,-1,58
 199 535 199 535 201 483 c 1,59,-1
 201 404 l 1,60,-1
 313 409 l 1,61,-1
 318 350 l 1,62,-1
 202 347 l 1,63,-1
 202 313 l 2,64,65
 202 290 202 290 204.5 222 c 128,-1,66
 207 154 207 154 208 123.5 c 128,-1,67
 209 93 209 93 210 84 c 2,68,-1
 211 57 l 1,48,49
EndSplineSet
Validated: 8388609
EndChar

StartChar: Ograve
Encoding: 210 210 115
Width: 513
Flags: W
HStem: 6 38<205 320> 546 52<185 324> 678 73<185 274>
VStem: 40 62<176 433> 406 61<160 447>
LayerCount: 2
Fore
SplineSet
276 701 m 1,0,1
 242 677 242 677 218.5 677.5 c 128,-1,2
 195 678 195 678 161 695 c 0,3,4
 160 696 160 696 160 698 c 0,5,6
 160 707 160 707 186 729 c 128,-1,7
 212 751 212 751 235 751 c 128,-1,8
 258 751 258 751 287 729 c 0,9,10
 353 681 353 681 352 656 c 0,11,12
 352 645 352 645 338 645 c 0,13,14
 336 645 336 645 334 645 c 1,15,16
 289 693 289 693 276 701 c 1,0,1
443 475 m 0,17,18
 466 420 466 420 467 352 c 1,19,-1
 467 328 l 2,20,21
 467 273 467 273 458 217 c 0,22,23
 441 112 441 112 392 59 c 128,-1,24
 343 6 343 6 273 6 c 0,25,26
 269 6 269 6 264 6 c 0,27,28
 173 8 173 8 108 73 c 128,-1,29
 43 138 43 138 41 250 c 0,30,31
 40 275 40 275 40 298 c 0,32,33
 40 424 40 424 75 494 c 0,34,35
 128 598 128 598 260 598 c 128,-1,36
 392 598 392 598 443 475 c 0,17,18
261 546 m 0,37,38
 256 546 256 546 251 546 c 0,39,40
 183 546 183 546 142 473.5 c 128,-1,41
 101 401 101 401 101 308 c 0,42,43
 101 199 101 199 150 121.5 c 128,-1,44
 199 44 199 44 263 44 c 256,45,46
 325 44 325 44 365.5 116 c 128,-1,47
 406 188 406 188 406 305 c 0,48,49
 406 458 406 458 334 517 c 0,50,51
 305 541 305 541 261 546 c 0,37,38
EndSplineSet
Validated: 33
EndChar

StartChar: Oacute
Encoding: 211 211 116
Width: 513
Flags: W
HStem: 6 38<205 320> 546 52<185 324> 676 73<241 333>
VStem: 40 62<176 433> 406 61<160 447>
LayerCount: 2
Fore
SplineSet
359 692 m 0,0,1
 324 675 324 675 301 675.5 c 128,-1,2
 278 676 278 676 240 698 c 1,3,4
 227 690 227 690 179 641 c 1,5,6
 177 641 177 641 175 641 c 0,7,8
 160 641 160 641 160 651 c 0,9,10
 160 678 160 678 230 727 c 0,11,12
 260 749 260 749 283 749 c 128,-1,13
 306 749 306 749 325 733 c 0,14,15
 360 703 360 703 360 694 c 0,16,17
 360 693 360 693 359 692 c 0,0,1
443 475 m 0,18,19
 466 420 466 420 467 352 c 1,20,-1
 467 328 l 2,21,22
 467 273 467 273 458 217 c 0,23,24
 441 112 441 112 392 59 c 128,-1,25
 343 6 343 6 273 6 c 0,26,27
 269 6 269 6 264 6 c 0,28,29
 173 8 173 8 108 73 c 128,-1,30
 43 138 43 138 41 250 c 0,31,32
 40 275 40 275 40 298 c 0,33,34
 40 424 40 424 75 494 c 0,35,36
 128 598 128 598 260 598 c 128,-1,37
 392 598 392 598 443 475 c 0,18,19
261 546 m 0,38,39
 256 546 256 546 251 546 c 0,40,41
 183 546 183 546 142 473.5 c 128,-1,42
 101 401 101 401 101 308 c 0,43,44
 101 199 101 199 150 121.5 c 128,-1,45
 199 44 199 44 263 44 c 256,46,47
 325 44 325 44 365.5 116 c 128,-1,48
 406 188 406 188 406 305 c 0,49,50
 406 458 406 458 334 517 c 0,51,52
 305 541 305 541 261 546 c 0,38,39
EndSplineSet
Validated: 33
EndChar

StartChar: Ocircumflex
Encoding: 212 212 117
Width: 513
Flags: W
HStem: 6 38<205 320> 546 52<185 324>
VStem: 40 62<176 433> 406 61<160 447>
LayerCount: 2
Fore
SplineSet
443 475 m 0,0,1
 466 420 466 420 467 352 c 1,2,-1
 467 328 l 2,3,4
 467 273 467 273 458 217 c 0,5,6
 441 112 441 112 392 59 c 128,-1,7
 343 6 343 6 273 6 c 0,8,9
 269 6 269 6 264 6 c 0,10,11
 173 8 173 8 108 73 c 128,-1,12
 43 138 43 138 41 250 c 0,13,14
 40 275 40 275 40 298 c 0,15,16
 40 424 40 424 75 494 c 0,17,18
 128 598 128 598 260 598 c 128,-1,19
 392 598 392 598 443 475 c 0,0,1
261 546 m 0,20,21
 256 546 256 546 251 546 c 0,22,23
 183 546 183 546 142 473.5 c 128,-1,24
 101 401 101 401 101 308 c 0,25,26
 101 199 101 199 150 121.5 c 128,-1,27
 199 44 199 44 263 44 c 256,28,29
 325 44 325 44 365.5 116 c 128,-1,30
 406 188 406 188 406 305 c 0,31,32
 406 458 406 458 334 517 c 0,33,34
 305 541 305 541 261 546 c 0,20,21
132 681 m 257,35,-1
 251 767 l 257,36,37
 251 768 251 768 308 726 c 128,-1,38
 365 684 365 684 366 684 c 1,39,40
 337 650 337 650 337 646 c 256,41,42
 334.5 646 l 0,43,44
 332 646 332 646 295 673 c 0,45,46
 277 684 277 684 254 700 c 1,47,-1
 166 646 l 1,48,49
 132 677 132 677 132 681 c 257,35,-1
EndSplineSet
Validated: 524321
EndChar

StartChar: aring
Encoding: 229 229 118
Width: 509
Flags: W
HStem: 4 57<159 276> 372 58<168 307> 512 28<209 286> 654 34<201 292>
VStem: 37 100<95 153> 138 48<558 638> 304 46<557 636> 331 69<150 199 251 306 306 348> 341 61<99 199> 345 118<4 60>
LayerCount: 2
Fore
SplineSet
261 512 m 2,0,-1
 241 512 l 2,1,2
 206 512 206 512 172.5 532 c 128,-1,3
 139 552 139 552 139 585 c 0,4,5
 138 593 138 593 138 603.5 c 128,-1,6
 138 614 138 614 140.5 628.5 c 128,-1,7
 143 643 143 643 155.5 657.5 c 128,-1,8
 168 672 168 672 190.5 680 c 128,-1,9
 213 688 213 688 249 688 c 128,-1,10
 285 688 285 688 306 678 c 0,11,12
 348 658 348 658 350 615 c 1,13,-1
 350 608 l 2,14,15
 350 551 350 551 311 526 c 0,16,17
 290 512 290 512 261 512 c 2,0,-1
304 595.5 m 128,-1,19
 304 618 304 618 293 636 c 128,-1,20
 282 654 282 654 238 654 c 0,21,22
 215 654 215 654 200.5 638.5 c 128,-1,23
 186 623 186 623 186 598.5 c 128,-1,24
 186 574 186 574 204 557 c 128,-1,25
 222 540 222 540 248 540 c 128,-1,26
 274 540 274 540 289 556.5 c 128,-1,18
 304 573 304 573 304 595.5 c 128,-1,19
330 257 m 2,27,-1
 331 283 l 2,28,29
 331 291 331 291 327 308 c 0,30,31
 313 372 313 372 250 372 c 128,-1,32
 187 372 187 372 88 304 c 0,33,34
 78 297 78 297 78 298 c 256,35,36
 78 299 78 299 70 305 c 128,-1,37
 62 311 62 311 57 321 c 0,38,39
 52 330 52 330 51 338 c 0,40,41
 51 387 51 387 234 425 c 0,42,43
 261 430 261 430 278 430 c 128,-1,44
 295 430 295 430 315.5 426.5 c 128,-1,45
 336 423 336 423 355 409.5 c 128,-1,46
 374 396 374 396 386.5 371.5 c 128,-1,47
 399 347 399 347 399 317 c 2,48,-1
 399 306 l 1,49,50
 398 306 398 306 398.5 290 c 128,-1,51
 399 274 399 274 399 250 c 2,52,-1
 402 82 l 1,53,54
 406 79 406 79 417 73 c 0,55,56
 466 47 466 47 469 33 c 1,57,-1
 463 4 l 1,58,-1
 357 4 l 2,59,60
 341 4 341 4 345 25.5 c 128,-1,61
 349 47 349 47 358 63 c 1,62,63
 239 4 239 4 185.5 4 c 128,-1,64
 132 4 132 4 96.5 31 c 128,-1,65
 61 58 61 58 42 94 c 0,66,67
 37 104 37 104 37 116 c 128,-1,68
 37 128 37 128 49.5 145 c 128,-1,69
 62 162 62 162 94 179.5 c 128,-1,70
 126 197 126 197 166.5 211 c 128,-1,71
 207 225 207 225 243.5 235 c 128,-1,72
 280 245 280 245 304.5 250.5 c 128,-1,73
 329 256 329 256 330 257 c 2,27,-1
341 117 m 258,74,-1
 335 199 l 257,75,76
 296 199 296 199 251 187.5 c 128,-1,77
 206 176 206 176 184 166 c 0,78,79
 137 145 137 145 137 116 c 0,80,81
 137 113 137 113 138 109 c 1,82,83
 164 64 164 64 215 61 c 1,84,-1
 228 61 l 2,85,86
 253 61 253 61 286 80 c 0,87,88
 341 112 341 112 341 117 c 258,74,-1
EndSplineSet
Validated: 8388609
EndChar

StartChar: ae
Encoding: 230 230 119
Width: 793
Flags: W
HStem: 4 46<471 598> 6 51<160 278> 208 41<422 627> 370 56<167 311> 378 52<493 649>
VStem: 38 101<92 153> 335 79<102 207>
LayerCount: 2
Fore
SplineSet
551 430 m 2,0,1
 581 430 l 2,2,3
 605 430 605 430 635 420.5 c 128,-1,4
 665 411 665 411 685.5 394.5 c 128,-1,5
 706 378 706 378 716 357 c 128,-1,6
 726 336 726 336 731 315 c 128,-1,7
 736 294 736 294 737.5 275.5 c 128,-1,8
 739 257 739 257 740.5 248 c 128,-1,9
 742 239 742 239 729 233 c 0,10,11
 670 208 670 208 419 208 c 1,12,13
 415 192 415 192 415 180 c 0,14,15
 415 116 415 116 450 88 c 0,16,17
 497 50 497 50 529 50 c 128,-1,18
 561 50 561 50 600 73 c 128,-1,19
 639 96 639 96 662 109.5 c 128,-1,20
 685 123 685 123 698.5 128.5 c 128,-1,21
 712 134 712 134 717.5 133 c 128,-1,22
 723 132 723 132 727 127.5 c 128,-1,23
 731 123 731 123 736 115.5 c 128,-1,24
 741 108 741 108 753 100 c 1,25,26
 717 64 717 64 647.5 32.5 c 128,-1,27
 578 1 578 1 518 -1 c 1,28,-1
 513 -1 l 2,29,30
 485 -1 485 -1 460 8 c 0,31,32
 459 7 459 7 459 5 c 2,33,-1
 459 4 l 1,34,-1
 445 4 l 1,35,36
 420 2 420 2 392 2 c 2,37,-1
 352 2 l 2,38,39
 341 2 341 2 341 11 c 128,-1,40
 341 20 341 20 344.5 31.5 c 128,-1,41
 348 43 348 43 353.5 52.5 c 128,-1,42
 359 62 359 62 359 65 c 1,43,44
 343 61 343 61 339 58 c 2,45,-1
 323 49 l 2,46,47
 287 29 287 29 246.5 17.5 c 128,-1,48
 206 6 206 6 193 6 c 2,49,-1
 174 6 l 1,50,51
 79 16 79 16 43 90 c 0,52,53
 38 100 38 100 38 111.5 c 128,-1,54
 38 123 38 123 50.5 141.5 c 128,-1,55
 63 160 63 160 95 181 c 128,-1,56
 127 202 127 202 167.5 219 c 128,-1,57
 208 236 208 236 244 248.5 c 128,-1,58
 280 261 280 261 305 268 c 128,-1,59
 330 275 330 275 330.5 276.5 c 128,-1,60
 331 278 331 278 331.5 289.5 c 128,-1,61
 332 301 332 301 328 315 c 0,62,63
 319 353 319 353 280 366 c 0,64,65
 267 370 267 370 256 370 c 128,-1,66
 245 370 245 370 230 368 c 128,-1,67
 215 366 215 366 192.5 358 c 128,-1,68
 170 350 170 350 149.5 339 c 128,-1,69
 129 328 129 328 113 318 c 128,-1,70
 97 308 97 308 87.5 301.5 c 128,-1,71
 78 295 78 295 78 296 c 256,72,73
 78 297 78 297 70 302.5 c 128,-1,74
 62 308 62 308 57 317 c 0,75,76
 52 326 52 326 52 334 c 0,77,78
 52 383 52 383 236 421 c 0,79,80
 264 426 264 426 286 426 c 0,81,82
 371 426 371 426 394 355 c 1,83,84
 429 393 429 393 473 411.5 c 128,-1,85
 517 430 517 430 551 430 c 2,0,1
683 293 m 1,86,87
 678 342 678 342 633 366 c 0,88,89
 610 378 610 378 566.5 378 c 128,-1,90
 523 378 523 378 493 356 c 0,91,92
 441 319 441 319 427 278 c 2,93,-1
 422 261 l 1,94,-1
 436 260 l 1,95,96
 508 250 508 250 548 250 c 128,-1,97
 588 250 588 250 593 249 c 0,98,99
 655 252 655 252 678 261 c 1,100,101
 683 270 683 270 683 280 c 2,102,-1
 683 293 l 1,86,87
335 218 m 1,103,-1
 319 215 l 2,104,105
 185 188 185 188 148 139 c 0,106,107
 138 126 138 126 138 117 c 128,-1,108
 138 108 138 108 139 104 c 1,109,110
 163 59 163 59 214 57 c 1,111,-1
 216 57 l 2,112,113
 269 57 269 57 329 103 c 0,114,115
 340 111 340 111 340 113 c 256,116,117
 340 114 340 114 338 143.5 c 128,-1,118
 336 173 336 173 335 202 c 2,119,-1
 335 218 l 1,103,-1
EndSplineSet
Validated: 8388609
EndChar

StartChar: equal
Encoding: 61 61 120
Width: 482
Flags: W
HStem: 201 56<53 342> 208 58<136 425> 339 56<53 342> 346 58<136 425>
LayerCount: 2
Fore
SplineSet
431 346 m 1,0,-1
 50 339 l 1,1,-1
 53 395 l 1,2,-1
 425 404 l 1,3,-1
 431 346 l 1,0,-1
431 208 m 1,4,-1
 50 201 l 1,5,-1
 53 257 l 1,6,-1
 425 266 l 1,7,-1
 431 208 l 1,4,-1
EndSplineSet
Validated: 8388609
EndChar

StartChar: edieresis
Encoding: 235 235 121
Width: 505
Flags: W
HStem: 3 48<177 299> 50 65<346 451> 222 43<116 323> 388 41<190 353>
VStem: 39 71<126 275>
LayerCount: 2
Fore
SplineSet
237 429 m 2,0,-1
 293 429 l 2,1,2
 313 429 313 429 342.5 421.5 c 128,-1,3
 372 414 372 414 392.5 399 c 128,-1,4
 413 384 413 384 424 365 c 128,-1,5
 435 346 435 346 440.5 327.5 c 128,-1,6
 446 309 446 309 447.5 291.5 c 128,-1,7
 449 274 449 274 450.5 264 c 128,-1,8
 452 254 452 254 437 248 c 0,9,10
 371 222 371 222 114 222 c 1,11,12
 110 204 110 204 110 191 c 0,13,14
 110 120 110 120 146 91 c 1,15,16
 207 55 207 55 235 51 c 0,17,18
 237 51 237 51 239 51 c 0,19,20
 264 52 264 52 302 75 c 0,21,22
 388 115 388 115 406 115 c 0,23,24
 407 115 407 115 408.5 115 c 128,-1,25
 410 115 410 115 412.5 115 c 128,-1,26
 415 115 415 115 426 114 c 128,-1,27
 437 113 437 113 448 103.5 c 128,-1,28
 459 94 459 94 462 83 c 128,-1,29
 465 72 465 72 462 61 c 128,-1,30
 459 50 459 50 452 46 c 1,31,32
 445 50 445 50 433 50 c 0,33,34
 412 50 412 50 337 25 c 1,35,36
 261 5 261 5 243.5 4 c 128,-1,37
 226 3 226 3 210 3 c 128,-1,38
 194 3 194 3 165 10.5 c 128,-1,39
 136 18 136 18 103 54.5 c 128,-1,40
 70 91 70 91 54.5 148 c 128,-1,41
 39 205 39 205 39 235.5 c 128,-1,42
 39 266 39 266 46 289 c 0,43,44
 76 384 76 384 177 416 c 0,45,46
 219 429 219 429 237 429 c 2,0,-1
388 309 m 0,47,48
 383 356 383 356 336 377 c 0,49,50
 311 388 311 388 266 388 c 128,-1,51
 221 388 221 388 189 368 c 0,52,53
 135 334 135 334 121 292 c 2,54,-1
 116 278 l 1,55,-1
 131 276 l 1,56,57
 215 265 215 265 285 265 c 128,-1,58
 355 265 355 265 385 278 c 1,59,60
 389 287 389 287 388.5 296 c 128,-1,61
 388 305 388 305 388 309 c 0,47,48
110 647 m 1,62,-1
 181 593 l 1,63,-1
 112 544 l 1,64,-1
 50 593 l 1,65,-1
 110 647 l 1,62,-1
337 647 m 1,66,-1
 409 593 l 1,67,-1
 339 544 l 1,68,-1
 278 593 l 1,69,-1
 337 647 l 1,66,-1
EndSplineSet
Validated: 8388609
EndChar

StartChar: idieresis
Encoding: 239 239 122
Width: 399
Flags: W
HStem: -1 68<98 146> -1 56<222 278> 381 81<113 145>
VStem: 145 73<63 314 319 365>
LayerCount: 2
Fore
SplineSet
230 365 m 0,0,1
 217 365 217 365 217 322 c 0,2,3
 218 245 218 245 218 197 c 2,4,-1
 218 120 l 2,5,6
 218 69 218 69 221.5 62 c 128,-1,7
 225 55 225 55 234 53.5 c 128,-1,8
 243 52 243 52 252 53 c 128,-1,9
 261 54 261 54 267.5 54.5 c 128,-1,10
 274 55 274 55 274 51 c 0,11,12
 276 33 276 33 282.5 19 c 128,-1,13
 289 5 289 5 289 2 c 128,-1,14
 289 -1 289 -1 280 -1 c 0,15,16
 197 -1 197 -1 114 -1 c 0,17,18
 100 -1 100 -1 98.5 8.5 c 128,-1,19
 97 18 97 18 93 41.5 c 128,-1,20
 89 65 89 65 97 67 c 128,-1,21
 105 69 105 69 116 66 c 128,-1,22
 127 63 127 63 136.5 60 c 128,-1,23
 146 57 146 57 146 63 c 2,24,-1
 145 199 l 1,25,-1
 145 223 l 1,26,27
 144 268 144 268 144 288 c 2,28,-1
 144 314 l 1,29,-1
 145 319 l 2,30,31
 146 317 146 317 145 321 c 2,32,-1
 144 387 l 2,33,34
 144 394 144 394 139.5 389.5 c 128,-1,35
 135 385 135 385 129 381.5 c 128,-1,36
 123 378 123 378 116.5 381.5 c 128,-1,37
 110 385 110 385 106 402 c 0,38,39
 105 409 105 409 105 415 c 0,40,41
 105 434 105 434 117 446 c 0,42,43
 132 463 132 463 147.5 463 c 128,-1,44
 163 463 163 463 176 455 c 0,45,46
 208 435 208 435 233 398 c 0,47,48
 244 382 244 382 244 371.5 c 128,-1,49
 244 361 244 361 239.5 363 c 128,-1,50
 235 365 235 365 230 365 c 0,0,1
95 646 m 1,51,-1
 167 592 l 1,52,-1
 97 543 l 1,53,-1
 36 592 l 1,54,-1
 95 646 l 1,51,-1
289 646 m 1,55,-1
 360 592 l 1,56,-1
 291 543 l 1,57,-1
 229 592 l 1,58,-1
 289 646 l 1,55,-1
EndSplineSet
Validated: 8388609
EndChar

StartChar: igrave
Encoding: 236 236 123
Width: 280
Flags: W
HStem: 0 68<44 92> 0 56<168 224> 382 81<59 91> 565 73<73 161>
VStem: 91 73<65 315 320 366>
LayerCount: 2
Fore
SplineSet
176 366 m 0,0,1
 163 366 163 366 163 323 c 0,2,3
 164 246 164 246 164 198 c 2,4,-1
 164 121 l 2,5,6
 164 70 164 70 167.5 63 c 128,-1,7
 171 56 171 56 180 54.5 c 128,-1,8
 189 53 189 53 198 54 c 128,-1,9
 207 55 207 55 214 55.5 c 128,-1,10
 221 56 221 56 221 52 c 0,11,12
 223 34 223 34 229 20 c 128,-1,13
 235 6 235 6 235 3 c 128,-1,14
 235 0 235 0 226 0 c 0,15,16
 143 0 143 0 60 0 c 0,17,18
 46 0 46 0 44.5 9.5 c 128,-1,19
 43 19 43 19 39 42.5 c 128,-1,20
 35 66 35 66 43.5 68 c 128,-1,21
 52 70 52 70 62.5 67.5 c 128,-1,22
 73 65 73 65 83 61.5 c 128,-1,23
 93 58 93 58 93 65 c 2,24,-1
 91 200 l 1,25,-1
 91 224 l 1,26,27
 90 269 90 269 90 289 c 2,28,-1
 90 315 l 1,29,-1
 91 320 l 2,30,31
 92 318 92 318 91 322 c 2,32,-1
 91 338 l 2,33,34
 91 352 91 352 90 388 c 0,35,36
 90 395 90 395 85.5 390.5 c 128,-1,37
 81 386 81 386 75 382.5 c 128,-1,38
 69 379 69 379 62.5 382.5 c 128,-1,39
 56 386 56 386 53 403 c 0,40,41
 52 410 52 410 51 416 c 0,42,43
 51 435 51 435 63 447 c 0,44,45
 78 464 78 464 93.5 464 c 128,-1,46
 109 464 109 464 122 456 c 0,47,48
 154 436 154 436 179 399 c 0,49,50
 190 383 190 383 190 372.5 c 128,-1,51
 190 362 190 362 185.5 364 c 128,-1,52
 181 366 181 366 176 366 c 0,0,1
163 589 m 1,53,54
 129 565 129 565 105.5 565 c 128,-1,55
 82 565 82 565 47 583 c 0,56,57
 46 584 46 584 46 585 c 0,58,59
 46 594 46 594 73 616 c 128,-1,60
 100 638 100 638 123 638 c 128,-1,61
 146 638 146 638 174 616 c 0,62,63
 241 567 241 567 241 543 c 0,64,65
 241 532 241 532 226 532 c 0,66,67
 224 532 224 532 222 532 c 1,68,69
 176 581 176 581 163 589 c 1,53,54
EndSplineSet
Validated: 8388609
EndChar

StartChar: iacute
Encoding: 237 237 124
Width: 286
Flags: W
HStem: 0 68<44 92> 0 56<168 224> 382 81<59 91> 565 73<128 221>
VStem: 91 73<65 315 320 366>
LayerCount: 2
Fore
SplineSet
247 582 m 0,0,1
 212 565 212 565 188.5 565 c 128,-1,2
 165 565 165 565 127 588 c 1,3,4
 114 580 114 580 68 530 c 1,5,6
 66 530 66 530 64 530 c 0,7,8
 49 530 49 530 48 541 c 0,9,10
 49 547 49 547 52 553 c 0,11,12
 62 578 62 578 117 616 c 0,13,14
 147 638 147 638 170.5 638 c 128,-1,15
 194 638 194 638 212 623 c 0,16,17
 248 593 248 593 248 584 c 0,18,19
 248 583 248 583 247 582 c 0,0,1
176 366 m 0,20,21
 163 366 163 366 163 323 c 0,22,23
 164 246 164 246 164 198 c 2,24,-1
 164 121 l 2,25,26
 164 70 164 70 167.5 63 c 128,-1,27
 171 56 171 56 180 54.5 c 128,-1,28
 189 53 189 53 198 54 c 128,-1,29
 207 55 207 55 214 55.5 c 128,-1,30
 221 56 221 56 221 52 c 0,31,32
 223 34 223 34 229 20 c 128,-1,33
 235 6 235 6 235 3 c 128,-1,34
 235 0 235 0 226 0 c 0,35,36
 143 0 143 0 60 0 c 0,37,38
 46 0 46 0 44.5 9.5 c 128,-1,39
 43 19 43 19 39 42.5 c 128,-1,40
 35 66 35 66 43.5 68 c 128,-1,41
 52 70 52 70 62.5 67.5 c 128,-1,42
 73 65 73 65 83 61.5 c 128,-1,43
 93 58 93 58 93 65 c 2,44,-1
 91 200 l 1,45,-1
 91 224 l 1,46,47
 90 269 90 269 90 289 c 2,48,-1
 90 315 l 1,49,-1
 91 320 l 2,50,51
 92 318 92 318 91 322 c 2,52,-1
 91 338 l 2,53,54
 91 352 91 352 90 388 c 0,55,56
 90 395 90 395 85.5 390.5 c 128,-1,57
 81 386 81 386 75 382.5 c 128,-1,58
 69 379 69 379 62.5 382.5 c 128,-1,59
 56 386 56 386 53 403 c 0,60,61
 52 410 52 410 51 416 c 0,62,63
 51 435 51 435 63 447 c 0,64,65
 78 464 78 464 93.5 464 c 128,-1,66
 109 464 109 464 122 456 c 0,67,68
 154 436 154 436 179 399 c 0,69,70
 190 383 190 383 190 372.5 c 128,-1,71
 190 362 190 362 185.5 364 c 128,-1,72
 181 366 181 366 176 366 c 0,20,21
EndSplineSet
Validated: 8388609
EndChar

StartChar: icircumflex
Encoding: 238 238 125
Width: 312
Flags: W
HStem: 0 68<82 130> 0 56<205 261> 382 81<96 128>
VStem: 129 73<65 315 320 366>
LayerCount: 2
Fore
SplineSet
214 366 m 0,0,1
 201 366 201 366 201 323 c 0,2,3
 202 246 202 246 202 198 c 2,4,-1
 202 121 l 2,5,6
 202 70 202 70 205.5 63 c 128,-1,7
 209 56 209 56 217.5 54.5 c 128,-1,8
 226 53 226 53 235.5 54 c 128,-1,9
 245 55 245 55 251.5 55.5 c 128,-1,10
 258 56 258 56 258 52 c 0,11,12
 260 34 260 34 266 20 c 128,-1,13
 272 6 272 6 272 3 c 128,-1,14
 272 0 272 0 264 0 c 0,15,16
 181 0 181 0 97 0 c 0,17,18
 83 0 83 0 82 9.5 c 128,-1,19
 81 19 81 19 77 42.5 c 128,-1,20
 73 66 73 66 81 68 c 128,-1,21
 89 70 89 70 100 67.5 c 128,-1,22
 111 65 111 65 120.5 61.5 c 128,-1,23
 130 58 130 58 130 65 c 2,24,-1
 129 200 l 1,25,-1
 129 224 l 1,26,27
 128 269 128 269 128 289 c 2,28,-1
 128 315 l 1,29,-1
 129 320 l 2,30,31
 130 318 130 318 129 322 c 2,32,-1
 128 388 l 2,33,34
 128 395 128 395 123.5 390.5 c 128,-1,35
 119 386 119 386 112.5 382.5 c 128,-1,36
 106 379 106 379 99.5 382.5 c 128,-1,37
 93 386 93 386 90 403 c 0,38,39
 89 410 89 410 89 416 c 0,40,41
 89 435 89 435 101 447 c 0,42,43
 116 464 116 464 131.5 464 c 128,-1,44
 147 464 147 464 160 456 c 0,45,46
 192 436 192 436 217 399 c 0,47,48
 228 383 228 383 227.5 372.5 c 128,-1,49
 227 362 227 362 223 364 c 128,-1,50
 219 366 219 366 214 366 c 0,0,1
270 569 m 1,51,52
 240 533 240 533 241 531 c 256,53,54
 238.5 531 l 0,55,56
 236 531 236 531 199 558 c 0,57,58
 181 569 181 569 158 586 c 1,59,-1
 71 531 l 1,60,61
 36 562 36 562 36 566 c 1,62,-1
 44 573 l 1,63,64
 64 586 64 586 88 603.5 c 128,-1,65
 112 621 112 621 134 636 c 128,-1,66
 156 651 156 651 156 652 c 256,67,68
 156 653 156 653 212.5 611 c 128,-1,69
 269 569 269 569 270 569 c 1,51,52
EndSplineSet
Validated: 8912929
EndChar

StartChar: ograve
Encoding: 242 242 126
Width: 506
Flags: W
HStem: 0 68<186 319> 374 57<176 325> 565 73<174 262>
VStem: 39 77<146 311> 381 79<137 318>
LayerCount: 2
Fore
SplineSet
264 589 m 1,0,1
 230 565 230 565 206.5 565 c 128,-1,2
 183 565 183 565 150 583 c 0,3,4
 149 584 149 584 149 586 c 0,5,6
 149 595 149 595 175 616.5 c 128,-1,7
 201 638 201 638 224 638 c 128,-1,8
 247 638 247 638 276 616 c 0,9,10
 342 568 342 568 341 544 c 0,11,12
 341 533 341 533 327 532 c 0,13,14
 325 532 325 532 323 532 c 1,15,16
 277 581 277 581 264 589 c 1,0,1
258 431 m 0,17,18
 329 431 329 431 372 408 c 0,19,20
 456 362 456 362 460 264 c 1,21,22
 460 230 l 2,23,24
 460 207 460 207 451 172 c 128,-1,25
 442 137 442 137 425 105 c 0,26,27
 365 0 365 0 262 0 c 2,28,-1
 257 0 l 1,29,30
 171 2 171 2 106.5 59 c 128,-1,31
 42 116 42 116 40 195 c 0,32,33
 39 211 39 211 39 226 c 0,34,35
 39 312 39 312 74 360 c 0,36,37
 126 431 126 431 258 431 c 0,17,18
381 233 m 0,38,39
 381 320 381 320 315 358 c 0,40,41
 287 374 287 374 251 374 c 0,42,43
 188 374 188 374 152 331.5 c 128,-1,44
 116 289 116 289 116 224 c 0,45,46
 118 165 118 165 158 116.5 c 128,-1,47
 198 68 198 68 253.5 68 c 128,-1,48
 309 68 309 68 345 115.5 c 128,-1,49
 381 163 381 163 381 233 c 0,38,39
EndSplineSet
Validated: 33
EndChar

StartChar: oacute
Encoding: 243 243 127
Width: 506
Flags: W
HStem: 0 68<186 319> 374 57<176 325> 569 74<231 321>
VStem: 39 77<146 311> 381 79<137 318>
LayerCount: 2
Fore
SplineSet
228 593 m 1,0,1
 215 585 215 585 168 536 c 1,2,3
 166 536 166 536 164 536 c 0,4,5
 149 536 149 536 149 546 c 0,6,7
 149 551 149 551 153 557 c 0,8,9
 163 582 163 582 218 622 c 0,10,11
 248 644 248 644 271.5 643.5 c 128,-1,12
 295 643 295 643 313 628 c 0,13,14
 348 598 348 598 348 589 c 0,15,16
 348 588 348 588 347 587 c 0,17,18
 310 570 310 570 286 569.5 c 128,-1,19
 262 569 262 569 228 593 c 1,0,1
258 431 m 0,20,21
 329 431 329 431 372 408 c 0,22,23
 456 362 456 362 460 264 c 1,24,-1
 460 230 l 2,25,26
 460 207 460 207 451 172 c 128,-1,27
 442 137 442 137 425 105 c 0,28,29
 365 0 365 0 262 0 c 2,30,-1
 257 0 l 1,31,32
 171 2 171 2 106.5 59 c 128,-1,33
 42 116 42 116 40 195 c 0,34,35
 39 211 39 211 39 226 c 0,36,37
 39 312 39 312 74 360 c 0,38,39
 126 431 126 431 258 431 c 0,20,21
381 233 m 0,40,41
 381 320 381 320 315 358 c 0,42,43
 287 374 287 374 251 374 c 0,44,45
 188 374 188 374 152 331.5 c 128,-1,46
 116 289 116 289 116 224 c 0,47,48
 118 165 118 165 158 116.5 c 128,-1,49
 198 68 198 68 253.5 68 c 128,-1,50
 309 68 309 68 345 115.5 c 128,-1,51
 381 163 381 163 381 233 c 0,40,41
EndSplineSet
Validated: 33
EndChar

StartChar: egrave
Encoding: 232 232 128
Width: 506
Flags: W
HStem: 3 48<170 299> 50 65<346 449> 222 43<116 323> 388 41<190 353> 558 73<172 260>
VStem: 39 71<126 275>
LayerCount: 2
Fore
SplineSet
262 582 m 1,0,1
 226 560 226 560 205 558 c 0,2,3
 181 558 181 558 148 575 c 0,4,5
 147 576 147 576 147 579 c 0,6,7
 147 588 147 588 173 609.5 c 128,-1,8
 199 631 199 631 222 631 c 128,-1,9
 245 631 245 631 274 609 c 0,10,11
 340 561 340 561 339 537 c 0,12,13
 339 526 339 526 325 525 c 0,14,15
 323 525 323 525 321 525 c 1,16,17
 275 574 275 574 262 582 c 1,0,1
237 429 m 2,18,-1
 293 429 l 2,19,20
 313 429 313 429 342.5 421.5 c 128,-1,21
 372 414 372 414 392.5 399 c 128,-1,22
 413 384 413 384 424 365 c 128,-1,23
 435 346 435 346 440.5 327.5 c 128,-1,24
 446 309 446 309 447.5 291.5 c 128,-1,25
 449 274 449 274 450.5 264 c 128,-1,26
 452 254 452 254 437 248 c 0,27,28
 371 222 371 222 114 222 c 1,29,30
 110 204 110 204 110 191 c 0,31,32
 110 120 110 120 146 91 c 0,33,34
 194 52 194 52 235 51 c 0,35,36
 237 51 237 51 239 51 c 0,37,38
 264 52 264 52 302 75 c 0,39,40
 366 115 366 115 408 115 c 0,41,42
 435 115 435 115 447 104.5 c 128,-1,43
 459 94 459 94 462 83 c 128,-1,44
 465 72 465 72 462 61 c 128,-1,45
 459 50 459 50 452 46 c 1,46,47
 445 50 445 50 433 50 c 0,48,49
 412 50 412 50 337 25 c 1,50,51
 261 5 261 5 243.5 4 c 128,-1,52
 226 3 226 3 210 3 c 128,-1,53
 194 3 194 3 165 10.5 c 128,-1,54
 136 18 136 18 103 54.5 c 128,-1,55
 70 91 70 91 54.5 148 c 128,-1,56
 39 205 39 205 39 235.5 c 128,-1,57
 39 266 39 266 46 289 c 0,58,59
 76 384 76 384 177 416 c 0,60,61
 219 429 219 429 237 429 c 2,18,-1
388 309 m 0,62,63
 383 356 383 356 336 377 c 0,64,65
 311 388 311 388 266 388 c 128,-1,66
 221 388 221 388 189 368 c 0,67,68
 135 334 135 334 121 292 c 2,69,-1
 116 278 l 1,70,-1
 131 276 l 1,71,72
 215 265 215 265 285 265 c 128,-1,73
 355 265 355 265 385 278 c 1,74,75
 389 287 389 287 388.5 296 c 128,-1,76
 388 305 388 305 388 309 c 0,62,63
EndSplineSet
Validated: 8388641
EndChar

StartChar: eacute
Encoding: 233 233 129
Width: 506
Flags: W
HStem: 3 48<170 299> 50 65<346 449> 222 43<116 323> 388 41<190 353> 567 73<228 320>
VStem: 39 71<126 275>
LayerCount: 2
Fore
SplineSet
345 584 m 0,0,1
 310 567 310 567 287 567 c 128,-1,2
 264 567 264 567 226 590 c 1,3,4
 213 582 213 582 166 532 c 1,5,6
 164 532 164 532 162 532 c 0,7,8
 147 532 147 532 147 543 c 0,9,10
 147 570 147 570 216 618 c 0,11,12
 246 640 246 640 269.5 640 c 128,-1,13
 293 640 293 640 311 625 c 0,14,15
 346 595 346 595 346 586 c 0,16,17
 346 585 346 585 345 584 c 0,0,1
237 429 m 2,18,-1
 293 429 l 2,19,20
 313 429 313 429 342.5 421.5 c 128,-1,21
 372 414 372 414 392.5 399 c 128,-1,22
 413 384 413 384 424 365 c 128,-1,23
 435 346 435 346 440.5 327.5 c 128,-1,24
 446 309 446 309 447.5 291.5 c 128,-1,25
 449 274 449 274 450.5 264 c 128,-1,26
 452 254 452 254 437 248 c 0,27,28
 371 222 371 222 114 222 c 1,29,30
 110 204 110 204 110 191 c 0,31,32
 110 120 110 120 146 91 c 0,33,34
 194 52 194 52 235 51 c 0,35,36
 237 51 237 51 239 51 c 0,37,38
 264 52 264 52 302 75 c 0,39,40
 366 115 366 115 408 115 c 0,41,42
 435 115 435 115 447 104.5 c 128,-1,43
 459 94 459 94 462 83 c 128,-1,44
 465 72 465 72 462 61 c 128,-1,45
 459 50 459 50 452 46 c 1,46,47
 445 50 445 50 433 50 c 0,48,49
 412 50 412 50 337 25 c 1,50,51
 261 5 261 5 243.5 4 c 128,-1,52
 226 3 226 3 210 3 c 128,-1,53
 194 3 194 3 165 10.5 c 128,-1,54
 136 18 136 18 103 54.5 c 128,-1,55
 70 91 70 91 54.5 148 c 128,-1,56
 39 205 39 205 39 235.5 c 128,-1,57
 39 266 39 266 46 289 c 0,58,59
 76 384 76 384 177 416 c 0,60,61
 219 429 219 429 237 429 c 2,18,-1
388 309 m 0,62,63
 383 356 383 356 336 377 c 0,64,65
 311 388 311 388 266 388 c 128,-1,66
 221 388 221 388 189 368 c 0,67,68
 135 334 135 334 121 292 c 2,69,-1
 116 278 l 1,70,-1
 131 276 l 1,71,72
 215 265 215 265 285 265 c 128,-1,73
 355 265 355 265 385 278 c 1,74,75
 389 287 389 287 388.5 296 c 128,-1,76
 388 305 388 305 388 309 c 0,62,63
EndSplineSet
Validated: 8388609
EndChar

StartChar: ecircumflex
Encoding: 234 234 130
Width: 505
Flags: W
HStem: 3 48<170 299> 50 65<346 449> 222 43<116 323> 388 41<190 353>
VStem: 39 71<126 275>
LayerCount: 2
Fore
SplineSet
124 569 m 1,0,-1
 244 655 l 257,1,2
 244 656 244 656 300.5 614 c 128,-1,3
 357 572 357 572 359 572 c 1,4,5
 351 564 351 564 344.5 555.5 c 128,-1,6
 338 547 338 547 333.5 541.5 c 128,-1,7
 329 536 329 536 329 535 c 256,8,9
 326.5 534.5 l 0,10,11
 324 534 324 534 287 561 c 0,12,13
 269 572 269 572 246 589 c 1,14,-1
 159 535 l 1,15,16
 124 566 124 566 124 569 c 1,0,-1
237 429 m 2,17,-1
 293 429 l 2,18,19
 313 429 313 429 342.5 421.5 c 128,-1,20
 372 414 372 414 392.5 399 c 128,-1,21
 413 384 413 384 424 365 c 128,-1,22
 435 346 435 346 440.5 327.5 c 128,-1,23
 446 309 446 309 447.5 291.5 c 128,-1,24
 449 274 449 274 450.5 264 c 128,-1,25
 452 254 452 254 437 248 c 0,26,27
 371 222 371 222 114 222 c 1,28,29
 110 204 110 204 110 191 c 0,30,31
 110 120 110 120 146 91 c 0,32,33
 194 52 194 52 235 51 c 0,34,35
 237 51 237 51 239 51 c 0,36,37
 264 52 264 52 302 75 c 0,38,39
 366 115 366 115 408 115 c 0,40,41
 435 115 435 115 447 104.5 c 128,-1,42
 459 94 459 94 462 83 c 128,-1,43
 465 72 465 72 462 61 c 128,-1,44
 459 50 459 50 452 46 c 1,45,46
 445 50 445 50 433 50 c 0,47,48
 412 50 412 50 337 25 c 1,49,50
 261 5 261 5 243.5 4 c 128,-1,51
 226 3 226 3 210 3 c 128,-1,52
 194 3 194 3 165 10.5 c 128,-1,53
 136 18 136 18 103 54.5 c 128,-1,54
 70 91 70 91 54.5 148 c 128,-1,55
 39 205 39 205 39 235.5 c 128,-1,56
 39 266 39 266 46 289 c 0,57,58
 76 384 76 384 177 416 c 0,59,60
 219 429 219 429 237 429 c 2,17,-1
388 309 m 0,61,62
 383 356 383 356 336 377 c 0,63,64
 311 388 311 388 266 388 c 128,-1,65
 221 388 221 388 189 368 c 0,66,67
 135 334 135 334 121 292 c 2,68,-1
 116 278 l 1,69,-1
 131 276 l 1,70,71
 215 265 215 265 285 265 c 128,-1,72
 355 265 355 265 385 278 c 1,73,74
 389 287 389 287 388.5 296 c 128,-1,75
 388 305 388 305 388 309 c 0,61,62
EndSplineSet
Validated: 8912929
EndChar

